<?xml version="1.0" encoding="UTF-8" standalone="no"?>
<!-- Generator: Adobe Illustrator 28.0.0, SVG Export Plug-In . SVG Version: 6.00 Build 0)  -->

<svg
   version="1.1"
   id="Capa_1"
   x="0px"
   y="0px"
   viewBox="0 0 1500 299.10001"
   xml:space="preserve"
   width="1500"
   height="299.10001"
   xmlns="http://www.w3.org/2000/svg"
   xmlns:svg="http://www.w3.org/2000/svg"><defs
   id="defs11" />
<style
   type="text/css"
   id="style1">
	.st0{fill:url(#SVGID_1_);}
	.st1{fill:#243760;}
</style>
<g
   id="g11"
   transform="translate(-210,-390.4)">
	
		<linearGradient
   id="SVGID_1_"
   gradientUnits="userSpaceOnUse"
   x1="367.1434"
   y1="135.3297"
   x2="365.6734"
   y2="354.94971"
   gradientTransform="translate(0,314)">
		<stop
   offset="0"
   style="stop-color:#4C7CFC"
   id="stop1" />
		<stop
   offset="1"
   style="stop-color:#7636FC"
   id="stop2" />
	</linearGradient>
	<path
   class="st0"
   d="m 350.7,422.9 v 266.6 c 17.5,0 31.7,-14.5 31.7,-36.5 V 390.5 c -17.5,0 -31.7,14.5 -31.7,32.4 z"
   id="path2"
   style="fill:url(#SVGID_1_)" />
	<path
   class="st1"
   d="m 316.5,596.2 c 0,0 -15.4,-7.1 -20.4,-9.8 -37.1,-19.5 -48.4,-49.3 -48.4,-64.2 0,-18.3 4.7,-32 12.3,-43.1 -2.4,14.8 -3.3,31 1.9,45 0,0 4.7,-3.8 20.6,-14.4 9.1,-6.1 37.4,-23 37.4,-23 17.1,-11.6 16,-15.4 16,-26.5 v -37.6 c 0,0 -67,39.3 -88.1,54.3 -21.3,15.2 -37.8,37 -37.8,70.7 0,33.7 21.3,56.8 65.7,79.3 13,6.6 60.1,29 60.1,29 v -37 c 0,-13.1 -4.1,-14.8 -19.3,-22.7 z"
   id="path3" />
	<path
   class="st1"
   d="m 485.4,477 c -21,-15 -88.1,-54.3 -88.1,-54.3 v 37.6 c 0,11.1 -1.1,14.9 16,26.5 0,0 28.3,16.9 37.4,23 15.9,10.7 34.8,25.5 34.8,59.7 0,16.5 -4.7,27.5 -14.8,40 3.3,-17.4 5,-27.5 1.2,-40.5 -10.7,6 -19.2,9.9 -34.9,17.4 l -20.4,9.8 c -15.2,8 -19.4,9.7 -19.4,22.7 v 37 c 0,0 47.2,-22.4 60.1,-29 44.4,-22.6 65.7,-45.3 65.7,-79.3 0,-34 -16.3,-55.5 -37.6,-70.6 z"
   id="path4" />
	<path
   class="st1"
   d="m 820.4,512 c 0,-17.7 -16,-28.5 -39.6,-28.5 -26.5,0 -44.5,13.4 -47.2,37.3 h -29.5 c 2.6,-38 27.8,-62.9 76.6,-62.9 48.8,0 70.1,26.2 70.1,62.6 V 606 c 0,7.2 3,11.1 9.5,11.1 h 13.4 v 25.5 H 856 c -21.6,0 -33.1,-12.8 -33.1,-31.8 V 607 c -9.2,26.9 -33.1,40.6 -61.9,40.6 -35.4,0 -63.9,-19.3 -63.9,-58.6 0,-37 26.2,-56 69.4,-56 h 53.8 z m -53.1,46.5 c -29.5,0 -39.3,14.7 -39.3,30.5 0,16.7 11.1,33.1 38,33.1 29.5,0 55.3,-19.3 55.3,-63.2 l -54,-0.4"
   id="path5" />
	<path
   class="st1"
   d="m 884.6,552.3 c 0,-55.7 33.4,-94.3 89.4,-94.3 51.1,0 79.3,33.1 83.2,73.4 h -30.8 c -2,-25.5 -20.3,-47.8 -52.4,-47.8 -36.4,0 -58.6,28.5 -58.6,68.8 0,42.6 25.5,69.4 58.6,69.4 33.1,0 49.5,-24.2 52.4,-44.2 h 30.8 c -4.9,36.7 -33.7,69.8 -83.2,69.8 -53.4,-0.2 -89.4,-37.8 -89.4,-95.1 z"
   id="path6" />
	<path
   class="st1"
   d="m 1248.5,562.4 h -140.8 c 3.6,37 25.9,59.3 56.7,59.3 24.2,0 43.6,-13.8 50.8,-34.4 h 31.8 c -7.5,34.7 -39.6,59.9 -82.5,59.9 -52.4,0 -87.8,-37.7 -87.8,-94.7 0,-57 36,-94.7 87.8,-94.7 48.5,0 84.2,34.7 84.2,80.9 z M 1108,536.2 h 110.7 c -3.3,-30.8 -23.9,-52.7 -54.4,-52.7 -30.5,0 -52.7,23.2 -56.3,52.7 z"
   id="path7" />
	<path
   class="st1"
   d="m 1309.1,495.9 h 0.7 c 12.8,-23.6 35.7,-38 64.8,-38 44.9,0 82.9,33.1 82.9,93.7 0,60.6 -38,95.6 -82.9,95.6 -29.2,0 -52.1,-14.4 -64.8,-38 h -0.7 c 0.7,7.5 0.7,13.4 0.7,20.3 v 59.8 h -29.5 V 462.5 h 29.5 v 13.1 c -0.1,6.9 -0.1,12.8 -0.7,20.3 z m 117.6,55.7 c 0,-40.9 -24.2,-68.5 -59,-68.1 -35.1,0.3 -58.3,28.2 -58.3,67.8 0,39.6 23.3,70.1 58.3,70.4 34.7,0.3 59,-28.2 59,-70.1 z"
   id="path8" />
	<path
   class="st1"
   d="m 1489.2,390.6 h 29.5 v 76.8 c 0,8.2 0,14.4 -0.7,26.5 h 0.7 c 9.2,-17.4 26.9,-36 57.7,-36 39,0 62.9,27.8 62.9,71.1 v 113.7 h -29.5 V 532 c 0,-33.4 -17,-47.8 -40.6,-47.8 -27.2,0 -50.4,19.6 -50.4,57 v 101.5 h -29.5 z"
   id="path9" />
	<path
   class="st1"
   d="m 1679.2,401.3 h 30.8 v 30.8 h -30.8 z m 0.7,61.2 h 29.5 v 180.2 h -29.5 z"
   id="path10" />
	<path
   class="st1"
   d="M 608.1,642.8 V 488.1 h -22.8 v -25.6 h 23 v -36.3 c 0,-12.1 0.8,-21.1 6.7,-27 6,-5.8 15,-8.8 27.1,-8.8 h 48 v 25.1 h -38.4 c -5.1,0 -8.8,1 -10.8,3 -2.1,2 -3.2,7.8 -3.2,13.2 v 30.7 h 44.1 v 25.7 h -44.1 v 154.7 z"
   id="path11" />
</g>
</svg>
