<svg width="309" height="108" viewBox="0 0 309 108" fill="none" xmlns="http://www.w3.org/2000/svg">
<path d="M9.92614 49H3.17614L15.4659 14.0909H23.2727L35.5795 49H28.8295L19.5057 21.25H19.233L9.92614 49ZM10.1477 35.3125H28.5568V40.392H10.1477V35.3125ZM40.1776 49V14.0909H46.5014V43.6989H61.8764V49H40.1776ZM67.3651 14.0909H75.1037L85.4673 39.3864H85.8764L96.2401 14.0909H103.979V49H97.9105V25.017H97.5866L87.9389 48.8977H83.4048L73.7571 24.9659H73.4332V49H67.3651V14.0909ZM110.865 49V14.0909H133.57V19.392H117.189V28.8693H132.393V34.1705H117.189V43.6989H133.706V49H110.865ZM140.021 49V14.0909H153.112C155.794 14.0909 158.044 14.5568 159.862 15.4886C161.692 16.4205 163.072 17.7273 164.004 19.4091C164.947 21.0795 165.419 23.0284 165.419 25.2557C165.419 27.4943 164.942 29.4375 163.987 31.0852C163.044 32.7216 161.652 33.9886 159.811 34.8864C157.97 35.7727 155.709 36.2159 153.027 36.2159H143.703V30.9659H152.175C153.743 30.9659 155.027 30.75 156.027 30.3182C157.027 29.875 157.766 29.233 158.243 28.392C158.732 27.5398 158.976 26.4943 158.976 25.2557C158.976 24.017 158.732 22.9602 158.243 22.0852C157.754 21.1989 157.01 20.5284 156.01 20.0739C155.01 19.608 153.72 19.375 152.141 19.375H146.345V49H140.021ZM158.055 33.1818L166.697 49H159.641L151.152 33.1818H158.055ZM177.564 14.0909V49H171.24V14.0909H177.564ZM188.895 49H182.145L194.435 14.0909H202.241L214.548 49H207.798L198.474 21.25H198.202L188.895 49ZM189.116 35.3125H207.526V40.392H189.116V35.3125Z" fill="url(#paint0_linear_2363_133)"/>
<path d="M3.18182 57.6534V48.8182H49.6023V57.6534H31.6193V107H21.1648V57.6534H3.18182ZM58.5511 107V48.8182H96.392V57.6534H69.0909V73.4489H94.4318V82.2841H69.0909V98.1648H96.6193V107H58.5511ZM156.946 68.4489H146.321C146.018 66.7064 145.459 65.1629 144.645 63.8182C143.83 62.4545 142.817 61.2992 141.605 60.3523C140.393 59.4053 139.01 58.6951 137.457 58.2216C135.923 57.7292 134.266 57.483 132.486 57.483C129.323 57.483 126.52 58.2784 124.077 59.8693C121.634 61.4413 119.721 63.7519 118.338 66.8011C116.955 69.8314 116.264 73.5341 116.264 77.9091C116.264 82.3598 116.955 86.1098 118.338 89.1591C119.74 92.1894 121.652 94.4811 124.077 96.0341C126.52 97.5682 129.313 98.3352 132.457 98.3352C134.2 98.3352 135.829 98.108 137.344 97.6534C138.878 97.1799 140.251 96.4886 141.463 95.5795C142.694 94.6705 143.726 93.553 144.56 92.2273C145.412 90.9015 145.999 89.3864 146.321 87.6818L156.946 87.7386C156.548 90.5038 155.687 93.0985 154.361 95.5227C153.054 97.947 151.34 100.087 149.219 101.943C147.098 103.78 144.616 105.22 141.776 106.261C138.935 107.284 135.781 107.795 132.315 107.795C127.202 107.795 122.637 106.612 118.622 104.244C114.607 101.877 111.444 98.4583 109.134 93.9886C106.823 89.5189 105.668 84.1591 105.668 77.9091C105.668 71.6402 106.832 66.2803 109.162 61.8295C111.491 57.3598 114.664 53.9413 118.679 51.5739C122.694 49.2064 127.24 48.0227 132.315 48.0227C135.554 48.0227 138.565 48.4773 141.349 49.3864C144.134 50.2955 146.615 51.6307 148.793 53.392C150.971 55.1345 152.76 57.2746 154.162 59.8125C155.582 62.3314 156.51 65.2102 156.946 68.4489ZM166.598 107V48.8182H177.138V73.4489H204.098V48.8182H214.666V107H204.098V82.2841H177.138V107H166.598Z" fill="#3D3737"/>
<path d="M249.701 18.7757H245.415C243.974 18.7757 242.807 19.9019 242.807 21.2911C242.807 22.6803 243.974 23.8064 245.415 23.8064H249.701V30.6339H245.415C243.974 30.6339 242.807 31.7601 242.807 33.1493C242.807 34.5385 243.974 35.6646 245.415 35.6646H249.701V53.2728H241.782V45.0078C241.782 39.757 237.352 35.4852 231.906 35.4852C226.461 35.4852 222.031 39.7573 222.031 45.0082V48.4219H219.609C218.168 48.4219 217 49.5481 217 50.9373C217 52.3264 218.168 53.4526 219.609 53.4526H222.031V60.2801H219.609C218.168 60.2801 217 61.4062 217 62.7954C217 64.1846 218.168 65.3108 219.609 65.3108H222.546C224.444 72.7286 231.399 78.2472 239.67 78.2472H246.626V104.3C246.626 106.284 248.295 107.893 250.353 107.893H274.949C277.007 107.893 278.675 106.284 278.675 104.3V66.3894H285.414C293.728 66.3894 300.732 60.8824 302.712 53.453H305.693C307.134 53.453 308.302 52.3268 308.302 50.9376C308.302 49.5484 307.134 48.4223 305.693 48.4223H303.271V41.5948H305.693C307.134 41.5948 308.302 40.4686 308.302 39.0794C308.302 37.6903 307.134 36.5641 305.693 36.5641H303.271V33.1504C303.271 27.8995 298.841 23.6277 293.395 23.6277C287.95 23.6277 283.52 27.8995 283.52 33.1504V41.4153H275.601V23.8072H280.259C281.7 23.8072 282.868 22.681 282.868 21.2918C282.868 19.9026 281.7 18.7765 280.259 18.7765H275.601C275.601 16.6389 275.04 14.1766 274.055 12.4158L276.732 9.83434C277.751 8.85167 277.751 7.25942 276.732 6.27675C275.713 5.2948 274.062 5.2948 273.042 6.27675L270.688 8.54688C269.129 7.35278 267.28 6.49471 265.26 6.09474V2.51535C265.26 1.12617 264.092 0 262.651 0C261.211 0 260.043 1.12617 260.043 2.51535V6.09402C258.022 6.49399 256.174 7.35205 254.614 8.54615L252.26 6.27602C251.241 5.29407 249.59 5.29407 248.571 6.27602C247.552 7.25869 247.552 8.85095 248.571 9.83362L251.248 12.4151C250.261 14.1763 249.701 16.6386 249.701 18.7757ZM295.818 49.171C295.818 54.7023 291.151 59.2026 285.414 59.2026H274.949C272.891 59.2026 271.222 60.8116 271.222 62.7962V100.707H254.08V74.6547C254.08 72.6701 252.411 71.0611 250.353 71.0611H239.67C234.054 71.0611 229.484 66.6549 229.484 61.2388V45.0085C229.484 43.7207 230.571 42.6726 231.907 42.6726C233.243 42.6726 234.329 43.7203 234.329 45.0085V56.8671C234.329 58.8517 235.998 60.4606 238.056 60.4606H253.428C255.486 60.4606 257.155 58.8517 257.155 56.8671V18.3267C257.155 15.4041 259.621 13.0265 262.651 13.0265C265.682 13.0265 268.148 15.4045 268.148 18.3267V45.0082C268.148 46.9928 269.816 48.6017 271.875 48.6017H287.247C289.305 48.6017 290.973 46.9928 290.973 45.0082V33.1496C290.973 31.8618 292.06 30.8137 293.396 30.8137C294.732 30.8137 295.818 31.8614 295.818 33.1496L295.818 49.171Z" fill="url(#paint1_linear_2363_133)"/>
<defs>
<linearGradient id="paint0_linear_2363_133" x1="116.5" y1="3" x2="116.5" y2="81" gradientUnits="userSpaceOnUse">
<stop offset="0.345" stop-color="#7CBF39"/>
<stop offset="1" stop-color="#080E01"/>
</linearGradient>
<linearGradient id="paint1_linear_2363_133" x1="262.651" y1="0" x2="262.651" y2="107.893" gradientUnits="userSpaceOnUse">
<stop offset="0.39" stop-color="#86CE3E"/>
<stop offset="0.62" stop-color="#5A8D27"/>
<stop offset="1" stop-color="#112201"/>
</linearGradient>
</defs>
</svg>
