<?xml version="1.0" encoding="UTF-8"?><svg id="Layer_1" xmlns="http://www.w3.org/2000/svg" xmlns:xlink="http://www.w3.org/1999/xlink" viewBox="0 0 1080 1080"><defs><style>.cls-1{fill:url(#linear-gradient);}.cls-2{fill:#fff;}.cls-3{fill:#8c52ff;}.cls-4{fill:#ae86ff;}.cls-5{fill:#c6a8ff;}.cls-6{fill:#19116f;}</style><linearGradient id="linear-gradient" x1="27.48" y1="6792.74" x2="27.48" y2="6796.67" gradientTransform="translate(337.87 160979.8) scale(5.82 -23.6)" gradientUnits="userSpaceOnUse"><stop offset=".25" stop-color="#8c52ff"/><stop offset=".5" stop-color="#57007f"/><stop offset=".75" stop-color="#8c52ff"/></linearGradient></defs><g id="Grupo_140"><g id="Grupo_67"><g id="Grupo_65"><path id="Trazado_2740" class="cls-6" d="M449.29,430.38c3.23-1.52,6.78-2.22,10.34-2.03,4.34-.08,8.64,.82,12.57,2.64,3.79,1.88,7.12,4.58,9.73,7.91l14.19-14.19c-3.87-5.39-9.08-9.69-15.11-12.47-6.54-2.88-13.64-4.3-20.78-4.16-6.57-.17-13.11,1.07-19.16,3.65-5.04,2.18-9.33,5.77-12.37,10.34-3,4.79-4.52,10.37-4.36,16.02-.22,4.99,1.05,9.93,3.65,14.19,2.39,3.61,5.63,6.57,9.44,8.61,3.86,2.1,7.94,3.77,12.17,4.97,4.26,1.22,8.31,2.4,12.17,3.54,3.33,.91,6.52,2.31,9.44,4.16,2.36,1.48,3.75,4.11,3.65,6.89,.07,2.72-1.43,5.24-3.85,6.49-3.53,1.69-7.44,2.46-11.35,2.23-5.12,.09-10.2-.91-14.9-2.94-4.5-2.03-8.48-5.05-11.66-8.82l-14.19,14.19c3.11,3.78,6.81,7.03,10.95,9.63,4.28,2.67,8.92,4.72,13.77,6.08,5.08,1.43,10.34,2.15,15.62,2.13,9.69,.53,19.26-2.42,26.97-8.31,6.63-5.55,10.3-13.87,9.94-22.51,.23-5.08-1.04-10.12-3.65-14.5-2.4-3.68-5.63-6.74-9.44-8.93-3.84-2.22-7.92-3.99-12.16-5.27-4.26-1.28-8.31-2.46-12.17-3.54-3.31-.85-6.49-2.15-9.44-3.85-2.3-1.25-3.71-3.68-3.65-6.3-.03-2.5,1.4-4.79,3.65-5.86Z"/><path id="Trazado_2741" class="cls-6" d="M551.68,369.55h-22.31v40.56h-23.32v20.28h23.32v77.06h22.31v-77.06h23.32v-20.28h-23.32v-40.56Z"/><path id="Trazado_2742" class="cls-6" d="M656.42,414.37c-7.27-4.28-15.59-6.46-24.03-6.3-8.93-.1-17.72,2.21-25.45,6.69-7.53,4.36-13.79,10.61-18.15,18.15-4.52,7.86-6.83,16.79-6.69,25.85-.13,9.11,2.22,18.08,6.79,25.95,4.41,7.59,10.79,13.86,18.45,18.15,8.03,4.46,17.08,6.73,26.26,6.59,7.38,.04,14.69-1.41,21.49-4.26,6.66-2.77,12.57-7.07,17.23-12.57l-14.19-14.4c-2.97,3.38-6.68,6.02-10.85,7.71-4.41,1.79-9.13,2.68-13.89,2.63-5.38,.11-10.69-1.18-15.41-3.75-4.42-2.46-8.01-6.16-10.34-10.65-1.18-2.24-2.06-4.62-2.65-7.08h72.6c.4-2.03,.71-3.89,.91-5.58,.2-1.65,.3-3.31,.3-4.97,.15-8.69-1.9-17.27-5.98-24.94-3.82-7.12-9.49-13.08-16.42-17.23Zm-48.97,28.08c2.19-4.28,5.57-7.83,9.73-10.23,4.52-2.52,9.63-3.78,14.8-3.65,4.77-.15,9.49,.96,13.69,3.24,3.74,2.18,6.74,5.43,8.62,9.33,1.19,2.45,2.05,5.04,2.57,7.71h-51.78c.53-2.22,1.33-4.37,2.38-6.4h0Z"/><path id="Trazado_2743" class="cls-6" d="M789.45,433.12c-3.94-7.44-9.74-13.72-16.83-18.25-7.11-4.53-15.39-6.89-23.83-6.79-6.86-.11-13.63,1.53-19.68,4.77-3.84,2.08-7.27,4.83-10.14,8.11v-10.85h-22.3v137.89h22.3v-51.22c2.81,3.21,6.18,5.9,9.94,7.93,6.11,3.25,12.95,4.89,19.87,4.77,8.42,.1,16.69-2.22,23.83-6.69,7.1-4.47,12.91-10.73,16.83-18.15,4.19-7.89,6.31-16.72,6.19-25.65,.15-9-1.98-17.89-6.18-25.85Zm-20.28,41.07c-2.22,4.31-5.59,7.92-9.73,10.44-4.32,2.56-9.28,3.86-14.3,3.75-5.05,.09-10.03-1.21-14.4-3.75-4.17-2.48-7.55-6.1-9.73-10.44-2.37-4.78-3.56-10.07-3.45-15.41-.11-5.34,1.07-10.63,3.45-15.41,2.18-4.34,5.56-7.96,9.73-10.44,4.36-2.55,9.35-3.84,14.4-3.75,5.02-.1,9.97,1.2,14.3,3.75,4.14,2.52,7.51,6.14,9.73,10.44,2.43,4.77,3.65,10.06,3.54,15.41,.11,5.35-1.11,10.65-3.54,15.41Z"/></g><rect id="Rectángulo_162" class="cls-1" x="486.4" y="585.1" width="22.92" height="92.87"/><g id="Grupo_66"><path id="Trazado_2744" class="cls-6" d="M640.11,642.13l-22.31-61.49h-12.99l-22.31,61.49-22.91-61.49h-23.12l39.14,97.33h12.99l22.71-58,22.71,58h12.99l39.14-97.33h-23.12l-22.92,61.49Z"/><path id="Trazado_2745" class="cls-6" d="M768.26,591.49c-2.84-3.27-6.24-6.02-10.04-8.1-6.07-3.26-12.88-4.9-19.77-4.77-8.43-.1-16.71,2.26-23.83,6.79-7.09,4.53-12.89,10.82-16.83,18.25-4.2,7.96-6.33,16.85-6.18,25.85-.13,8.94,2,17.76,6.18,25.65,3.92,7.42,9.73,13.68,16.83,18.15,7.14,4.47,15.41,6.79,23.83,6.69,6.92,.12,13.76-1.52,19.87-4.77,3.76-2.03,7.12-4.72,9.94-7.93v10.67h22.31v-97.33h-22.31v10.84Zm-6.19,59.12c-5.12,5.56-12.42,8.6-19.97,8.31-5.02,.1-9.97-1.2-14.3-3.75-4.14-2.52-7.51-6.13-9.73-10.44-2.44-4.77-3.65-10.06-3.54-15.41-.11-5.35,1.11-10.65,3.54-15.41,2.22-4.31,5.59-7.92,9.73-10.44,4.32-2.55,9.28-3.85,14.3-3.75,5.09-.12,10.11,1.18,14.5,3.75,4.13,2.51,7.47,6.13,9.63,10.44,2.37,4.78,3.55,10.07,3.44,15.41,.3,7.81-2.42,15.43-7.6,21.28h0Z"/><path id="Trazado_2746" class="cls-6" d="M876.14,581.26c-4.16-1.8-8.65-2.7-13.18-2.63-9.69-.66-19.05,3.66-24.84,11.46-.18,.25-.33,.53-.51,.79v-10.21h-22.31v97.33h22.31v-54.14c-.58-6.72,1.62-13.39,6.08-18.45,4.14-3.96,9.69-6.08,15.41-5.88,2.55-.05,5.1,.37,7.5,1.22,2.25,.87,4.26,2.26,5.88,4.06l14.6-15.01c-2.98-3.61-6.71-6.52-10.95-8.52Z"/><path id="Trazado_2747" class="cls-6" d="M965.56,531.97v59.51c-2.84-3.27-6.24-6.02-10.04-8.1-6.07-3.26-12.88-4.9-19.77-4.77-8.43-.1-16.71,2.26-23.82,6.79-7.09,4.53-12.89,10.82-16.83,18.25-4.2,7.96-6.33,16.85-6.19,25.85-.13,8.94,2,17.76,6.19,25.66,3.92,7.42,9.73,13.68,16.83,18.15,7.13,4.47,15.41,6.79,23.82,6.69,6.92,.12,13.76-1.52,19.87-4.77,3.76-2.03,7.12-4.72,9.93-7.93v10.67h22.31v-146h-22.31Zm-11.66,123.17c-4.39,2.57-9.41,3.87-14.5,3.75-5.02,.1-9.97-1.2-14.29-3.75-4.14-2.52-7.51-6.13-9.73-10.44-2.44-4.77-3.65-10.06-3.54-15.41-.11-5.35,1.11-10.65,3.54-15.41,2.22-4.31,5.59-7.92,9.73-10.44,4.32-2.55,9.27-3.85,14.29-3.75,5.09-.12,10.11,1.18,14.5,3.75,4.13,2.51,7.47,6.12,9.63,10.44,2.37,4.78,3.55,10.07,3.45,15.41,.11,5.34-1.08,10.63-3.45,15.41-2.16,4.32-5.5,7.95-9.63,10.46h0Z"/></g><path id="Trazado_2748" class="cls-3" d="M448.01,620.59l47.92-84.56h-26.37l-50.49,91.25v14.19h110.11v-20.89h-81.17Z"/></g><g id="Grupo_74"><path id="Trazado_2749" class="cls-3" d="M266.13,410.56c-4.84-7.59-10.25-14.8-16.18-21.57l-.08-.08-.53-.59-.53-.59c-2.73-3.05-5.58-5.99-8.5-8.8-3.01-2.9-7.02-4.52-11.2-4.51-4.17,0-8.18,1.6-11.18,4.49-3.01,2.88-6.04,6.03-9.03,9.38-6.18,6.97-11.81,14.42-16.81,22.28-59.11,16.61-99.96,70.52-99.96,131.92,0,75.66,61.33,136.99,136.99,136.99h0c75.66,0,136.99-61.33,136.99-136.99h0c0-61.41-40.86-115.31-99.98-131.92Z"/><g id="Grupo_71"><g id="Grupo_70"><g id="Grupo_69"><g id="Grupo_68"><path id="Trazado_2750" class="cls-4" d="M198.02,611.69h62.18c-8.02,15.57-18.52,29.74-31.09,41.93-12.58-12.19-23.08-26.36-31.09-41.93Z"/><path id="Trazado_2751" class="cls-5" d="M260.2,611.69c-8.02,15.57-18.52,29.74-31.09,41.93-12.58-12.19-23.08-26.36-31.09-41.93h-11.81c2.47,21.2,8.48,41.84,17.78,61.06,6.61,13.65,15.05,26.34,25.11,37.69,10.05-11.36,18.5-24.04,25.11-37.69,9.3-19.22,15.3-39.86,17.77-61.06h-11.77Z"/><path id="Trazado_2752" class="cls-2" d="M281.5,522.09c.16-29.58-6.42-58.82-19.22-85.49-6.47-13.35-14.7-25.78-24.46-36.95l-1.06-1.18c-2.47-2.75-5.02-5.39-7.65-7.92-2.81,2.69-5.51,5.51-8.15,8.46-10.01,11.33-18.43,23.97-25.02,37.58-12.81,26.67-19.38,55.9-19.22,85.49h0v89.57h104.78v-89.57h0Zm-52.39-17.54c-9.76,0-19.45,1.67-28.64,4.95,7.05-16.57,16.73-31.89,28.64-45.39,11.92,13.5,21.59,28.83,28.64,45.39-9.2-3.27-18.89-4.94-28.65-4.93h0Z"/></g></g></g><path id="Trazado_2753" class="cls-3" d="M229.11,464.12c11.92,13.5,21.59,28.82,28.65,45.39-9.19-3.28-18.88-4.95-28.65-4.95-9.76,0-19.45,1.67-28.64,4.95,7.05-16.57,16.72-31.89,28.64-45.39Z"/></g><g id="Grupo_72"><path id="Trazado_2754" class="cls-2" d="M327.02,598.73h0c-6.7-16.98-18.6-31.41-34-41.22v54.19h22.48c6.07,.51,11.44-3.93,12.06-10,0-1.01-.18-2.02-.54-2.97Z"/></g><g id="Grupo_73"><path id="Trazado_2755" class="cls-2" d="M131.24,598.6c-.04,.11-.08,.2-.12,.31,0,0,0,.04-.02,.06-.3,.89-.46,1.82-.46,2.76,.62,6.06,5.99,10.51,12.06,10h22.49v-54.19c-15.36,9.78-27.24,24.15-33.96,41.07Z"/></g></g></g></svg>