<svg xmlns="http://www.w3.org/2000/svg" xml:space="preserve" id="Capa_1" width="1500" height="299.1" x="0" y="0" version="1.1"><style id="style1" type="text/css">.st1{fill:#243760}</style><g id="g11" transform="translate(-210 -390.4)"><linearGradient id="SVGID_1_" x1="367.143" x2="365.673" y1="135.33" y2="354.95" gradientTransform="translate(0 314)" gradientUnits="userSpaceOnUse"><stop id="stop1" offset="0" style="stop-color:#4c7cfc"/><stop id="stop2" offset="1" style="stop-color:#7636fc"/></linearGradient><path id="path2" d="M350.7 422.9v266.6c17.5 0 31.7-14.5 31.7-36.5V390.5c-17.5 0-31.7 14.5-31.7 32.4" style="fill:url(#SVGID_1_)"/><path id="path3" d="M316.5 596.2s-15.4-7.1-20.4-9.8c-37.1-19.5-48.4-49.3-48.4-64.2 0-18.3 4.7-32 12.3-43.1-2.4 14.8-3.3 31 1.9 45 0 0 4.7-3.8 20.6-14.4 9.1-6.1 37.4-23 37.4-23 17.1-11.6 16-15.4 16-26.5v-37.6s-67 39.3-88.1 54.3c-21.3 15.2-37.8 37-37.8 70.7s21.3 56.8 65.7 79.3c13 6.6 60.1 29 60.1 29v-37c0-13.1-4.1-14.8-19.3-22.7" class="st1"/><path id="path4" d="M485.4 477c-21-15-88.1-54.3-88.1-54.3v37.6c0 11.1-1.1 14.9 16 26.5 0 0 28.3 16.9 37.4 23 15.9 10.7 34.8 25.5 34.8 59.7 0 16.5-4.7 27.5-14.8 40 3.3-17.4 5-27.5 1.2-40.5-10.7 6-19.2 9.9-34.9 17.4l-20.4 9.8c-15.2 8-19.4 9.7-19.4 22.7v37s47.2-22.4 60.1-29c44.4-22.6 65.7-45.3 65.7-79.3s-16.3-55.5-37.6-70.6" class="st1"/><path id="path5" d="M820.4 512c0-17.7-16-28.5-39.6-28.5-26.5 0-44.5 13.4-47.2 37.3h-29.5c2.6-38 27.8-62.9 76.6-62.9s70.1 26.2 70.1 62.6V606c0 7.2 3 11.1 9.5 11.1h13.4v25.5H856c-21.6 0-33.1-12.8-33.1-31.8V607c-9.2 26.9-33.1 40.6-61.9 40.6-35.4 0-63.9-19.3-63.9-58.6 0-37 26.2-56 69.4-56h53.8zm-53.1 46.5c-29.5 0-39.3 14.7-39.3 30.5 0 16.7 11.1 33.1 38 33.1 29.5 0 55.3-19.3 55.3-63.2z" class="st1"/><path id="path6" d="M884.6 552.3c0-55.7 33.4-94.3 89.4-94.3 51.1 0 79.3 33.1 83.2 73.4h-30.8c-2-25.5-20.3-47.8-52.4-47.8-36.4 0-58.6 28.5-58.6 68.8 0 42.6 25.5 69.4 58.6 69.4s49.5-24.2 52.4-44.2h30.8c-4.9 36.7-33.7 69.8-83.2 69.8-53.4-.2-89.4-37.8-89.4-95.1" class="st1"/><path id="path7" d="M1248.5 562.4h-140.8c3.6 37 25.9 59.3 56.7 59.3 24.2 0 43.6-13.8 50.8-34.4h31.8c-7.5 34.7-39.6 59.9-82.5 59.9-52.4 0-87.8-37.7-87.8-94.7s36-94.7 87.8-94.7c48.5 0 84.2 34.7 84.2 80.9zM1108 536.2h110.7c-3.3-30.8-23.9-52.7-54.4-52.7s-52.7 23.2-56.3 52.7" class="st1"/><path id="path8" d="M1309.1 495.9h.7c12.8-23.6 35.7-38 64.8-38 44.9 0 82.9 33.1 82.9 93.7s-38 95.6-82.9 95.6c-29.2 0-52.1-14.4-64.8-38h-.7c.7 7.5.7 13.4.7 20.3v59.8h-29.5V462.5h29.5v13.1c-.1 6.9-.1 12.8-.7 20.3m117.6 55.7c0-40.9-24.2-68.5-59-68.1-35.1.3-58.3 28.2-58.3 67.8s23.3 70.1 58.3 70.4c34.7.3 59-28.2 59-70.1" class="st1"/><path id="path9" d="M1489.2 390.6h29.5v76.8c0 8.2 0 14.4-.7 26.5h.7c9.2-17.4 26.9-36 57.7-36 39 0 62.9 27.8 62.9 71.1v113.7h-29.5V532c0-33.4-17-47.8-40.6-47.8-27.2 0-50.4 19.6-50.4 57v101.5h-29.5z" class="st1"/><path id="path10" d="M1679.2 401.3h30.8v30.8h-30.8zm.7 61.2h29.5v180.2h-29.5z" class="st1"/><path id="path11" d="M608.1 642.8V488.1h-22.8v-25.6h23v-36.3c0-12.1.8-21.1 6.7-27 6-5.8 15-8.8 27.1-8.8h48v25.1h-38.4c-5.1 0-8.8 1-10.8 3-2.1 2-3.2 7.8-3.2 13.2v30.7h44.1v25.7h-44.1v154.7z" class="st1"/></g></svg>