<svg xmlns="http://www.w3.org/2000/svg" width="230" height="28" fill="none"><path fill="#000" d="M4.898.6H0v26.8h4.898zM30.907.6h-4.898v18.576L12.244.6H7.346v26.8h4.898V8.825l13.778 18.577h4.897zM43.77.6H33.367v26.8H43.77c3.55 0 6.951-1.422 9.462-3.933a13.38 13.38 0 0 0 3.92-9.473c0-3.55-1.422-6.963-3.92-9.474A13.43 13.43 0 0 0 43.769.6m7.84 16.646a8.4 8.4 0 0 1-1.842 2.758 8.6 8.6 0 0 1-2.758 1.843 8.6 8.6 0 0 1-3.253.643h-5.504V5.497h5.504c1.113 0 2.226.21 3.253.643a8.4 8.4 0 0 1 2.758 1.843 8.6 8.6 0 0 1 1.843 2.758c.42 1.039.643 2.14.643 3.253a8.2 8.2 0 0 1-.643 3.252M63.88.6h-4.885v26.8h4.897zM87.761.6H66.328v4.898h8.274V27.4H79.5V5.498h8.261zM108.787 22.49H95.096v-6.047h13.691v-4.898H95.096V5.498h13.691V.6H90.21v26.8h18.577zM125.298 13.76 134.017.6h-6.073l-5.615 8.72L116.702.6h-6.072l8.719 13.172-8.954 13.629h6.109l5.813-9.202 5.813 9.202h6.122zM158.108.581v2.177h-9.374v24.685h-2.561V2.758h-9.362V.58zM178.911.581v2.177H162.92v9.708h14.977v2.177H162.92v10.611h16.177v2.177H160.36V.581zM204.611 8.707h-2.56c-.903-4.106-4.292-6.506-8.237-6.506-7.038 0-10.117 5.838-10.117 11.811 0 5.751 2.931 11.811 10.117 11.811 4.662 0 8.088-3.5 8.62-8.62h2.56C204.277 23.981 199.948 28 193.814 28c-8.349 0-12.677-6.468-12.677-14 0-7.297 4.143-14 12.677-14 5.268.012 10.116 3.253 10.797 8.707M211.19.581v11.663h15.955V.58h2.56v26.862h-2.56V14.42H211.19v13.023h-2.56V.581z"/></svg>