<svg xmlns="http://www.w3.org/2000/svg" width="7919" height="1990" style="shape-rendering:geometricPrecision;text-rendering:geometricPrecision;image-rendering:optimizeQuality;fill-rule:evenodd;clip-rule:evenodd"><path fill="#009ee3" d="M1743.5-.5h4a934 934 0 0 0 18 3.5c7.71 2.696 12.04 8.029 13 16q-5.79 62.877-37.5 117.5a1270 1270 0 0 1-32 51 1341 1341 0 0 0-82 123c-7.83 21.329-18.49 40.996-32 59a1268 1268 0 0 1-56 64 320.5 320.5 0 0 0-26 34 1130 1130 0 0 0-90 106 15.57 15.57 0 0 0-3.5 7.5q4.485 16.449 18 27a565.5 565.5 0 0 1 53.5 44.5l42 64a85.3 85.3 0 0 0 11.5 10.5c4.06.351 7.72 1.685 11 4a302 302 0 0 1 15 18q6.735 4.44 15 4A1582 1582 0 0 1 1702 903.5c5.78 20.426 16.45 37.76 32 52a181 181 0 0 0 10 15c23.58 39.5 47.92 78.5 73 117 1.31 12.89 4.64 25.22 10 37 11.16 20.33 22.83 40.33 35 60a239 239 0 0 1 14 33c3.92 5.5 7.58 11.16 11 17a722 722 0 0 0 33 64c15.94 38.89 31.61 77.89 47 117a650 650 0 0 0 26 53c2.1 6.77 1.77 13.44-1 20-2.08 4.49-4.41 8.83-7 13-3.49 3.55-7.66 4.71-12.5 3.5-5.33-2.33-10.67-4.67-16-7-4.08-.23-8.08-.9-12-2-68.32-27.32-133.32-60.66-195-100a854 854 0 0 0-44-34c-36-24.67-72-49.33-108-74a724 724 0 0 1-49-39 63 63 0 0 1-17-9 852 852 0 0 0-34-35 446 446 0 0 1-42-28 6033 6033 0 0 0-102-83 1337 1337 0 0 1-122-90 54.5 54.5 0 0 1-18-8c-7.33-7.333-14.67-14.667-22-22a621 621 0 0 1-40-25c-23.67-17.667-47.33-35.333-71-53a533 533 0 0 0-37-23.5 4.5 4.5 0 0 0-1.5 2c-.24 6.384-.91 12.718-2 19-10.13 10.58-17.46 22.914-22 37a1469 1469 0 0 0-13 52 98.5 98.5 0 0 1-12 27q-1.312 28.245-13 54a2130 2130 0 0 1-28 55 241 241 0 0 0-9 23 7985 7985 0 0 0-79 150 2892 2892 0 0 1-35 63 668 668 0 0 0-25 36 2086 2086 0 0 1-72 117q-26.073 36.57-61.5 64.5-25.51 29.025-59 48a80 80 0 0 1-19-3 15.8 15.8 0 0 1-5.5-3.5 47.3 47.3 0 0 1-5-12 468 468 0 0 1-2-40c-.85-5.55-2.683-10.72-5.5-15.5a100.8 100.8 0 0 0 5.5-22.5c.751-18.71 1.917-37.38 3.5-56-4.692-12.11-5.192-24.44-1.5-37a829 829 0 0 0 10-50c.468-11.69.468-23.35 0-35q13.173-36.36 16-75c12.571-32.62 20.904-66.28 25-101q16.532-34.185 13-72c3.331-10.66 6.665-21.32 10-32 4.154-12.66 11.487-22.99 22-31q1.621-22.47 3-45a19400 19400 0 0 0 51-148 1288 1288 0 0 0 14-48q2.226-6.38 2-13-2.456-3.465-6.5-4.5-49.017-.345-98 1a186 186 0 0 1-43-6q-118.32-2.915-234-28a1225 1225 0 0 1-49-6 112.8 112.8 0 0 1-35.5-12.5 129.7 129.7 0 0 1-37.5.5 1349 1349 0 0 0-39-14 2835 2835 0 0 1-65-15 239 239 0 0 1-23.5-9.5q-10.824 1.387-21.5-1.5a973 973 0 0 1-33-12 282 282 0 0 0-26-4 122 122 0 0 1-13-7 719 719 0 0 0-24-21.5v-10q34.34-43.46 86-64.5a905 905 0 0 1 120-40l154-24a641 641 0 0 1 87 .5 251 251 0 0 0 34-3q20.486 1.34 41 2.5a4893 4893 0 0 0 173 14l43 11a88 88 0 0 0 19 1.5q.505-5.712-1.5-11l-64-88a505 505 0 0 0-19-38l-44-74a270 270 0 0 1-25-61 50.6 50.6 0 0 1-6-12 468 468 0 0 1-2-40 291 291 0 0 0-4.5-18.5 22.1 22.1 0 0 1 1.5-7.5 105 105 0 0 1 9.5-14.5q14.418-2.745 29-.5a45.2 45.2 0 0 0 14-3.5q3-1 6 0a1825 1825 0 0 1 80 23q104.607 24.668 190 89a1219 1219 0 0 1 69 43c23.59 16.251 43.92 35.918 61 59 13.01 7.81 26.68 9.143 41 4a171 171 0 0 0 15-16c6.67-4 13.33-8 20-12a8045 8045 0 0 1 107-54 371.4 371.4 0 0 0 57-38 301 301 0 0 0 35-20c6.85-5.513 12.19-12.179 16-20 9.33-5 18.67-10 28-15a162 162 0 0 1 19-7 784 784 0 0 1 88-60 79.2 79.2 0 0 0 25-8l27-17a4954 4954 0 0 0 118-62c9.83-5.75 19.5-11.75 29-18 2.79-3.08 4.96-6.58 6.5-10.5 6.04-7.702 13.87-12.535 23.5-14.5a487 487 0 0 0 38-6.5" style="opacity:.997"/><path d="M2843.5 152.5c86.27-3.557 171.6 3.61 256 21.5a8705 8705 0 0 1 126 33.5 37211 37211 0 0 1 11 186c-19.68.333-39.34 0-59-1-24.66-68.164-69.99-117.33-136-147.5q-130.305-55.92-267-18c-76.4 25.4-133.56 73.566-171.5 144.5-30.89 60.688-49.23 125.022-55 193q-11.475 112.474 12 223c16.34 76.039 51.01 142.039 104 198 77.02 73.15 169.02 110.81 276 113 116.83-1.39 207.49-50.06 272-146a2276 2276 0 0 1 41.5 17.5 3.9 3.9 0 0 1 1 2c-14.24 51.14-28.41 102.31-42.5 153.5a1640 1640 0 0 1-190.5 29.5c-79.48 6.59-158.48 2.92-237-11-99.16-17.67-187.49-58-265-121Q2366.455 887.181 2353 681.5c-6.79-116.924 22.55-223.59 88-320 70.01-94.645 162.18-157.478 276.5-188.5q62.205-16.49 126-20.5M7918.5 1129.5v28c-39-1.3-78-2.64-117-4-45.99 1.94-91.99 3.27-138 4v-28c13.77-1.62 20.77-9.45 21-23.5-.4-7.53-2.23-14.69-5.5-21.5-8.03-17.01-18.03-32.67-30-47-46.94-52.23-94.11-104.23-141.5-156-.33 33.333-.67 66.667-1 100-.14 35.69.36 71.36 1.5 107 4.59 24.08 19.09 37.75 43.5 41v28c-40.85-.82-81.68-2.15-122.5-4-34.86.66-69.7 1.99-104.5 4v-28c32.42-4.58 49.25-23.25 50.5-56 .93-168.005.6-336.005-1-504a4305 4305 0 0 0-10-177c-1.56-27.939-12.39-51.439-32.5-70.5-9.94-7.8-21.28-11.966-34-12.5a257 257 0 0 1 1-32q96.555-24.729 177-82.5c10.33-.5 20.66-.666 31-.5-.17 212.667 0 425.334.5 638 38.33-38.333 76.67-76.667 115-115 11.54-12.555 20.21-26.888 26-43 4.42-21.505-2.92-37.838-22-49-.5-9.327-.67-18.661-.5-28 52.25 3.754 104.58 4.92 157 3.5a804 804 0 0 0 54-3.5c1 9.644 1.33 19.31 1 29q-35.37 9.434-66 29.5c-24.18 15.497-46.01 33.997-65.5 55.5-31.83 34.333-63.67 68.667-95.5 103a71370 71370 0 0 0 204.5 243c22.95 24.31 48.79 44.81 77.5 61.5 8.36 4.35 17.03 7.85 26 10.5" style="opacity:.991"/><path d="M5408.5 210.5c58.65 1.939 117.32 3.939 176 6 41.23-.847 82.4-2.847 123.5-6q99.21.042 190.5 38.5c41.1 18.119 75.27 44.953 102.5 80.5 32.66 49.005 44 102.672 34 161q-10.875 55.254-48 97c-29.92 32.249-65.08 57.082-105.5 74.5a1343 1343 0 0 1-38 15c34.19 9.954 66.85 23.62 98 41 76.36 47.509 114.02 116.676 113 207.5.32 78.22-32.35 138.05-98 179.5-49.88 28.63-103.55 45.63-161 51a563 563 0 0 1-77 3c-27.33-1.76-54.66-3.43-82-5-81-.5-162-.67-243-.5v-25c19.04-1.34 36.71-6.84 53-16.5q21.63-19.845 22.5-49.5c1.5-256.016.17-512.016-4-768-.85-15.187-6.68-28.02-17.5-38.5-11.69-7.788-24.53-12.621-38.5-14.5-.5-10.328-.67-20.661-.5-31m253 50q48.87-1.263 96 11.5 83.16 25.664 106.5 109.5c10.56 40.978 12.22 82.312 5 124q-25.305 109.05-133.5 138a239.5 239.5 0 0 1-64 7 2096 2096 0 0 1-57-2q3-184.52 7.5-369c1.23-6.894 5.06-11.727 11.5-14.5a40.5 40.5 0 0 1 12-3c5.52-.173 10.85-.673 16-1.5m-20 446c22.34-.167 44.67 0 67 .5 82.27 8.626 138.1 51.459 167.5 128.5 15.96 48.868 17.63 98.201 5 148-25.66 76.6-78.83 118.44-159.5 125.5-17.35.75-34.69.42-52-1-37.7-2.37-55.87-22.54-54.5-60.5-.5-113.333-.67-226.666-.5-340q13.77.49 27-1" style="opacity:.992"/><path d="M4015.5 353.5c35.56-1.982 61.39 12.685 77.5 44q18.165 60.399-37.5 89.5c-29.4 11.076-56.73 7.41-82-11-26.57-25.815-31.4-55.315-14.5-88.5 14-19.416 32.84-30.75 56.5-34" style="opacity:.987"/><path d="M3551.5 581.5c36.69-.78 73.02 2.386 109 9.5q55.845 11.286 94.5 52.5c19.53 25.585 30.2 54.585 32 87q1.005 33 0 66a3744 3744 0 0 0-4 222c.15 15.11 3.49 29.44 10 43 6.89 9.7 16.39 14.37 28.5 14 9.9-.89 19.57-2.89 29-6 6.79 7.29 13.79 14.46 21 21.5a5777 5777 0 0 0-100 81c-39.16-2.83-71.99-18.66-98.5-47.5-4.17-5.67-7.84-11.67-11-18-24.54 20.03-51.04 37.2-79.5 51.5-40.03 16.34-81.03 19-123 8-39.83-10.14-72.66-30.98-98.5-62.5-22.11-31.1-31.44-65.77-28-104 4.38-58.283 30.55-103.783 78.5-136.5q57.585-37.03 126-45a384 384 0 0 1 70-3c15.31 1.498 30.65 2.665 46 3.5 1.21-30.074-1.63-59.741-8.5-89-10.15-39.148-35.32-60.648-75.5-64.5q-94.29-9.103-144 70.5a290 290 0 0 1-34 1c-.33-43.572 0-87.072 1-130.5q78.135-22.553 159-24.5m26 280a337.2 337.2 0 0 1 75 7q1.245 7.45 1.5 15c1.5 61.331 2.5 122.66 3 184-26.61 15.7-55.44 23.36-86.5 23-56.28-3.78-91.12-33.11-104.5-88-8.32-83.165 28.85-130.165 111.5-141M5032.5 581.5a544 544 0 0 1 99 7.5q58.635 9.193 100.5 50.5 35.175 43.502 36 100c-1.6 77.998-3.43 155.998-5.5 234-.75 24.157.75 48.16 4.5 72 2.18 9.88 7.01 18.04 14.5 24.5 6.32 3.69 13.15 5.53 20.5 5.5 9.93-.85 19.6-2.85 29-6 7.01 6.85 13.85 13.85 20.5 21-32.87 27.7-66.21 54.87-100 81.5-37.4-3.12-69.23-17.95-95.5-44.5-4.69-6.69-9.36-13.35-14-20a900 900 0 0 1-52.5 36.5c-49.23 30.32-101.56 36.98-157 20-48.84-13.85-84.67-43.35-107.5-88.5q-25.59-69.493 3-138c15.77-32.764 38.93-58.93 69.5-78.5q79.29-45.45 171-44.5 33.06 1.186 66 4c.74-30.764-2.42-61.098-9.5-91-10.87-37.537-35.7-58.371-74.5-62.5q-47.28-4.25-90 16c-22.33 14.333-40.67 32.667-55 55q-16.485.75-33 .5c-.33-43.572 0-87.072 1-130.5q78.135-22.553 159-24.5m26 280a337.2 337.2 0 0 1 75 7c1.86 64.832 3.53 129.665 5 194.5-.33 1.5-.67 3-1 4.5q-44.34 26.22-96 22.5c-41.72-5.4-71.22-27.23-88.5-65.5-11.51-32.089-11.18-64.089 1-96q25.05-52.528 82.5-63.5a603 603 0 0 1 22-3.5M6863.5 581.5c9.69-.332 19.36.002 29 1a1060 1060 0 0 0-2.5 66q44.46-30.11 94.5-50.5 79.995-27.863 159 3c47.68 22.467 76.84 59.634 87.5 111.5a262 262 0 0 1 6 39q1.455 170.523 3 341c2.12 14.13 9.62 24.29 22.5 30.5a317 317 0 0 0 23 8.5c1 9.31 1.33 18.64 1 28-33.48-1.81-66.98-3.14-100.5-4-42.49 1.57-84.99 2.9-127.5 4v-28c12.78-1.72 24.44-6.22 35-13.5 7.66-8.29 11.82-18.12 12.5-29.5 1.63-87.65 1.96-175.32 1-263q.18-49.232-15-96c-18.44-49.979-54.28-72.812-107.5-68.5q-34.575 3.391-66 18-17.535 9.03-28.5 25.5a63.2 63.2 0 0 0-4 12 8402 8402 0 0 0-2 374c1.48 20.81 12.31 33.64 32.5 38.5 5.29 1.16 10.63 1.99 16 2.5v28c-37.82-1.68-75.65-3.01-113.5-4-39.16 1.46-78.33 2.79-117.5 4-.33-9.36 0-18.69 1-28 11.79-3.56 22.79-8.73 33-15.5 8.37-7.25 13.21-16.41 14.5-27.5 1.14-33.31 1.64-66.64 1.5-100q.075-61.514-1.5-123a8712 8712 0 0 1-6-139c-2.73-24.045-15.56-39.545-38.5-46.5a167 167 0 0 0-20-2.5v-28c50.13-7.989 97.8-23.489 143-46.5a459 459 0 0 0 35-21.5M6348.5 582.5c35.69-.627 71.02 2.54 106 9.5q55.935 11.009 94.5 52.5c19.74 25.877 30.41 55.21 32 88q1.005 31.5 0 63a3786 3786 0 0 0-4 223q.48 21.9 9 42c6.88 10.27 16.54 15.27 29 15 10.28-1.12 20.45-2.62 30.5-4.5l18.5 18.5q1.005 1.5 0 3a5897 5897 0 0 0-98.5 79.5q-57.975-4.11-97.5-46.5c-4-6.16-8.17-12.16-12.5-18a548 548 0 0 1-70 46.5c-35.83 17.93-73.5 23.26-113 16-51.42-7.94-92.25-32.77-122.5-74.5-18.68-30.73-26.01-64.06-22-100 6.45-61.733 36.29-108.233 89.5-139.5 39.55-21.849 81.89-34.849 127-39a1325 1325 0 0 1 39.5-2.5 2037 2037 0 0 1 63.5 5c.96-26.207-.87-52.207-5.5-78-13.06-57.818-49.23-82.984-108.5-75.5-39.24 1.871-71.41 17.704-96.5 47.5a931 931 0 0 0-17.5 23.5q-16.485.75-33 .5c-.33-43.572 0-87.072 1-130.5 52.74-15.224 106.41-23.39 161-24.5m19 280c26.89-.91 53.56 1.09 80 6q3.3 99.98 3 200c-35.7 20.08-73.7 26.24-114 18.5-45.19-15.53-71.02-47.03-77.5-94.5q-5.97-58.102 34.5-99.5c21.6-17.632 46.26-27.798 74-30.5" style="opacity:.991"/><path d="M4061.5 583.5h28c5.22 166.622 7.38 333.288 6.5 500q1.56 29.43 28.5 40.5 11.1 4.335 22.5 7.5c.5 9.33.67 18.66.5 28-40.83-1.28-81.67-2.62-122.5-4-36.19.78-72.36 2.12-108.5 4-.33-9.36 0-18.69 1-28 11.02-2.51 21.36-6.68 31-12.5 8.71-8.26 13.54-18.42 14.5-30.5.94-87.34.61-174.677-1-262a459.4 459.4 0 0 0-13-93c-3.72-16.629-11.89-30.463-24.5-41.5q-16.665-9.974-36-12.5c-.33-9.357 0-18.69 1-28 53.59-12.806 104.92-31.639 154-56.5a242 242 0 0 0 18-11.5" style="opacity:.99"/><path d="M4204.5 598.5c40.81 1.954 81.64 3.287 122.5 4q60.78-1.115 121.5-4c.17 9.339 0 18.673-.5 28a441 441 0 0 0-17.5 9.5c-7.23 5.299-10.56 12.466-10 21.5q1.95 24.404 16.5 44c24.33 33.333 48.67 66.667 73 100a4979 4979 0 0 0 71-96 114.1 114.1 0 0 0 14-32c1.57-15.023-3.59-27.19-15.5-36.5a154 154 0 0 0-21-10.5c-1-9.31-1.33-18.643-1-28q53.97 2.893 108 4c35.69-.703 71.36-2.036 107-4 .33 9.357 0 18.69-1 28-24.33 6.197-45.99 17.363-65 33.5l-22.5 22.5a13295 13295 0 0 0-135.5 173 49995 49995 0 0 0 154.5 217c14.99 19 32.49 35.16 52.5 48.5 7.02 4.01 14.35 7.18 22 9.5v29c-39.97-2.05-79.97-3.38-120-4-40.02.67-80.02 2-120 4-.33-9.36 0-18.69 1-28 24.82-8.98 31.32-25.31 19.5-49-4.41-8.49-9.08-16.83-14-25-24.33-35-48.67-70-73-105-24.33 33-48.67 66-73 99-9.68 15.52-15.51 32.35-17.5 50.5.03 17.87 9.03 27.7 27 29.5 1 9.31 1.33 18.64 1 28-34.81-1.95-69.64-3.28-104.5-4-30.2.58-60.37 1.91-90.5 4-.33-9.36 0-18.69 1-28 19.8-4.23 37.47-12.73 53-25.5a306 306 0 0 0 34.5-37.5A16938 16938 0 0 1 4432.5 899 91176 91176 0 0 0 4261 665.5c-15.7-17.189-34.36-30.189-56-39-.5-9.327-.67-18.661-.5-28" style="opacity:.989"/><path fill="#fecc00" d="M470.5 812.5a1826 1826 0 0 1 44 4.5q15.47 3.588 20.5 18.5a77.7 77.7 0 0 1 10 11l12 26q3.423 6.327 9 11a748 748 0 0 1 7 54l-36 54c-40.378 23.15-83.212 29.31-128.5 18.5q-76.471-29.153-62.5-110.5a575 575 0 0 1 19.5-50.5q10.053-5.01 20-10 6-4 10-10a88 88 0 0 1 28-10 1359 1359 0 0 0 47-6.5" style="opacity:.991"/><path fill="#e55a2a" d="M361.5 1143.5c3.682-.17 7.348 0 11 .5 8.157 2.89 16.49 5.05 25 6.5 5.566-1.13 10.899-2.79 16-5a120 120 0 0 1 25 7.5q15.599-2.085 25.5 10.5a111.5 111.5 0 0 0 17.5 24.5q3.941 2.85 8.5 4.5a497 497 0 0 1 34.5 102 65 65 0 0 0-2 8.5q3.135 14.4 7.5 28.5c.738 4.21.572 8.38-.5 12.5a52 52 0 0 0 5.5 4.5c1.069 19.85-1.598 39.18-8 58q.747 33.015-13 63a453 453 0 0 1-18 36 21.6 21.6 0 0 0-6 5c-4.176 7.54-10.009 13.38-17.5 17.5-6.346-.47-12.012 1.19-17 5a18771 18771 0 0 1-31 35c-6.832 3.74-14.165 5.41-22 5-10.674 6.67-22.34 9.51-35 8.5a985 985 0 0 1-41-2.5 1202 1202 0 0 0-33-10c-8.812-6.91-18.479-12.58-29-17a352.5 352.5 0 0 1-50.5-38.5c-2-3.33-4-6.67-6-10a164 164 0 0 1-19-23 38.6 38.6 0 0 1-5-13 129.4 129.4 0 0 0 1-28c-4.223-16.46-5.39-33.13-3.5-50a688 688 0 0 0-5-41 14230 14230 0 0 1 16.5-73c5.621-3.29 10.288-7.62 14-13 5.667-11.33 11.333-22.67 17-34q6.53-7.635 15.5-12c8.031-17.2 20.364-30.36 37-39.5 16.667-8.67 33.333-17.33 50-26 9.315-.67 18.649-1.34 28-2 3.095-.94 5.429-2.77 7-5.5" style="opacity:.995"/><path d="M2364.5 1397.5h5546v44h-5546z" style="opacity:.987"/><path d="M4567.5 1686.5c14.74 3.88 29.74 6.05 45 6.5q96 1.005 192 0c12.62-.66 24.96-2.83 37-6.5v60a72.8 72.8 0 0 1-17-1c-1.75-15.04-9.75-24.87-24-29.5a803 803 0 0 0-68-1.5 6427 6427 0 0 0-1.5 234c3.2 13.53 11.53 22.2 25 26 .5 3.32.67 6.65.5 10-16.33-.6-32.67-1.27-49-2-16 .73-32 1.4-48 2v-11c16.11-3.95 24.28-14.29 24.5-31 .67-34.33.67-68.67 0-103-1.16-41.67-2.32-83.34-3.5-125-24.38-.45-48.71.05-73 1.5-14.3 5.07-21.96 15.24-23 30.5h-17z" style="opacity:.977"/><path d="M5060.5 1989.5h-2c-8.78-3.99-18.11-6.16-28-6.5-56.67-.5-113.33-.67-170-.5v-10c10.97-.56 18.47-5.89 22.5-16q1.71-31.425 1.5-63c-.49-57.68-1.66-115.35-3.5-173-2.93-10.23-9.76-15.9-20.5-17v-10c56 .17 112 0 168-.5 10.55-1.21 20.89-3.38 31-6.5a431 431 0 0 1-2 31.5c.98 10.48 1.64 20.98 2 31.5a72.8 72.8 0 0 1-17-1c-3.5-11.52-9.83-21.02-19-28.5-2.67-1.33-5.33-2.67-8-4-28.28-1.47-56.62-1.97-85-1.5v110c27.37.44 54.7-.06 82-1.5 10.68-3.18 18.01-10.01 22-20.5 4.96-.99 9.96-1.33 15-1q-4.005 37.5 0 75h-16c-2.08-9.67-6.42-18.17-13-25.5-4.19-2.88-8.86-4.55-14-5-25.33-.5-50.66-.67-76-.5v116c30.7.44 61.37-.06 92-1.5 12.39-2.45 22.56-8.62 30.5-18.5 2.77-3.88 5.77-7.55 9-11q7.38 2.805 13.5 7.5a6604 6604 0 0 0-15 51.5" style="opacity:.974"/><path d="M5301.5 1989.5h-30c-35.39-1.6-68.39-11.43-99-29.5q-75.135-53.325-64.5-145.5c10.08-59.98 43.91-99.81 101.5-119.5 26.47-7.87 53.47-10.53 81-8 9.71.56 19.38 1.56 29 3 17.8 3.7 35.47 7.87 53 12.5 1.17 18.7 2.5 37.36 4 56a60.9 60.9 0 0 1-19 .5c-8.67-22-24-37.33-46-46-34.64-12.89-67.98-10.22-100 8-22.36 17.87-36.2 41.03-41.5 69.5-8.19 39.38-4.86 77.72 10 115 19.8 37.67 50.96 59.17 93.5 64.5q60.33 5.955 94.5-43.5c4.42 1.81 8.75 3.81 13 6a872 872 0 0 1-12 46l-1.5 1.5c-21.98 4.39-43.98 7.56-66 9.5" style="opacity:.972"/><path d="M5404.5 1691.5c14.35.23 28.69.9 43 2 14.65-1.13 29.31-1.8 44-2 .32 3.4-.01 6.73-1 10-9.51 1.68-14.68 7.35-15.5 17q-.93 49.5-1.5 99c26.31 1.43 52.65 2.43 79 3 28.68-.77 57.34-1.77 86-3-.24-33.03-1.07-66.03-2.5-99-1.6-9.43-7.1-15.1-16.5-17-.99-3.27-1.32-6.6-1-10 14.52.24 29.02.91 43.5 2 14.48-1.09 28.98-1.76 43.5-2 .32 3.4-.01 6.73-1 10-9.16 1.99-14.33 7.66-15.5 17-1.22 57.33-2.06 114.66-2.5 172-.13 21.7.37 43.37 1.5 65 1.64 10.8 7.81 17.14 18.5 19 .99 3.27 1.32 6.6 1 10-14.67-.59-29.33-1.26-44-2-14.33.7-28.67 1.37-43 2-.17-3.35 0-6.68.5-10 9.11-1.78 15.11-7.11 18-16 .96-4.99 1.8-9.99 2.5-15-1.04-32.96-1.71-65.96-2-99q-43.515-1.125-87-3c-26.33 1.03-52.67 2.03-79 3-.48 35.33-.64 70.67-.5 106 .48 8.13 3.65 14.96 9.5 20.5 3.14 1.73 6.47 2.89 10 3.5.99 3.27 1.32 6.6 1 10-14.67-.59-29.33-1.26-44-2-14.67.74-29.33 1.41-44 2-.32-3.4.01-6.73 1-10q17.205-3.465 19.5-21c1.36-78.39.03-156.72-4-235-1.63-9.46-7.13-15.13-16.5-17-.99-3.27-1.32-6.6-1-10" style="opacity:.978"/></svg>