<svg xmlns="http://www.w3.org/2000/svg" xml:space="preserve" viewBox="0 0 250 48"><path d="M242.9 44.3h7.1V26.2c0-1.1-.1-2.2-.4-3.2-1.4-5.2-6.4-8.7-12-8.5-2.6.1-5 1.1-7.2 2.8l-.3.2-.3-.2c-2.2-1.8-4.6-2.7-7.2-2.8-5.5-.2-10.6 3.3-12 8.5-.3 1-.4 2.1-.4 3.2v18.1h7.1V26.5c-.1-2.5 1.9-4.6 4.4-4.7s4.6 1.9 4.7 4.4v18.1h7.1V26.5c0-2.5 2.1-4.6 4.6-4.6 1.2 0 2.4.5 3.2 1.4.9.9 1.3 2 1.3 3.2zm-52.6-7.1c-4.3 0-7.8-3.5-7.8-7.8s3.5-7.8 7.8-7.8c2.1 0 4 .8 5.5 2.3s2.3 3.4 2.3 5.5c0 4.3-3.5 7.8-7.8 7.8m0-22.7c-8.2 0-14.9 6.7-14.9 14.9s6.7 14.9 14.9 14.9 14.9-6.7 14.9-14.9-6.6-14.9-14.9-14.9m-24.5 29.8h9.2l-4.1-7.1H166c-2.3 0-4.3-1.7-4.5-3.7 0-.3 0-.6-.1-1V21.8h9.4l3.7-6.4h-13V3.7l-7.1 4.9V15h-4.5v7.1h4.5v10.8c.2 4.7 2.6 8.2 6.9 10.3 1.2.6 2.4.9 4 1zm-28.1 0h7.1V26.2c0-1.1-.1-2.2-.4-3.2-1.4-5.2-6.4-8.7-12-8.5-2.6.1-5 1.1-7.2 2.8l-.3.2-.3-.2c-2.2-1.8-4.6-2.7-7.2-2.8-5.5-.2-10.6 3.3-12 8.5-.3 1-.4 2.1-.4 3.2v18.1h7.1V26.5c.1-2.5 2.1-4.5 4.7-4.5 2.5.1 4.4 2 4.5 4.5v17.8h7.1V26.4c.1-2.5 2.2-4.5 4.7-4.5 2.5.1 4.4 2 4.5 4.5zm-52.5-7.1c-4.3 0-7.8-3.5-7.8-7.8s3.5-7.8 7.8-7.8c2.1 0 4 .8 5.5 2.3s2.3 3.4 2.3 5.5c0 4.3-3.5 7.8-7.8 7.8m0-22.7c-8.2 0-14.9 6.7-14.9 14.9S77 44.3 85.2 44.3s14.9-6.7 14.9-14.9-6.7-14.9-14.9-14.9M60.7 44.3h9.2l-4.1-7.1h-4.9c-2.3 0-4.3-1.7-4.5-3.7 0-.3 0-.6-.1-1V21.8h9.4l3.7-6.4h-13V3.7l-7.1 4.9V15h-4.5v7.1h4.5v10.8c.2 4.7 2.6 8.2 6.9 10.3 1.2.6 2.4.9 4 1z"/><path d="M16.6 48 23 37H10.2zm0-22.8c-4.8 0-8.7-3.9-8.7-8.6 0-4.8 3.9-8.6 8.7-8.6s8.7 3.9 8.7 8.6c-.1 4.7-3.9 8.6-8.7 8.6m0-25.2C7.4 0 0 7.4 0 16.5S7.4 33 16.6 33s16.6-7.4 16.6-16.5S25.7 0 16.6 0" style="fill:#df1b12"/></svg>