<svg xmlns="http://www.w3.org/2000/svg" id="Capa_1" data-name="Capa 1" viewBox="0 0 1080 1080"><defs><style>.cls-1{fill:#1e1e1e}</style></defs><path d="M373.52 515.13a35.5 35.5 0 0 1-15.34-3.4 33.3 33.3 0 0 1-10.56-7.73 2.67 2.67 0 0 0-3.59-.34 67.3 67.3 0 0 1-17.91 9.82 72.9 72.9 0 0 1-22.79 4.52 55.4 55.4 0 0 1-23-4.19 52.2 52.2 0 0 1-19.77-14.06 60.2 60.2 0 0 1-12.24-20.79 72.9 72.9 0 0 1-4.18-23.7 70.7 70.7 0 0 1 3.88-23.4 69.3 69.3 0 0 1 10.91-20.42A51.8 51.8 0 0 1 276.84 397a53.1 53.1 0 0 1 24.16-5.52q12 0 19.33 3.27a42 42 0 0 1 8.76 5.28 2.7 2.7 0 0 0 4.4-2.1 2.68 2.68 0 0 1 2.69-2.69h36.55a2.69 2.69 0 0 1 2.7 2.69v77a2.7 2.7 0 0 0 2.7 2.7h3.57a2.7 2.7 0 0 1 2.7 2.7v32.06a2.7 2.7 0 0 1-2.7 2.7Zm-85.11-61.58q0 21.33 21.83 21.33h1.45q11.26 0 16.67-5.15t5.4-15.7q0-21.33-21.82-21.34h-1.46q-11.28 0-16.67 5.16t-5.4 15.7M508.08 516.34q-25.08 0-46.27-28.88a2.7 2.7 0 0 0-4.89 1.58v22.42a2.7 2.7 0 0 1-2.7 2.7h-39.81a2.7 2.7 0 0 1-2.7-2.7v-168.2a2.7 2.7 0 0 1 2.7-2.7h54.39q6.56 0 12.06.36a113 113 0 0 1 12.91 1.76 71.3 71.3 0 0 1 13.28 3.76 57 57 0 0 1 11.88 6.67A41.4 41.4 0 0 1 529 363.29a50.5 50.5 0 0 1 6.6 14.71 70.7 70.7 0 0 1 2.54 19.7 77.9 77.9 0 0 1-2.18 19 57.3 57.3 0 0 1-5.57 14.55 46.6 46.6 0 0 1-8.25 10.48 49.7 49.7 0 0 1-9.39 7.22 58.8 58.8 0 0 1-9.95 4.48 68 68 0 0 1-9 2.61c-1.11.22-2.23.42-3.34.59a2.69 2.69 0 0 0-1.88 4.1c3.25 5.18 8.85 12.77 10.56 14.1a24 24 0 0 0 6.42 3.7 8.85 8.85 0 0 0 5.94.24 11.9 11.9 0 0 0 5-3.21 16.8 16.8 0 0 0 3.51-6.55 39 39 0 0 0 1.49-7.54 2.7 2.7 0 0 1 2.68-2.4h32.1a2.71 2.71 0 0 1 2.7 2.86 69.7 69.7 0 0 1-5.39 23.69q-6.19 14.67-18.07 22.73a47.57 47.57 0 0 1-27.44 7.99M450 399q0 21.33 21.82 21.33h1.46q11.26 0 16.67-5.15t5.39-15.7q0-21.35-21.82-21.34h-1.45q-11.28 0-16.67 5.15T450 399M683.21 509.16a2.68 2.68 0 0 1-1.52 2.43 76.5 76.5 0 0 1-28.69 7.54 68.9 68.9 0 0 1-29.37-4.39 83 83 0 0 1-24.77-15.05 68.1 68.1 0 0 1-17.5-24.34 77.85 77.85 0 0 1-6.4-31.6 76.1 76.1 0 0 1 4.68-26.43 78.6 78.6 0 0 1 12.52-22.46 77.6 77.6 0 0 1 18.65-16.63 76 76 0 0 1 22.61-9.86 69.1 69.1 0 0 1 48.39 6.06 2.71 2.71 0 0 1 1.43 2.4v39.23a2.68 2.68 0 0 1-4.27 2.18 32.5 32.5 0 0 0-11.24-5.24 39.5 39.5 0 0 0-18.58-.57 27.3 27.3 0 0 0-15.55 9.93q-6.55 8-6.55 20.67a31.48 31.48 0 0 0 19.37 29.8q8.28 3.32 18.43 1.16a34.4 34.4 0 0 0 14-6.66 2.69 2.69 0 0 1 4.31 2.16ZM704.28 510.53l52.15-143.06a2.7 2.7 0 0 1 2.54-1.78h37.37a2.7 2.7 0 0 1 2.54 1.79L850 510.55a2.7 2.7 0 0 1-2.54 3.61h-35.4a2.7 2.7 0 0 1-2.54-1.79l-4.23-11.79q-2.49-6.54-5.7-9.54-7.47-6.94-21.26-7.26h-1.76q-14 .32-21.36 6.64a24.1 24.1 0 0 0-6 9.53l-4.63 12.45a2.7 2.7 0 0 1-2.53 1.76h-35.23a2.7 2.7 0 0 1-2.54-3.63m63.78-53.91h18.7a2.7 2.7 0 0 0 2.57-3.53l-9.28-28.87a2.7 2.7 0 0 0-5.13 0l-9.43 28.87a2.7 2.7 0 0 0 2.57 3.53M307.92 744.45a82.5 82.5 0 0 1-14.67-1.39 98.5 98.5 0 0 1-13.58-3.4q-5.94-2-10.85-4.06c-3.27-1.37-5.8-2.51-7.58-3.39l-1.25-.69a2.69 2.69 0 0 1-1.41-2.37V691.7a2.71 2.71 0 0 1 3.11-2.67 39 39 0 0 1 8.22 2.14 98 98 0 0 1 11.88 5.21 90 90 0 0 0 12.13 5.22 36.5 36.5 0 0 0 11.82 2.4q8.36 0 13.21-3.88t4.85-10.79q0-10.78-22.55-18.55-6.9-2.41-12-4.72a84 84 0 0 1-11.76-6.79 50.5 50.5 0 0 1-10.91-9.64 46 46 0 0 1-7.28-13.27 51 51 0 0 1-3-17.94q0-24.5 16.85-40.07t43.27-15.58a97.6 97.6 0 0 1 23.82 3.09 113 113 0 0 1 18.86 6.12l5.11 2.43a2.68 2.68 0 0 1 1.55 2.44v37.32a2.71 2.71 0 0 1-3.1 2.68 45 45 0 0 1-11.2-3.41q-8.49-3.63-17.28-7.27t-15.09-3.64q-6.79 0-10.91 3.4a11.81 11.81 0 0 0-3.71 12.07 7.9 7.9 0 0 0 1.5 2.79c.74.89 1.44 1.68 2.13 2.36a15.4 15.4 0 0 0 3 2.19c1.29.77 2.43 1.41 3.39 1.93a35 35 0 0 0 4.13 1.82c1.77.69 3.21 1.24 4.3 1.64l4.66 1.76q3 1.15 4.74 1.75 39.63 14.43 39.27 51.16a60 60 0 0 1-1.91 14.6 61.6 61.6 0 0 1-6.54 15.64A59.3 59.3 0 0 1 351.5 730q-7 6.3-18.3 10.36a74.8 74.8 0 0 1-25.28 4.09M409.88 582.85q0-23.39 24.61-23.39H436q24.36 0 24.37 23.88 0 23-24.62 23h-1.45q-24.41.03-24.42-23.49m4.24 153.93V623.26a2.7 2.7 0 0 1 2.7-2.7h36.55a2.7 2.7 0 0 1 2.7 2.7v113.52a2.7 2.7 0 0 1-2.7 2.7h-36.55a2.7 2.7 0 0 1-2.7-2.7M502.39 736.78v-168.2a2.7 2.7 0 0 1 2.7-2.7h36.55a2.7 2.7 0 0 1 2.7 2.7v168.2a2.7 2.7 0 0 1-2.7 2.7h-36.55a2.7 2.7 0 0 1-2.7-2.7M592.24 736.78v-168.2a2.7 2.7 0 0 1 2.7-2.7h89.76a2.7 2.7 0 0 1 2.7 2.7v35.34a2.69 2.69 0 0 1-2.7 2.69h-37.79q-10.91 0-10.91 12.49t10.67 12.61h35.48a2.7 2.7 0 0 1 2.7 2.7v35.33a2.7 2.7 0 0 1-2.7 2.7h-35.24q-11.4 0-11.39 13 0 13.33 11.15 13.34h38a2.7 2.7 0 0 1 2.7 2.7v35.33a2.7 2.7 0 0 1-2.7 2.7h-89.73a2.7 2.7 0 0 1-2.7-2.73M781.61 744.45a82.5 82.5 0 0 1-14.67-1.39 98.5 98.5 0 0 1-13.58-3.4q-5.94-2-10.85-4.06c-3.27-1.37-5.8-2.51-7.58-3.39l-1.25-.69a2.69 2.69 0 0 1-1.41-2.37V691.7a2.71 2.71 0 0 1 3.11-2.67 39 39 0 0 1 8.22 2.14 97 97 0 0 1 11.88 5.21 90 90 0 0 0 12.13 5.22 36.5 36.5 0 0 0 11.82 2.4q8.36 0 13.21-3.88t4.85-10.79q0-10.78-22.55-18.55-6.9-2.41-12-4.72a84 84 0 0 1-11.76-6.79 50.5 50.5 0 0 1-10.91-9.64 46 46 0 0 1-7.27-13.31 51 51 0 0 1-3-17.94q0-24.5 16.85-40.07t43.27-15.58a97.6 97.6 0 0 1 23.82 3.09 113 113 0 0 1 18.86 6.12l5.12 2.43a2.69 2.69 0 0 1 1.54 2.44v37.32a2.71 2.71 0 0 1-3.1 2.68 45 45 0 0 1-11.2-3.41q-8.49-3.63-17.28-7.27t-15.09-3.64q-6.79 0-10.91 3.4a11.81 11.81 0 0 0-3.72 12.11 7.8 7.8 0 0 0 1.51 2.79 30 30 0 0 0 2.12 2.36 15.4 15.4 0 0 0 3 2.19c1.29.77 2.43 1.41 3.39 1.93a35 35 0 0 0 4.13 1.82c1.77.69 3.21 1.24 4.3 1.64l4.67 1.76q3 1.15 4.73 1.75 39.63 14.43 39.27 51.16a60 60 0 0 1-1.91 14.6 61.6 61.6 0 0 1-6.54 15.64A59.3 59.3 0 0 1 825.19 730q-7 6.3-18.3 10.36a74.8 74.8 0 0 1-25.28 4.09" class="cls-1"/></svg>