<svg xmlns="http://www.w3.org/2000/svg" viewBox="0 0 5958.7 3809.8"><defs><style>.cls-1{fill:#fff}.cls-2{fill:#000b25}</style></defs><g id="Capa_2"><path d="M4225.7 2041.4h788.7c57 0 105 36.5 120 91.1 2.9 10.5 4.5 21.1 4.5 32 0 178.1.3 356.1-.1 534.2-.1 58.3-38.7 106.2-94.6 120.1-10.1 2.5-20.4 3.6-30.8 3.6H3438.8c-70.3 0-125.3-55-125.3-125.3-.1-176.7 0-353.4 0-530.1 0-75.1 62.6-126 126.5-125.8 262 .8 524 .3 785.9.3ZM4230.3 826.1h670.8c9.4 0 18.9-.3 28.2 2.3 32.2 9 52.6 35.4 54.6 70.8.2 3.6 0 7.2 0 10.8v793.6c0 10-.4 19.9-2.9 29.5-7.7 30.7-34.7 52.7-66.4 54.4-4.9.3-9.9.2-14.9.2H3559.4c-9 0-18.1.4-26.9-1.8-30.3-7.3-52.5-32.9-55.5-64.1-.7-7.2-.9-14.4-.9-21.6V910.6c0-12.2.3-24.3 4.4-36 9.6-27.5 34.9-46.7 64-48.4 5.4-.3 10.8-.3 16.2-.3h669.5ZM1807.2 1178.1H937.4c-22.3 0-23.1-.4-21.9-22.9 6.3-120.3 34.7-235.1 88.5-342.9C1117.9 584.7 1295.8 430 1537.7 350c95-31.4 193.1-45 293-41.4 238.6 8.4 443.4 96.7 612 265.7 129.6 129.9 210.3 286.6 244.3 467 7.2 38.1 11.1 76.7 13.5 115.4.2 3.1.5 6.3.3 9.5-.5 8.1-3.6 11.3-11.6 12-4 .3-8.1 0-12.2 0h-869.8ZM1808.3 1261.9h1071.2c7.6 0 15.3-.4 22.8 1.8 28.8 8 48.1 33.2 47.1 64.8-2.4 75.3-35.5 133.9-99.2 174.3-32.7 20.7-68.8 30.6-107.7 30.6H873.4c-103.7 0-189.8-73.9-206-176.8-2-12.4-2.9-25-1.5-37.7 3.7-32.2 29.6-56.1 61.8-56.9h1080.7ZM2977.6 2766.3c-65.4 0-130.8 1.3-196.1-.3-134-3.2-233.8-64.4-298.1-181.9-25.1-45.8-36.3-95.9-36.5-148.1-.3-137.9-.2-275.8 0-413.7 0-39.5 27.8-67 67.4-67 74.4-.1 148.8 0 223.2 0 41.6 0 68.4 26.9 68.4 68.7v355.6c0 25.4 1.6 27 26.7 27h357c20 0 37.2 6.1 50.9 20.8 11.6 12.4 17.4 27.3 17.4 44.2.1 76.6.3 153.2 0 229.8-.2 37.1-28.3 64.9-65.3 65-71.7.2-143.4 0-215 0ZM3427.7 1305.5v267.6c0 15.6 1.8 15.7-15.1 14-115.5-11.8-221.8-99.2-247.6-225.3-32.1-157.2 70.8-304.5 220.3-335.6 9.7-2 19.5-3.7 29.3-4.8 12.9-1.5 12.9-1.2 13.1 11.3v273ZM5034.8 1586.7c-2.2-6.6-1.4-11.6-1.4-16.5v-532.5c0-16.8 0-17.1 16.8-14.2 120.5 21.1 199.6 90.3 232.9 207.5 45.2 159.4-60.7 324-223.9 352.5-7.9 1.4-16 2.1-24.4 3.1ZM4227.3 1833.3h280c12.4 0 24.3 1.7 35.6 6.5 33.2 14.3 52.4 49.7 46 84.8-6.6 36.4-36.3 62.2-74.7 64.7-4 .3-8.1.2-12.2.2h-551.9c-6.8 0-13.5-.3-20.2-1.1-34.2-4-68.9-34.3-66.9-80.4 1.9-43.4 35.3-74.6 78.8-74.6 95.1-.2 190.3 0 285.4 0ZM2632.6 1900.3c-156-1.7-266-116-283.9-243.6-1.9-13.5-2.5-26.9-2.8-40.4-.3-10.2 2.6-18.8 12.4-23.6 10.4-5.1 20-3.3 28.9 3.9 37.1 29.8 77.6 54.1 121.3 72.9 37 15.9 75.3 27.1 116 29.2 40.4 2.1 78.8-6.3 116-21.2 46.4-18.5 88.5-44.4 126.8-76.5 1.4-1.2 2.7-2.4 4.1-3.6 8.7-7.1 18.2-10 28.8-5.1 10.7 4.9 14.7 13.7 14.5 25.2-1.2 67.3-22.5 127.5-65.7 179.1-56.8 67.9-130.5 101.5-216.4 103.7M1809.4 248.9c-64.4.7-117.4-52.1-118-117.5-.6-65 51.4-118.1 116.6-119 66-.9 120 51 120.8 116.1.7 67.1-51.3 119.7-119.3 120.4ZM4230.7 323.1c62.3.1 112.6 50.2 112.8 112.3.1 62.7-50.6 114.2-112.7 114.3-63 .1-114.5-51.4-114.4-114.3.2-62.5 51.1-112.5 114.3-112.4ZM4253.9 655.3v64.9c0 4.5 0 8.9-1.6 13.3-2.4 6.7-6.6 10.5-14 10.4-5.4-.1-10.8.2-16.2 0-9-.4-11.8-2.8-14.6-11.1-1.6-4.8-1.6-9.7-1.6-14.7V593.7c0-4 0-8.2.8-12.1 2.2-11 6.1-14 17.6-14.2h10.8c12.8.2 17.8 4.5 18.6 17.7.6 10.8.2 21.6.2 32.4v37.9Z" class="cls-2"/><path d="M4416 1306.6c.1-84.8 68.4-152.8 153.2-152.6 84.5.2 152.9 68.9 152.7 153.5-.1 84.3-69.1 152.9-153.6 152.6-88.5-.3-154-73.8-152.3-153.5M4043.9 1307.3c-.1 84.9-68.3 152.8-153.1 152.7-84.4-.1-153.1-69-153-153.3.2-84.3 69.1-152.9 153.6-152.7 84.8.2 152.6 68.4 152.5 153.3M2325.5 812.4v9.8c.7 16-7 26.3-21.5 32.4-31.9 13.5-63.8 27.2-95.6 40.9-66.6 28.5-133.2 57.1-199.8 85.6-3.3 1.4-6.6 3-10 4.2-16.2 5.8-32-.4-38.7-15.1-7.2-15.6-1.1-33.8 14-41.8 3.2-1.7 6.6-2.9 9.9-4.2 78.1-32.5 156.3-64.9 234.4-97.5 6.3-2.6 15-3.7 14.5-13.5-.4-8.7-8.4-9.8-14.4-12.3-77.9-32-155.8-63.8-233.7-95.6-2.9-1.2-5.9-2.2-8.8-3.6-16.4-7.8-23.2-25.5-16.3-42 6.7-15.9 23.2-22.6 40.5-15.4 43.6 18.2 87.1 36.8 130.6 55.2 57.2 24.2 114.4 48.5 171.6 72.5 9.6 4 17.3 9.4 21.3 19.3 3 7.4 1.1 15.2 1.8 21ZM1657.5 672.4c0 15.1-6.2 24-21.9 30.5-38.7 15.9-77.5 31.8-116.2 47.6-40.9 16.7-81.7 33.2-122.6 49.8-2.1.8-4.2 1.7-6.2 2.6-4.8 1.9-9.1 4.4-9.3 10.3-.2 6.5 4.4 9.2 9.7 11.4 36.6 15.1 73.2 30.3 109.8 45.5 44.9 18.6 89.9 37.2 134.7 55.9 16.3 6.8 22.5 16.1 22 31.8-.7 22.4-20.5 35.4-41.9 27-16.3-6.4-32.4-13.6-48.5-20.5-84.4-36.1-168.8-72.4-253.3-108.3-17-7.2-24.6-18.6-25-37.3-.8-35.5 7.9-40.1 33.2-50.8 95.9-40.3 191.6-80.9 287.4-121.4 7.8-3.3 15.6-7 24.7-4.6 14.8 3.8 23.4 14.8 23.5 30.5ZM1738.5 1097.7c-22.1-.4-33.6-15.8-28.7-33.8 8.4-31.3 17.3-62.5 26.1-93.6 39.4-139.9 78.8-279.8 118.1-419.7 1-3.5 1.8-7 3-10.4 5-13.8 17.9-21 30.9-17.3 14.2 4 22.1 16.6 18.3 31.3-7.3 28.3-15.4 56.4-23.2 84.6-40.2 143.9-80.4 287.8-120.7 431.6-1.1 3.9-1.9 8-3.6 11.6-4.8 10.4-13 15.8-20.2 15.8Z" class="cls-1"/><path d="M276.8 3332.1c0 20 16.4 36 36 36h287.8c59.6 0 107.9 48.3 107.9 107.9s-48.3 107.9-107.9 107.9H204.8v-72.5h395.8c19.5 0 36-15.9 36-35.5s-16.4-36-36-36H312.8c-59.1 0-107.9-48.3-107.9-107.9s48.8-107.9 107.9-107.9h395.8v72H312.8c-19.5 0-36 16.4-36 36M832.4 3583.9h-72.5v-288.4h72.5zM991.2 3296.6h252.4v72H991.2c-19.5 0-35.5 15.9-35.5 35.5V3584h-72v-179.9c0-59.1 48.3-107.4 107.4-107.4ZM1516.5 3583.9h-77.1l-170.1-287.3h83.3l125.4 211.3 125.4-211.3h83.8zM1785.4 3583.9h-72.5v-288.4h72.5zM1836.8 3476.5V3404c0-59.1 48.8-107.4 107.9-107.4h251.9v72h-251.9c-19.5 0-35.5 15.9-35.5 35.5h287.3v72.5h-287.3c0 19.5 15.9 36 35.5 36h251.9v71.4h-251.9c-59.1 0-107.9-47.8-107.9-107.4ZM2319.4 3583.9H2248v-287.3h251.3c59.6 0 108.5 48.3 108.5 107.4v179.9h-72.5V3404c0-19.5-15.9-35.5-36-35.5h-179.9zM2947.5 3224.6h71.4v359.3h-251.3c-60.1 0-108.5-47.8-108.5-107.4V3404c0-59.1 48.3-107.4 108.5-107.4h179.9zm0 144h-179.9c-20 0-36 15.9-36 35.5v72.5c0 19.5 15.9 36 36 36h179.9v-143.9ZM3430.1 3404v72.5c0 59.6-48.3 107.4-107.9 107.4h-143.9c-59.6 0-107.9-47.8-107.9-107.4V3404c0-59.1 48.3-107.4 107.9-107.4h143.9c59.6 0 107.9 48.3 107.9 107.4m-107.9-35.4h-143.9c-20 0-36 15.9-36 35.5v72.5c0 19.5 15.9 36 36 36h143.9c19.5 0 36-16.4 36-36v-72.5c0-19.5-16.4-35.5-36-35.5M3553.5 3332.1V3476c0 19.5 16.4 35.5 36 35.5h395.8v72.5h-395.8c-59.6 0-107.9-48.8-107.9-107.9v-143.9c0-59.6 48.3-107.9 107.9-107.9h395.8v72h-395.8c-19.5 0-36 16.4-36 36ZM4396.4 3404v72.5c0 59.6-48.3 107.4-107.9 107.4h-143.9c-59.6 0-107.9-47.8-107.9-107.4V3404c0-59.1 48.3-107.4 107.9-107.4h143.9c59.6 0 107.9 48.3 107.9 107.4m-107.9-35.4h-143.9c-20 0-36 15.9-36 35.5v72.5c0 19.5 15.9 36 36 36h143.9c19.5 0 36-16.4 36-36v-72.5c0-19.5-16.4-35.5-36-35.5m-143.9-164 143.9-47.3v57.1l-143.9 46.8v-56.5ZM4736.2 3224.6h71.4v359.3h-251.3c-60.1 0-108.5-47.8-108.5-107.4V3404c0-59.1 48.3-107.4 108.5-107.4h179.9zm0 144h-179.9c-20 0-36 15.9-36 35.5v72.5c0 19.5 15.9 36 36 36h179.9v-143.9ZM4931.5 3583.9H4859v-288.4h72.5zM5091.4 3296.6h251.3v287.3c0 59.6-48.3 108.5-107.4 108.5h-252.4v-72.5h252.4c19.5 0 36-15.9 36-36h-179.9c-59.6 0-108.5-47.8-108.5-107.4V3404c0-59.1 48.8-107.4 108.5-107.4m-36 179.9c0 19.5 15.9 36 36 36h179.9v-143.9h-179.9c-20 0-36 15.9-36 35.5v72.5ZM5753.9 3404v72.5c0 59.6-48.3 107.4-107.9 107.4h-143.9c-59.6 0-107.9-47.8-107.9-107.4V3404c0-59.1 48.3-107.4 107.9-107.4H5646c59.6 0 107.9 48.3 107.9 107.4m-107.9-35.4h-143.9c-20 0-36 15.9-36 35.5v72.5c0 19.5 15.9 36 36 36H5646c19.5 0 36-16.4 36-36v-72.5c0-19.5-16.4-35.5-36-35.5" class="cls-2"/></g></svg>