<svg id="Capa_1" data-name="Capa 1" xmlns="http://www.w3.org/2000/svg" viewBox="0 0 1080 1080"><defs><style>.cls-1{fill:#1e1e1e;}</style></defs><path class="cls-1" d="M373.52,515.13a35.48,35.48,0,0,1-15.34-3.4A33.29,33.29,0,0,1,347.62,504a2.67,2.67,0,0,0-3.59-.34,67.25,67.25,0,0,1-17.91,9.82A72.91,72.91,0,0,1,303.33,518a55.36,55.36,0,0,1-23-4.19,52.19,52.19,0,0,1-19.77-14.06,60.19,60.19,0,0,1-12.24-20.79,72.9,72.9,0,0,1-4.18-23.7,70.69,70.69,0,0,1,3.88-23.4,69.26,69.26,0,0,1,10.91-20.42A51.83,51.83,0,0,1,276.84,397,53.08,53.08,0,0,1,301,391.48q12,0,19.33,3.27a42.08,42.08,0,0,1,8.76,5.28,2.7,2.7,0,0,0,4.4-2.1h0a2.68,2.68,0,0,1,2.69-2.69h36.55a2.69,2.69,0,0,1,2.7,2.69v77a2.7,2.7,0,0,0,2.7,2.7h3.57a2.7,2.7,0,0,1,2.7,2.7v32.06a2.7,2.7,0,0,1-2.7,2.7Zm-85.11-61.58q0,21.33,21.83,21.33h1.45q11.26,0,16.67-5.15t5.4-15.7q0-21.33-21.82-21.34h-1.46q-11.28,0-16.67,5.16T288.41,453.55Z"/><path class="cls-1" d="M508.08,516.34q-25.08,0-46.27-28.88a2.7,2.7,0,0,0-4.89,1.58v22.42a2.7,2.7,0,0,1-2.7,2.7H414.41a2.7,2.7,0,0,1-2.7-2.7V343.26a2.7,2.7,0,0,1,2.7-2.7H468.8q6.56,0,12.06.36a113.44,113.44,0,0,1,12.91,1.76,71.31,71.31,0,0,1,13.28,3.76,57.11,57.11,0,0,1,11.88,6.67A41.37,41.37,0,0,1,529,363.29,50.49,50.49,0,0,1,535.6,378a70.68,70.68,0,0,1,2.54,19.7,77.86,77.86,0,0,1-2.18,19,57.28,57.28,0,0,1-5.57,14.55,46.56,46.56,0,0,1-8.25,10.48,49.72,49.72,0,0,1-9.39,7.22,58.75,58.75,0,0,1-9.95,4.48,68.24,68.24,0,0,1-9,2.61c-1.11.22-2.23.42-3.34.59a2.69,2.69,0,0,0-1.88,4.1c3.25,5.18,8.85,12.77,10.56,14.1a24,24,0,0,0,6.42,3.7,8.85,8.85,0,0,0,5.94.24,11.9,11.9,0,0,0,5-3.21,16.77,16.77,0,0,0,3.51-6.55,38.86,38.86,0,0,0,1.49-7.54,2.7,2.7,0,0,1,2.68-2.4h32.1a2.71,2.71,0,0,1,2.7,2.86,69.71,69.71,0,0,1-5.39,23.69q-6.19,14.67-18.07,22.73A47.57,47.57,0,0,1,508.08,516.34ZM450,399q0,21.33,21.82,21.33h1.46q11.26,0,16.67-5.15t5.39-15.7q0-21.35-21.82-21.34h-1.45q-11.28,0-16.67,5.15T450,399Z"/><path class="cls-1" d="M683.21,509.16a2.68,2.68,0,0,1-1.52,2.43A76.48,76.48,0,0,1,653,519.13a68.93,68.93,0,0,1-29.37-4.39,83,83,0,0,1-24.77-15.05,68.12,68.12,0,0,1-17.5-24.34,77.85,77.85,0,0,1-6.4-31.6,76.11,76.11,0,0,1,4.68-26.43,78.6,78.6,0,0,1,12.52-22.46,77.58,77.58,0,0,1,18.65-16.63,76,76,0,0,1,22.61-9.86,69.11,69.11,0,0,1,48.39,6.06,2.71,2.71,0,0,1,1.43,2.4v39.23a2.68,2.68,0,0,1-4.27,2.18A32.49,32.49,0,0,0,667.73,413a39.5,39.5,0,0,0-18.58-.57,27.31,27.31,0,0,0-15.55,9.93q-6.55,8-6.55,20.67a31.48,31.48,0,0,0,19.37,29.8q8.28,3.32,18.43,1.16a34.4,34.4,0,0,0,14-6.66,2.69,2.69,0,0,1,4.31,2.16Z"/><path class="cls-1" d="M704.28,510.53l52.15-143.06a2.7,2.7,0,0,1,2.54-1.78h37.37a2.7,2.7,0,0,1,2.54,1.79L850,510.55a2.7,2.7,0,0,1-2.54,3.61H812.06a2.7,2.7,0,0,1-2.54-1.79l-4.23-11.79q-2.49-6.54-5.7-9.54-7.47-6.94-21.26-7.26h-1.76q-14,.32-21.36,6.64a24.07,24.07,0,0,0-6,9.53l-4.63,12.45a2.7,2.7,0,0,1-2.53,1.76H706.82A2.7,2.7,0,0,1,704.28,510.53Zm63.78-53.91h18.7a2.7,2.7,0,0,0,2.57-3.53l-9.28-28.87a2.7,2.7,0,0,0-5.13,0l-9.43,28.87A2.7,2.7,0,0,0,768.06,456.62Z"/><path class="cls-1" d="M307.92,744.45a82.54,82.54,0,0,1-14.67-1.39,98.45,98.45,0,0,1-13.58-3.4q-5.94-2-10.85-4.06c-3.27-1.37-5.8-2.51-7.58-3.39l-1.25-.69a2.69,2.69,0,0,1-1.41-2.37V691.7a2.71,2.71,0,0,1,3.11-2.67,39.13,39.13,0,0,1,8.22,2.14,97.9,97.9,0,0,1,11.88,5.21,90,90,0,0,0,12.13,5.22A36.45,36.45,0,0,0,305.74,704q8.36,0,13.21-3.88t4.85-10.79q0-10.78-22.55-18.55-6.9-2.41-12-4.72a84.14,84.14,0,0,1-11.76-6.79,50.5,50.5,0,0,1-10.91-9.64,46,46,0,0,1-7.28-13.27,51,51,0,0,1-3-17.94q0-24.5,16.85-40.07t43.27-15.58a97.64,97.64,0,0,1,23.82,3.09,113.2,113.2,0,0,1,18.86,6.12l5.11,2.43a2.68,2.68,0,0,1,1.55,2.44v37.32a2.71,2.71,0,0,1-3.1,2.68,45,45,0,0,1-11.2-3.41q-8.49-3.63-17.28-7.27t-15.09-3.64q-6.79,0-10.91,3.4A11.81,11.81,0,0,0,304.47,618a7.93,7.93,0,0,0,1.5,2.79c.74.89,1.44,1.68,2.13,2.36a15.44,15.44,0,0,0,3,2.19c1.29.77,2.43,1.41,3.39,1.93a35.25,35.25,0,0,0,4.13,1.82c1.77.69,3.21,1.24,4.3,1.64l4.66,1.76q3,1.15,4.74,1.75,39.63,14.43,39.27,51.16A60,60,0,0,1,369.68,700a61.64,61.64,0,0,1-6.54,15.64A59.29,59.29,0,0,1,351.5,730q-7,6.3-18.3,10.36A74.77,74.77,0,0,1,307.92,744.45Z"/><path class="cls-1" d="M409.88,582.85q0-23.39,24.61-23.39H436q24.36,0,24.37,23.88,0,23-24.62,23h-1.45Q409.89,606.37,409.88,582.85Zm4.24,153.93V623.26a2.7,2.7,0,0,1,2.7-2.7h36.55a2.7,2.7,0,0,1,2.7,2.7V736.78a2.7,2.7,0,0,1-2.7,2.7H416.82A2.7,2.7,0,0,1,414.12,736.78Z"/><path class="cls-1" d="M502.39,736.78V568.58a2.7,2.7,0,0,1,2.7-2.7h36.55a2.7,2.7,0,0,1,2.7,2.7v168.2a2.7,2.7,0,0,1-2.7,2.7H505.09A2.7,2.7,0,0,1,502.39,736.78Z"/><path class="cls-1" d="M592.24,736.78V568.58a2.7,2.7,0,0,1,2.7-2.7H684.7a2.7,2.7,0,0,1,2.7,2.7v35.34a2.69,2.69,0,0,1-2.7,2.69H646.91Q636,606.61,636,619.1t10.67,12.61h35.48a2.7,2.7,0,0,1,2.7,2.7v35.33a2.7,2.7,0,0,1-2.7,2.7H646.91q-11.4,0-11.39,13,0,13.33,11.15,13.34h38a2.7,2.7,0,0,1,2.7,2.7v35.33a2.7,2.7,0,0,1-2.7,2.7H594.94A2.7,2.7,0,0,1,592.24,736.78Z"/><path class="cls-1" d="M781.61,744.45a82.54,82.54,0,0,1-14.67-1.39,98.45,98.45,0,0,1-13.58-3.4q-5.94-2-10.85-4.06c-3.27-1.37-5.8-2.51-7.58-3.39l-1.25-.69a2.69,2.69,0,0,1-1.41-2.37V691.7a2.71,2.71,0,0,1,3.11-2.67,39.13,39.13,0,0,1,8.22,2.14,97.21,97.21,0,0,1,11.88,5.21,90,90,0,0,0,12.13,5.22A36.45,36.45,0,0,0,779.43,704q8.36,0,13.21-3.88t4.85-10.79q0-10.78-22.55-18.55-6.9-2.41-12-4.72a84.14,84.14,0,0,1-11.76-6.79,50.5,50.5,0,0,1-10.91-9.64A46,46,0,0,1,733,636.32a51,51,0,0,1-3-17.94q0-24.5,16.85-40.07t43.27-15.58a97.64,97.64,0,0,1,23.82,3.09,113.2,113.2,0,0,1,18.86,6.12l5.12,2.43a2.69,2.69,0,0,1,1.54,2.44v37.32a2.71,2.71,0,0,1-3.1,2.68,45,45,0,0,1-11.2-3.41q-8.49-3.63-17.28-7.27t-15.09-3.64q-6.79,0-10.91,3.4A11.81,11.81,0,0,0,778.16,618a7.81,7.81,0,0,0,1.51,2.79,30.3,30.3,0,0,0,2.12,2.36,15.44,15.44,0,0,0,3,2.19c1.29.77,2.43,1.41,3.39,1.93a35.25,35.25,0,0,0,4.13,1.82c1.77.69,3.21,1.24,4.3,1.64l4.67,1.76q3,1.15,4.73,1.75,39.63,14.43,39.27,51.16A60,60,0,0,1,843.37,700a61.64,61.64,0,0,1-6.54,15.64A59.29,59.29,0,0,1,825.19,730q-7,6.3-18.3,10.36A74.77,74.77,0,0,1,781.61,744.45Z"/></svg>