<?xml version="1.0" encoding="UTF-8" standalone="no"?>
<!-- Created with Inkscape (http://www.inkscape.org/) -->

<svg
   version="1.1"
   id="svg2"
   xml:space="preserve"
   width="400"
   height="163.17467"
   viewBox="0 0 400 163.17467"
   xmlns="http://www.w3.org/2000/svg"
   xmlns:svg="http://www.w3.org/2000/svg"><defs
     id="defs6"><clipPath
       clipPathUnits="userSpaceOnUse"
       id="clipPath16"><path
         d="M 0,122.381 H 300 V 0 H 0 Z"
         id="path14" /></clipPath></defs><g
     id="g8"
     transform="matrix(1.3333333,0,0,-1.3333333,0,163.17467)"><g
       id="g10"><g
         id="g12"
         clip-path="url(#clipPath16)"><g
           id="g18"
           transform="translate(83.6064,24.592)"><path
             d="m 0,0 v 9.716 h -25.778 v 3.247 h 38.674 c 7.485,0 10.278,5.205 12.878,12.968 2.708,8.011 2.582,15.689 0,25.954 C 23.93,59.28 20.399,64.853 12.896,64.853 H 3.212 V 53.518 c 0,-8.803 -7.517,-16.216 -16.113,-16.216 h -25.773 c -7.062,0 -12.896,-5.978 -12.896,-12.985 V 0 c 0,-6.941 6.077,-11.002 12.896,-12.986 8.168,-2.37 16.008,-2.793 25.773,0 C -6.396,-11.106 0,-7.381 0,0 m -16.112,-1.619 c 0,2.672 2.159,4.849 4.831,4.849 2.672,0 4.831,-2.177 4.831,-4.849 0,-2.686 -2.159,-4.885 -4.831,-4.885 -2.672,0 -4.831,2.199 -4.831,4.885"
             style="fill:#ffcc12;fill-opacity:1;fill-rule:nonzero;stroke:none"
             id="path20" /></g><g
           id="g22"
           transform="translate(32.0361,102.4263)"><path
             d="m 0,0 v -9.734 h 25.792 v -3.247 H -9.666 c -7.503,0 -14.075,-4.467 -16.112,-12.968 -2.371,-9.734 -2.474,-15.779 0,-25.954 1.83,-7.552 6.184,-12.968 13.687,-12.968 h 8.857 v 11.668 c 0,8.452 7.381,15.901 16.13,15.901 H 38.67 c 7.17,0 12.9,5.852 12.9,12.986 V 0 c 0,6.923 -5.906,12.14 -12.9,13.301 -8.852,1.462 -18.361,1.3 -25.774,0 C 1.984,11.389 0,7.381 0,0 m 6.446,1.619 c 0,2.686 2.163,4.867 4.835,4.867 2.668,0 4.831,-2.181 4.831,-4.867 0,-2.689 -2.163,-4.867 -4.831,-4.867 -2.672,0 -4.835,2.178 -4.835,4.867"
             style="fill:#e60000;fill-opacity:1;fill-rule:nonzero;stroke:none"
             id="path24" /></g><g
           id="g26"
           transform="translate(156.5557,59.1325)"><path
             d="m 0,0 -1.597,-3.248 h -16.13 v -13.777 h 13.391 l -1.655,-3.18 h -11.736 v -16.832 h 17.34 v -3.198 h -21.928 l -0.067,40.186 z m 13.125,-40.991 c -1.614,0 -3.198,0.279 -4.741,0.859 -1.547,0.563 -2.937,1.318 -4.183,2.267 l 1.669,2.672 c 0.967,-0.719 2.11,-1.3 3.41,-1.759 1.3,-0.436 2.563,-0.683 3.796,-0.737 0.756,0 1.543,0.108 2.316,0.301 0.792,0.194 1.512,0.472 2.146,0.859 0.63,0.387 1.161,0.877 1.561,1.494 0.405,0.616 0.58,1.372 0.549,2.267 0,0.683 -0.162,1.246 -0.459,1.723 -0.297,0.472 -0.666,0.859 -1.107,1.178 -0.458,0.315 -0.949,0.594 -1.511,0.823 -0.544,0.248 -1.07,0.459 -1.583,0.67 -0.419,0.176 -0.859,0.351 -1.282,0.509 -0.423,0.175 -0.859,0.333 -1.336,0.458 -0.859,0.333 -1.705,0.666 -2.582,1.017 -0.877,0.333 -1.669,0.81 -2.389,1.408 -0.773,0.544 -1.407,1.246 -1.916,2.073 -0.508,0.824 -0.755,1.894 -0.755,3.212 0,1.318 0.265,2.497 0.827,3.536 0.544,1.052 1.282,1.911 2.195,2.617 0.913,0.702 1.952,1.228 3.126,1.597 1.161,0.351 2.357,0.545 3.603,0.545 1.44,0 2.83,-0.23 4.166,-0.648 1.354,-0.423 2.654,-1.003 3.935,-1.723 l -1.722,-2.744 c -2.056,1.161 -4.094,1.777 -6.131,1.862 -0.671,0 -1.354,-0.085 -2.006,-0.26 -0.666,-0.176 -1.264,-0.441 -1.809,-0.792 -0.562,-0.369 -1.003,-0.828 -1.354,-1.372 -0.332,-0.562 -0.508,-1.21 -0.508,-1.984 0,-0.809 0.23,-1.439 0.666,-1.916 0.459,-0.454 1.039,-0.859 1.759,-1.21 0.719,-0.337 1.529,-0.688 2.424,-1.039 0.895,-0.369 1.795,-0.72 2.672,-1.052 0.859,-0.351 1.723,-0.702 2.582,-1.058 0.877,-0.368 1.669,-0.841 2.406,-1.439 0.756,-0.598 1.39,-1.318 1.898,-2.195 0.509,-0.877 0.774,-1.952 0.774,-3.216 0,-1.493 -0.333,-2.793 -0.985,-3.9 -0.666,-1.106 -1.529,-2.019 -2.582,-2.744 -1.07,-0.719 -2.267,-1.264 -3.585,-1.614 -1.318,-0.369 -2.636,-0.545 -3.954,-0.545 m 28.959,3.446 c 1.529,0.085 2.757,0.49 3.67,1.21 0.913,0.719 1.602,1.619 2.074,2.708 0.459,1.088 0.773,2.249 0.913,3.513 0.158,1.245 0.229,2.46 0.229,3.652 0,1.16 -0.071,2.393 -0.229,3.742 -0.14,1.336 -0.436,2.587 -0.895,3.761 -0.441,1.16 -1.106,2.145 -1.966,2.937 -0.881,0.774 -2.042,1.21 -3.481,1.3 -0.967,0.036 -1.898,-0.018 -2.776,-0.157 -0.859,-0.144 -1.65,-0.351 -2.352,-0.617 -0.706,-0.247 -1.268,-0.508 -1.723,-0.791 -0.441,-0.279 -0.755,-0.491 -0.931,-0.666 v -18.168 c 0.387,-0.265 0.859,-0.531 1.403,-0.845 0.563,-0.279 1.161,-0.563 1.827,-0.824 0.652,-0.247 1.354,-0.458 2.073,-0.598 0.724,-0.157 1.444,-0.211 2.164,-0.157 m 1.143,25.882 c 1.916,0.049 3.566,-0.338 4.952,-1.143 1.372,-0.81 2.514,-1.916 3.445,-3.324 0.913,-1.403 1.579,-3.023 2.038,-4.849 0.441,-1.826 0.666,-3.76 0.666,-5.798 0,-1.79 -0.225,-3.513 -0.666,-5.164 -0.459,-1.65 -1.143,-3.148 -2.074,-4.462 -0.949,-1.318 -2.109,-2.375 -3.513,-3.184 -1.408,-0.805 -3.058,-1.228 -4.974,-1.282 -1.561,0 -3.037,0.229 -4.391,0.67 -1.372,0.454 -2.707,1.071 -4.025,1.88 v -16.517 l -4.584,1.669 0.049,36.65 c 0,0 0.248,0.248 0.707,0.738 0.472,0.495 1.228,1.039 2.267,1.655 1.034,0.63 2.388,1.192 4.021,1.705 1.633,0.508 3.639,0.769 6.027,0.823 z m 34.364,-23.651 v 9.558 h -2.739 c -1.106,0 -2.231,-0.018 -3.373,-0.054 -1.79,0 -3.27,-0.49 -4.462,-1.439 -1.197,-0.967 -1.795,-2.339 -1.795,-4.111 0,-0.81 0.162,-1.584 0.477,-2.339 0.332,-0.738 0.773,-1.39 1.354,-1.966 0.562,-0.58 1.227,-1.039 2.001,-1.408 0.774,-0.369 1.615,-0.544 2.546,-0.544 1.372,-0.036 2.6,0.211 3.711,0.774 1.107,0.544 1.862,1.052 2.28,1.529 m 4.534,-0.652 c -1.353,-1.354 -3.089,-2.497 -5.199,-3.428 -2.11,-0.945 -4.552,-1.385 -7.363,-1.349 -1.283,0.049 -2.461,0.315 -3.568,0.805 -1.106,0.495 -2.073,1.142 -2.896,1.97 -0.828,0.823 -1.476,1.79 -1.952,2.897 -0.473,1.106 -0.684,2.303 -0.635,3.585 0,1.354 0.248,2.582 0.756,3.657 0.513,1.088 1.215,2.001 2.074,2.739 0.881,0.756 1.88,1.318 3.04,1.687 1.143,0.387 2.389,0.58 3.761,0.58 h 7.574 v 2.739 c 0,0.81 -0.157,1.548 -0.512,2.2 -0.333,0.666 -0.769,1.228 -1.332,1.687 -0.548,0.472 -1.196,0.841 -1.934,1.088 -0.756,0.261 -1.511,0.387 -2.267,0.387 -1.408,0 -2.672,-0.175 -3.796,-0.508 -1.125,-0.338 -2.303,-0.828 -3.531,-1.48 l -1.161,2.69 c 1.651,0.895 3.216,1.511 4.656,1.88 1.444,0.351 3.13,0.544 5.042,0.544 1.143,0 2.285,-0.193 3.41,-0.58 1.124,-0.387 2.109,-0.931 2.968,-1.615 0.846,-0.702 1.53,-1.565 2.074,-2.582 0.531,-1.021 0.791,-2.181 0.791,-3.445 z m 14.093,30.168 c -0.931,0 -1.687,-0.175 -2.267,-0.508 -0.58,-0.333 -1.196,-0.792 -1.88,-1.336 l -1.723,2.352 c 1.057,1.075 2.128,1.849 3.198,2.357 1.057,0.509 2.357,0.774 3.882,0.774 0.724,0 1.354,-0.108 1.916,-0.319 0.544,-0.207 1.089,-0.455 1.62,-0.738 0.544,-0.279 1.07,-0.526 1.632,-0.738 0.544,-0.211 1.197,-0.315 1.917,-0.315 0.931,0 1.686,0.176 2.249,0.509 0.58,0.35 1.209,0.791 1.898,1.336 l 1.718,-2.353 c -1.071,-1.057 -2.123,-1.844 -3.198,-2.357 -1.053,-0.508 -2.353,-0.774 -3.882,-0.774 -0.72,0 -1.372,0.108 -1.916,0.32 -0.563,0.211 -1.089,0.454 -1.633,0.738 -0.526,0.278 -1.07,0.526 -1.615,0.737 -0.562,0.212 -1.178,0.315 -1.844,0.315 z m 15.181,-34.437 h -4.656 v 19.013 c 0,2.159 -0.652,3.81 -1.916,4.935 -1.282,1.124 -2.932,1.668 -4.97,1.632 -1.233,-0.049 -2.411,-0.296 -3.553,-0.737 -1.125,-0.455 -2.038,-0.931 -2.758,-1.44 v -23.403 h -4.655 v 23.984 c 1.178,0.841 2.339,1.596 3.463,2.267 1.125,0.647 2.443,1.178 3.936,1.565 1.138,0.333 2.456,0.594 3.967,0.787 1.512,0.193 3.095,0.09 4.764,-0.279 1.705,-0.387 3.18,-1.16 4.462,-2.339 1.264,-1.16 1.916,-2.703 1.916,-4.619 z m 23.07,4.921 v 9.558 h -2.739 c -1.111,0 -2.235,-0.018 -3.373,-0.054 -1.795,0 -3.27,-0.49 -4.467,-1.439 -1.192,-0.967 -1.79,-2.339 -1.79,-4.111 0,-0.81 0.157,-1.584 0.472,-2.339 0.337,-0.738 0.774,-1.39 1.354,-1.966 0.562,-0.58 1.232,-1.039 2.002,-1.408 0.755,-0.369 1.619,-0.544 2.55,-0.544 1.372,-0.036 2.6,0.211 3.706,0.774 1.089,0.544 1.863,1.052 2.285,1.529 m 4.534,-0.652 c -1.371,-1.354 -3.094,-2.497 -5.204,-3.428 -2.105,-0.945 -4.547,-1.385 -7.358,-1.349 -1.283,0.049 -2.461,0.315 -3.568,0.805 -1.106,0.495 -2.073,1.142 -2.901,1.97 -0.823,0.823 -1.475,1.79 -1.947,2.897 -0.477,1.106 -0.689,2.303 -0.635,3.585 0,1.354 0.248,2.582 0.756,3.657 0.508,1.088 1.214,2.001 2.074,2.739 0.877,0.756 1.88,1.318 3.04,1.687 1.143,0.387 2.389,0.58 3.761,0.58 h 7.57 v 2.739 c 0,0.81 -0.157,1.548 -0.49,2.2 -0.351,0.666 -0.792,1.228 -1.354,1.687 -0.544,0.472 -1.197,0.841 -1.934,1.088 -0.756,0.261 -1.512,0.387 -2.268,0.387 -1.403,0 -2.667,-0.175 -3.791,-0.508 -1.125,-0.338 -2.303,-0.828 -3.549,-1.48 l -1.143,2.69 c 1.651,0.895 3.216,1.511 4.656,1.88 1.439,0.351 3.126,0.544 5.042,0.544 1.143,0 2.285,-0.193 3.41,-0.58 1.124,-0.387 2.109,-0.931 2.968,-1.615 0.841,-0.702 1.53,-1.565 2.074,-2.582 0.526,-1.021 0.791,-2.181 0.791,-3.445 z"
             style="fill:#ababab;fill-opacity:1;fill-rule:nonzero;stroke:none"
             id="path28" /></g><g
           id="g30"
           transform="translate(153.5871,103.2181)"><path
             d="m 0,0 c 0,0.931 -0.194,1.844 -0.58,2.739 -0.387,0.9 -0.895,1.687 -1.561,2.375 -0.652,0.666 -1.426,1.21 -2.285,1.615 -0.882,0.405 -1.826,0.616 -2.847,0.616 h -7.449 V -7.588 h 7.327 c 2.213,0 3.985,0.701 5.357,2.105 C -0.684,-4.075 0,-2.249 0,0 m -14.722,-10.768 v -18.82 h -4.656 v 40.235 h 8.538 c 1.493,0 2.865,0.018 4.147,0.072 1.615,0 3.108,-0.284 4.498,-0.864 C -0.823,9.279 0.387,8.506 1.408,7.539 2.424,6.554 3.234,5.411 3.832,4.111 4.413,2.829 4.709,1.408 4.709,-0.121 c 0,-1.53 -0.265,-2.956 -0.827,-4.238 -0.544,-1.3 -1.3,-2.424 -2.263,-3.391 -0.949,-0.949 -2.073,-1.687 -3.373,-2.231 -1.305,-0.526 -2.708,-0.787 -4.238,-0.787 z m 29.201,-9.703 c 0,-2.159 0.666,-3.792 2.038,-4.867 1.354,-1.088 3.077,-1.614 5.164,-1.56 1.232,0.031 2.478,0.332 3.76,0.895 1.268,0.544 2.285,1.07 3.059,1.578 v 22.774 h 4.655 V -26.97 c 0,-0.81 -0.018,-1.705 -0.067,-2.672 -0.036,-0.985 -0.108,-1.948 -0.212,-2.933 -0.126,-0.985 -0.265,-1.916 -0.459,-2.811 -0.193,-0.895 -0.454,-1.651 -0.791,-2.303 -0.594,-1.089 -1.422,-2.056 -2.492,-2.866 -1.057,-0.805 -2.231,-1.457 -3.5,-1.965 -1.282,-0.508 -2.581,-0.877 -3.917,-1.125 -1.35,-0.229 -2.618,-0.369 -3.792,-0.404 l -0.774,2.932 c 0.895,0.126 1.862,0.266 2.897,0.441 1.039,0.176 2.055,0.423 3.022,0.738 0.986,0.315 1.899,0.755 2.726,1.3 0.823,0.562 1.476,1.282 1.93,2.163 0.266,0.436 0.459,0.967 0.58,1.597 0.122,0.652 0.23,1.3 0.284,1.988 0.067,0.666 0.103,1.35 0.139,2.002 0.018,0.665 0.018,1.246 0.018,1.754 0,0.337 0.018,0.549 0.036,0.598 0.032,0.072 0.018,0.266 -0.036,0.617 -0.72,-0.351 -1.88,-0.792 -3.5,-1.336 -1.614,-0.563 -3.773,-0.842 -6.499,-0.842 -1.071,0 -2.123,0.194 -3.198,0.545 -1.053,0.369 -2.02,0.895 -2.897,1.596 -0.864,0.702 -1.565,1.566 -2.11,2.582 -0.526,1.022 -0.791,2.164 -0.791,3.446 v 19.382 l 4.727,1.597 V -20.52 Z m 27.218,15.815 h -3.18 v 3.005 h 3.18 v 7.782 l 4.655,1.655 v -9.437 h 5.236 v -3.005 h -5.236 v -18.167 c 0,-1.862 0.473,-3.095 1.404,-3.689 0.931,-0.598 2.217,-0.949 3.832,-1.039 v -2.406 c -3.108,-0.302 -5.537,0.193 -7.273,1.457 -1.741,1.282 -2.618,3.126 -2.618,5.551 z M 81.23,-29.588 h -4.727 v 17.992 c 0,0.81 -0.104,1.615 -0.315,2.46 -0.211,0.823 -0.531,1.561 -0.949,2.213 -0.423,0.666 -0.985,1.215 -1.669,1.633 -0.67,0.423 -1.475,0.634 -2.411,0.634 -1.493,0 -2.896,-0.35 -4.214,-1.052 -1.319,-0.706 -2.564,-1.48 -3.761,-2.321 v -21.559 h -4.655 v 42.979 l 4.655,1.475 V -4.709 c 1.408,1.021 2.902,1.812 4.498,2.388 1.602,0.562 3.338,0.864 5.254,0.864 1.228,0 2.37,-0.23 3.391,-0.671 1.022,-0.454 1.881,-1.07 2.6,-1.862 0.72,-0.774 1.3,-1.705 1.705,-2.757 0.405,-1.071 0.598,-2.195 0.598,-3.392 z m 10.719,14.479 c 0,-1.354 0.104,-2.744 0.351,-4.165 0.225,-1.44 0.648,-2.726 1.228,-3.9 0.598,-1.161 1.408,-2.146 2.407,-2.937 0.985,-0.787 2.23,-1.174 3.724,-1.174 1.619,0.049 2.919,0.436 3.922,1.21 0.999,0.773 1.772,1.74 2.317,2.937 0.562,1.192 0.931,2.474 1.124,3.882 0.194,1.403 0.284,2.793 0.284,4.147 0,1.282 -0.126,2.546 -0.387,3.792 -0.248,1.25 -0.671,2.411 -1.269,3.445 -0.593,1.039 -1.385,1.899 -2.388,2.582 -0.999,0.688 -2.249,1.057 -3.725,1.143 -1.614,-0.086 -2.914,-0.455 -3.899,-1.143 -0.986,-0.683 -1.759,-1.543 -2.321,-2.582 -0.581,-1.034 -0.967,-2.195 -1.161,-3.445 -0.175,-1.246 -0.279,-2.51 -0.279,-3.792 z m -5.114,0 c 0,1.88 0.297,3.652 0.859,5.357 0.58,1.705 1.426,3.198 2.533,4.498 1.106,1.3 2.442,2.339 4.003,3.126 1.583,0.774 3.373,1.179 5.361,1.179 2.002,0 3.797,-0.405 5.393,-1.179 1.602,-0.787 2.933,-1.826 4.008,-3.126 1.089,-1.3 1.93,-2.793 2.528,-4.498 0.599,-1.705 0.895,-3.477 0.895,-5.357 0,-1.916 -0.278,-3.778 -0.805,-5.573 -0.526,-1.808 -1.318,-3.405 -2.393,-4.813 -1.052,-1.403 -2.388,-2.528 -4.021,-3.392 -1.601,-0.841 -3.495,-1.263 -5.659,-1.263 -2.176,0 -4.039,0.422 -5.622,1.263 -1.565,0.864 -2.883,1.989 -3.954,3.392 -1.052,1.408 -1.844,3.005 -2.352,4.813 -0.513,1.795 -0.774,3.657 -0.774,5.573 m 54.449,-14.479 h -4.638 v 19.008 c 0,2.164 -0.647,3.815 -1.916,4.939 -1.282,1.125 -2.932,1.669 -4.97,1.633 -1.233,-0.049 -2.424,-0.297 -3.549,-0.738 -1.124,-0.436 -2.056,-0.931 -2.775,-1.439 v -23.403 h -4.642 v 23.983 c 1.178,0.841 2.339,1.597 3.463,2.267 1.125,0.648 2.443,1.179 3.918,1.566 1.161,0.333 2.478,0.593 3.99,0.787 1.511,0.193 3.09,0.09 4.759,-0.279 1.686,-0.387 3.18,-1.16 4.462,-2.339 1.268,-1.161 1.898,-2.703 1.898,-4.619 z"
             style="fill:#ababab;fill-opacity:1;fill-rule:nonzero;stroke:none"
             id="path32" /></g></g></g></g></svg>
