<?xml version="1.0" encoding="UTF-8"?>
<!DOCTYPE svg PUBLIC "-//W3C//DTD SVG 1.1//EN" "http://www.w3.org/Graphics/SVG/1.1/DTD/svg11.dtd">
<svg xmlns="http://www.w3.org/2000/svg" version="1.1" width="7919px" height="1990px" style="shape-rendering:geometricPrecision; text-rendering:geometricPrecision; image-rendering:optimizeQuality; fill-rule:evenodd; clip-rule:evenodd" xmlns:xlink="http://www.w3.org/1999/xlink">
<g><path style="opacity:0.997" fill="#009ee3" d="M 1743.5,-0.5 C 1744.83,-0.5 1746.17,-0.5 1747.5,-0.5C 1753.36,0.700592 1759.36,1.86726 1765.5,3C 1773.21,5.6955 1777.54,11.0288 1778.5,19C 1774.64,60.918 1762.14,100.085 1741,136.5C 1730.73,153.766 1720.06,170.766 1709,187.5C 1679.43,226.952 1652.1,267.952 1627,310.5C 1619.17,331.829 1608.51,351.496 1595,369.5C 1577.08,391.426 1558.41,412.759 1539,433.5C 1529.57,444.264 1520.9,455.597 1513,467.5C 1480.75,501.071 1450.75,536.405 1423,573.5C 1421.16,575.681 1419.99,578.181 1419.5,581C 1422.49,591.966 1428.49,600.966 1437.5,608C 1456.21,621.703 1474.04,636.536 1491,652.5C 1505,673.833 1519,695.167 1533,716.5C 1536.53,720.369 1540.37,723.869 1544.5,727C 1548.56,727.351 1552.22,728.685 1555.5,731C 1560.74,736.815 1565.74,742.815 1570.5,749C 1574.99,751.96 1579.99,753.293 1585.5,753C 1627.39,800.881 1666.23,851.048 1702,903.5C 1707.78,923.926 1718.45,941.26 1734,955.5C 1737.09,960.672 1740.42,965.672 1744,970.5C 1767.58,1010 1791.92,1049 1817,1087.5C 1818.31,1100.39 1821.64,1112.72 1827,1124.5C 1838.16,1144.83 1849.83,1164.83 1862,1184.5C 1867.49,1195.15 1872.16,1206.15 1876,1217.5C 1879.92,1223 1883.58,1228.66 1887,1234.5C 1896.96,1256.43 1907.96,1277.76 1920,1298.5C 1935.94,1337.39 1951.61,1376.39 1967,1415.5C 1974.87,1433.57 1983.53,1451.23 1993,1468.5C 1995.1,1475.27 1994.77,1481.94 1992,1488.5C 1989.92,1492.99 1987.59,1497.33 1985,1501.5C 1981.51,1505.05 1977.34,1506.21 1972.5,1505C 1967.17,1502.67 1961.83,1500.33 1956.5,1498C 1952.42,1497.77 1948.42,1497.1 1944.5,1496C 1876.18,1468.68 1811.18,1435.34 1749.5,1396C 1735.19,1384.18 1720.53,1372.85 1705.5,1362C 1669.5,1337.33 1633.5,1312.67 1597.5,1288C 1580.62,1275.72 1564.29,1262.72 1548.5,1249C 1542.37,1246.87 1536.71,1243.87 1531.5,1240C 1520.47,1227.98 1509.14,1216.31 1497.5,1205C 1482.96,1196.45 1468.96,1187.12 1455.5,1177C 1421.79,1148.95 1387.79,1121.29 1353.5,1094C 1311.15,1066.32 1270.48,1036.32 1231.5,1004C 1225.02,1002.43 1219.02,999.762 1213.5,996C 1206.17,988.667 1198.83,981.333 1191.5,974C 1177.86,966.18 1164.53,957.847 1151.5,949C 1127.83,931.333 1104.17,913.667 1080.5,896C 1068.5,887.667 1056.17,879.834 1043.5,872.5C 1042.81,873.025 1042.31,873.692 1042,874.5C 1041.76,880.884 1041.09,887.218 1040,893.5C 1029.87,904.08 1022.54,916.414 1018,930.5C 1013.35,947.749 1009.02,965.082 1005,982.5C 1002.35,992.118 998.351,1001.12 993,1009.5C 992.125,1028.33 987.792,1046.33 980,1063.5C 970.922,1081.99 961.589,1100.32 952,1118.5C 948.608,1126.01 945.608,1133.68 943,1141.5C 916.157,1191.18 889.824,1241.18 864,1291.5C 852.587,1312.66 840.92,1333.66 829,1354.5C 820.277,1366.22 811.944,1378.22 804,1390.5C 781.254,1430.34 757.254,1469.34 732,1507.5C 714.618,1531.88 694.118,1553.38 670.5,1572C 653.493,1591.35 633.826,1607.35 611.5,1620C 605.09,1619.77 598.756,1618.77 592.5,1617C 590.413,1616.21 588.579,1615.04 587,1613.5C 584.781,1609.73 583.115,1605.73 582,1601.5C 580.763,1588.21 580.096,1574.88 580,1561.5C 579.15,1555.95 577.317,1550.78 574.5,1546C 577.198,1538.71 579.031,1531.21 580,1523.5C 580.751,1504.79 581.917,1486.12 583.5,1467.5C 578.808,1455.39 578.308,1443.06 582,1430.5C 585.847,1413.93 589.18,1397.27 592,1380.5C 592.468,1368.81 592.468,1357.15 592,1345.5C 600.782,1321.26 606.115,1296.26 608,1270.5C 620.571,1237.88 628.904,1204.22 633,1169.5C 644.021,1146.71 648.355,1122.71 646,1097.5C 649.331,1086.84 652.665,1076.18 656,1065.5C 660.154,1052.84 667.487,1042.51 678,1034.5C 679.081,1019.52 680.081,1004.52 681,989.5C 698.197,940.241 715.197,890.908 732,841.5C 736.977,825.591 741.644,809.591 746,793.5C 747.484,789.246 748.151,784.913 748,780.5C 746.363,778.19 744.196,776.69 741.5,776C 708.822,775.77 676.155,776.103 643.5,777C 628.922,776.677 614.589,774.677 600.5,771C 521.62,769.057 443.62,759.723 366.5,743C 350.125,741.329 333.792,739.329 317.5,737C 304.965,734.822 293.132,730.655 282,724.5C 269.519,726.483 257.019,726.65 244.5,725C 231.603,720.145 218.603,715.478 205.5,711C 183.77,706.254 162.104,701.254 140.5,696C 132.497,693.248 124.664,690.082 117,686.5C 109.784,687.425 102.617,686.925 95.5,685C 84.4235,681.197 73.4235,677.197 62.5,673C 53.8925,671.261 45.2258,669.928 36.5,669C 32.039,666.936 27.7057,664.602 23.5,662C 15.6291,654.626 7.62912,647.459 -0.5,640.5C -0.5,637.167 -0.5,633.833 -0.5,630.5C 22.3941,601.527 51.0608,580.027 85.5,566C 124.56,549.869 164.56,536.536 205.5,526C 256.831,518 308.164,510 359.5,502C 388.494,500.195 417.494,500.362 446.5,502.5C 457.904,502.272 469.237,501.272 480.5,499.5C 494.157,500.394 507.824,501.227 521.5,502C 579.087,507.69 636.753,512.356 694.5,516C 708.833,519.667 723.167,523.333 737.5,527C 743.778,528.188 750.112,528.688 756.5,528.5C 756.837,524.692 756.337,521.026 755,517.5C 733.667,488.167 712.333,458.833 691,429.5C 685.194,416.554 678.861,403.888 672,391.5C 657.333,366.833 642.667,342.167 628,317.5C 617.168,298.171 608.834,277.838 603,256.5C 600.473,252.779 598.473,248.779 597,244.5C 595.763,231.213 595.096,217.88 595,204.5C 593.696,198.26 592.196,192.093 590.5,186C 590.565,183.409 591.065,180.909 592,178.5C 594.773,173.396 597.94,168.563 601.5,164C 611.112,162.17 620.779,162.003 630.5,163.5C 635.369,163.079 640.035,161.912 644.5,160C 646.5,159.333 648.5,159.333 650.5,160C 677.343,167.059 704.009,174.725 730.5,183C 800.238,199.445 863.572,229.112 920.5,272C 944.004,285.582 967.004,299.915 989.5,315C 1013.09,331.251 1033.42,350.918 1050.5,374C 1063.51,381.81 1077.18,383.143 1091.5,378C 1096.81,373.021 1101.81,367.687 1106.5,362C 1113.17,358 1119.83,354 1126.5,350C 1161.98,331.76 1197.65,313.76 1233.5,296C 1253.7,285.07 1272.7,272.403 1290.5,258C 1302.66,252.092 1314.32,245.425 1325.5,238C 1332.35,232.487 1337.69,225.821 1341.5,218C 1350.83,213 1360.17,208 1369.5,203C 1375.68,200.273 1382.01,197.94 1388.5,196C 1416.45,174.022 1445.78,154.022 1476.5,136C 1485.29,134.72 1493.62,132.054 1501.5,128C 1510.5,122.333 1519.5,116.667 1528.5,111C 1568.15,90.8431 1607.48,70.1764 1646.5,49C 1656.33,43.2505 1666,37.2505 1675.5,31C 1678.29,27.9192 1680.46,24.4192 1682,20.5C 1688.04,12.7979 1695.87,7.96454 1705.5,6C 1718.39,4.3116 1731.06,2.14493 1743.5,-0.5 Z"/></g>
<g><path style="opacity:0.991" fill="#000000" d="M 2843.5,152.5 C 2929.77,148.943 3015.1,156.11 3099.5,174C 3141.61,184.859 3183.61,196.026 3225.5,207.5C 3229.32,269.487 3232.99,331.487 3236.5,393.5C 3216.82,393.833 3197.16,393.5 3177.5,392.5C 3152.84,324.336 3107.51,275.17 3041.5,245C 2954.63,207.72 2865.63,201.72 2774.5,227C 2698.1,252.4 2640.94,300.566 2603,371.5C 2572.11,432.188 2553.77,496.522 2548,564.5C 2540.35,639.483 2544.35,713.816 2560,787.5C 2576.34,863.539 2611.01,929.539 2664,985.5C 2741.02,1058.65 2833.02,1096.31 2940,1098.5C 3056.83,1097.11 3147.49,1048.44 3212,952.5C 3225.89,958.195 3239.72,964.029 3253.5,970C 3254.02,970.561 3254.36,971.228 3254.5,972C 3240.26,1023.14 3226.09,1074.31 3212,1125.5C 3149.11,1139.06 3085.61,1148.9 3021.5,1155C 2942.02,1161.59 2863.02,1157.92 2784.5,1144C 2685.34,1126.33 2597.01,1086 2519.5,1023C 2417.47,932.454 2361.97,818.621 2353,681.5C 2346.21,564.576 2375.55,457.91 2441,361.5C 2511.01,266.855 2603.18,204.022 2717.5,173C 2758.97,162.007 2800.97,155.174 2843.5,152.5 Z"/></g>
<g><path style="opacity:0.991" fill="#000000" d="M 7918.5,1129.5 C 7918.5,1138.83 7918.5,1148.17 7918.5,1157.5C 7879.5,1156.2 7840.5,1154.86 7801.5,1153.5C 7755.51,1155.44 7709.51,1156.77 7663.5,1157.5C 7663.5,1148.17 7663.5,1138.83 7663.5,1129.5C 7677.27,1127.88 7684.27,1120.05 7684.5,1106C 7684.1,1098.47 7682.27,1091.31 7679,1084.5C 7670.97,1067.49 7660.97,1051.83 7649,1037.5C 7602.06,985.27 7554.89,933.27 7507.5,881.5C 7507.17,914.833 7506.83,948.167 7506.5,981.5C 7506.36,1017.19 7506.86,1052.86 7508,1088.5C 7512.59,1112.58 7527.09,1126.25 7551.5,1129.5C 7551.5,1138.83 7551.5,1148.17 7551.5,1157.5C 7510.65,1156.68 7469.82,1155.35 7429,1153.5C 7394.14,1154.16 7359.3,1155.49 7324.5,1157.5C 7324.5,1148.17 7324.5,1138.83 7324.5,1129.5C 7356.92,1124.92 7373.75,1106.25 7375,1073.5C 7375.93,905.495 7375.6,737.495 7374,569.5C 7371.88,510.432 7368.55,451.432 7364,392.5C 7362.44,364.561 7351.61,341.061 7331.5,322C 7321.56,314.2 7310.22,310.034 7297.5,309.5C 7297.17,298.813 7297.5,288.146 7298.5,277.5C 7362.87,261.014 7421.87,233.514 7475.5,195C 7485.83,194.5 7496.16,194.334 7506.5,194.5C 7506.33,407.167 7506.5,619.834 7507,832.5C 7545.33,794.167 7583.67,755.833 7622,717.5C 7633.54,704.945 7642.21,690.612 7648,674.5C 7652.42,652.995 7645.08,636.662 7626,625.5C 7625.5,616.173 7625.33,606.839 7625.5,597.5C 7677.75,601.254 7730.08,602.42 7782.5,601C 7800.57,600.437 7818.57,599.271 7836.5,597.5C 7837.5,607.144 7837.83,616.81 7837.5,626.5C 7813.92,632.789 7791.92,642.623 7771.5,656C 7747.32,671.497 7725.49,689.997 7706,711.5C 7674.17,745.833 7642.33,780.167 7610.5,814.5C 7678.48,895.646 7746.65,976.646 7815,1057.5C 7837.95,1081.81 7863.79,1102.31 7892.5,1119C 7900.86,1123.35 7909.53,1126.85 7918.5,1129.5 Z"/></g>
<g><path style="opacity:0.992" fill="#000000" d="M 5408.5,210.5 C 5467.15,212.439 5525.82,214.439 5584.5,216.5C 5625.73,215.653 5666.9,213.653 5708,210.5C 5774.14,210.528 5837.64,223.362 5898.5,249C 5939.6,267.119 5973.77,293.953 6001,329.5C 6033.66,378.505 6045,432.172 6035,490.5C 6027.75,527.336 6011.75,559.669 5987,587.5C 5957.08,619.749 5921.92,644.582 5881.5,662C 5868.88,667.205 5856.21,672.205 5843.5,677C 5877.69,686.954 5910.35,700.62 5941.5,718C 6017.86,765.509 6055.52,834.676 6054.5,925.5C 6054.82,1003.72 6022.15,1063.55 5956.5,1105C 5906.62,1133.63 5852.95,1150.63 5795.5,1156C 5769.9,1158.76 5744.23,1159.76 5718.5,1159C 5691.17,1157.24 5663.84,1155.57 5636.5,1154C 5555.5,1153.5 5474.5,1153.33 5393.5,1153.5C 5393.5,1145.17 5393.5,1136.83 5393.5,1128.5C 5412.54,1127.16 5430.21,1121.66 5446.5,1112C 5460.92,1098.77 5468.42,1082.27 5469,1062.5C 5470.5,806.484 5469.17,550.484 5465,294.5C 5464.15,279.313 5458.32,266.48 5447.5,256C 5435.81,248.212 5422.97,243.379 5409,241.5C 5408.5,231.172 5408.33,220.839 5408.5,210.5 Z M 5661.5,260.5 C 5694.08,259.658 5726.08,263.491 5757.5,272C 5812.94,289.109 5848.44,325.609 5864,381.5C 5874.56,422.478 5876.22,463.812 5869,505.5C 5852.13,578.2 5807.63,624.2 5735.5,643.5C 5714.49,648.714 5693.15,651.047 5671.5,650.5C 5652.49,650.092 5633.49,649.425 5614.5,648.5C 5616.5,525.487 5619,402.487 5622,279.5C 5623.23,272.606 5627.06,267.773 5633.5,265C 5637.35,263.384 5641.35,262.384 5645.5,262C 5651.02,261.827 5656.35,261.327 5661.5,260.5 Z M 5641.5,706.5 C 5663.84,706.333 5686.17,706.5 5708.5,707C 5790.77,715.626 5846.6,758.459 5876,835.5C 5891.96,884.368 5893.63,933.701 5881,983.5C 5855.34,1060.1 5802.17,1101.94 5721.5,1109C 5704.15,1109.75 5686.81,1109.42 5669.5,1108C 5631.8,1105.63 5613.63,1085.46 5615,1047.5C 5614.5,934.167 5614.33,820.834 5614.5,707.5C 5623.68,707.827 5632.68,707.493 5641.5,706.5 Z"/></g>
<g><path style="opacity:0.987" fill="#000000" d="M 4015.5,353.5 C 4051.06,351.518 4076.89,366.185 4093,397.5C 4105.11,437.766 4092.61,467.599 4055.5,487C 4026.1,498.076 3998.77,494.41 3973.5,476C 3946.93,450.185 3942.1,420.685 3959,387.5C 3973,368.084 3991.84,356.75 4015.5,353.5 Z"/></g>
<g><path style="opacity:0.991" fill="#000000" d="M 3551.5,581.5 C 3588.19,580.72 3624.52,583.886 3660.5,591C 3697.73,598.524 3729.23,616.024 3755,643.5C 3774.53,669.085 3785.2,698.085 3787,730.5C 3787.67,752.5 3787.67,774.5 3787,796.5C 3783.47,870.464 3782.14,944.464 3783,1018.5C 3783.15,1033.61 3786.49,1047.94 3793,1061.5C 3799.89,1071.2 3809.39,1075.87 3821.5,1075.5C 3831.4,1074.61 3841.07,1072.61 3850.5,1069.5C 3857.29,1076.79 3864.29,1083.96 3871.5,1091C 3837.88,1117.62 3804.54,1144.62 3771.5,1172C 3732.34,1169.17 3699.51,1153.34 3673,1124.5C 3668.83,1118.83 3665.16,1112.83 3662,1106.5C 3637.46,1126.53 3610.96,1143.7 3582.5,1158C 3542.47,1174.34 3501.47,1177 3459.5,1166C 3419.67,1155.86 3386.84,1135.02 3361,1103.5C 3338.89,1072.4 3329.56,1037.73 3333,999.5C 3337.38,941.217 3363.55,895.717 3411.5,863C 3449.89,838.313 3491.89,823.313 3537.5,818C 3560.74,814.866 3584.07,813.866 3607.5,815C 3622.81,816.498 3638.15,817.665 3653.5,818.5C 3654.71,788.426 3651.87,758.759 3645,729.5C 3634.85,690.352 3609.68,668.852 3569.5,665C 3506.64,658.931 3458.64,682.431 3425.5,735.5C 3414.19,736.499 3402.85,736.832 3391.5,736.5C 3391.17,692.928 3391.5,649.428 3392.5,606C 3444.59,590.965 3497.59,582.798 3551.5,581.5 Z M 3577.5,861.5 C 3602.78,861.034 3627.78,863.367 3652.5,868.5C 3653.33,873.467 3653.83,878.467 3654,883.5C 3655.5,944.831 3656.5,1006.16 3657,1067.5C 3630.39,1083.2 3601.56,1090.86 3570.5,1090.5C 3514.22,1086.72 3479.38,1057.39 3466,1002.5C 3457.68,919.335 3494.85,872.335 3577.5,861.5 Z"/></g>
<g><path style="opacity:0.991" fill="#000000" d="M 5032.5,581.5 C 5065.74,580.982 5098.74,583.482 5131.5,589C 5170.59,595.129 5204.09,611.962 5232,639.5C 5255.45,668.501 5267.45,701.835 5268,739.5C 5266.4,817.498 5264.57,895.498 5262.5,973.5C 5261.75,997.657 5263.25,1021.66 5267,1045.5C 5269.18,1055.38 5274.01,1063.54 5281.5,1070C 5287.82,1073.69 5294.65,1075.53 5302,1075.5C 5311.93,1074.65 5321.6,1072.65 5331,1069.5C 5338.01,1076.35 5344.85,1083.35 5351.5,1090.5C 5318.63,1118.2 5285.29,1145.37 5251.5,1172C 5214.1,1168.88 5182.27,1154.05 5156,1127.5C 5151.31,1120.81 5146.64,1114.15 5142,1107.5C 5124.95,1120.28 5107.45,1132.44 5089.5,1144C 5040.27,1174.32 4987.94,1180.98 4932.5,1164C 4883.66,1150.15 4847.83,1120.65 4825,1075.5C 4807.94,1029.17 4808.94,983.172 4828,937.5C 4843.77,904.736 4866.93,878.57 4897.5,859C 4950.36,828.7 5007.36,813.866 5068.5,814.5C 5090.54,815.291 5112.54,816.624 5134.5,818.5C 5135.24,787.736 5132.08,757.402 5125,727.5C 5114.13,689.963 5089.3,669.129 5050.5,665C 5018.98,662.167 4988.98,667.5 4960.5,681C 4938.17,695.333 4919.83,713.667 4905.5,736C 4894.51,736.5 4883.51,736.667 4872.5,736.5C 4872.17,692.928 4872.5,649.428 4873.5,606C 4925.59,590.965 4978.59,582.798 5032.5,581.5 Z M 5058.5,861.5 C 5083.78,861.034 5108.78,863.367 5133.5,868.5C 5135.36,933.332 5137.03,998.165 5138.5,1063C 5138.17,1064.5 5137.83,1066 5137.5,1067.5C 5107.94,1084.98 5075.94,1092.48 5041.5,1090C 4999.78,1084.6 4970.28,1062.77 4953,1024.5C 4941.49,992.411 4941.82,960.411 4954,928.5C 4970.7,893.481 4998.2,872.315 5036.5,865C 5043.95,863.675 5051.29,862.509 5058.5,861.5 Z"/></g>
<g><path style="opacity:0.991" fill="#000000" d="M 6863.5,581.5 C 6873.19,581.168 6882.86,581.502 6892.5,582.5C 6890.98,604.458 6890.15,626.458 6890,648.5C 6919.64,628.426 6951.14,611.593 6984.5,598C 7037.83,579.425 7090.83,580.425 7143.5,601C 7191.18,623.467 7220.34,660.634 7231,712.5C 7233.98,725.351 7235.98,738.351 7237,751.5C 7237.97,865.182 7238.97,978.848 7240,1092.5C 7242.12,1106.63 7249.62,1116.79 7262.5,1123C 7270.05,1126.13 7277.72,1128.96 7285.5,1131.5C 7286.5,1140.81 7286.83,1150.14 7286.5,1159.5C 7253.02,1157.69 7219.52,1156.36 7186,1155.5C 7143.51,1157.07 7101.01,1158.4 7058.5,1159.5C 7058.5,1150.17 7058.5,1140.83 7058.5,1131.5C 7071.28,1129.78 7082.94,1125.28 7093.5,1118C 7101.16,1109.71 7105.32,1099.88 7106,1088.5C 7107.63,1000.85 7107.96,913.18 7107,825.5C 7107.12,792.679 7102.12,760.679 7092,729.5C 7073.56,679.521 7037.72,656.688 6984.5,661C 6961.45,663.261 6939.45,669.261 6918.5,679C 6906.81,685.02 6897.31,693.52 6890,704.5C 6888.27,708.363 6886.93,712.363 6886,716.5C 6882.56,841.168 6881.89,965.834 6884,1090.5C 6885.48,1111.31 6896.31,1124.14 6916.5,1129C 6921.79,1130.16 6927.13,1130.99 6932.5,1131.5C 6932.5,1140.83 6932.5,1150.17 6932.5,1159.5C 6894.68,1157.82 6856.85,1156.49 6819,1155.5C 6779.84,1156.96 6740.67,1158.29 6701.5,1159.5C 6701.17,1150.14 6701.5,1140.81 6702.5,1131.5C 6714.29,1127.94 6725.29,1122.77 6735.5,1116C 6743.87,1108.75 6748.71,1099.59 6750,1088.5C 6751.14,1055.19 6751.64,1021.86 6751.5,988.5C 6751.55,947.491 6751.05,906.491 6750,865.5C 6747.63,819.182 6745.63,772.849 6744,726.5C 6741.27,702.455 6728.44,686.955 6705.5,680C 6698.88,678.764 6692.21,677.931 6685.5,677.5C 6685.5,668.167 6685.5,658.833 6685.5,649.5C 6735.63,641.511 6783.3,626.011 6828.5,603C 6840.56,596.31 6852.23,589.143 6863.5,581.5 Z"/></g>
<g><path style="opacity:0.991" fill="#000000" d="M 6348.5,582.5 C 6384.19,581.873 6419.52,585.04 6454.5,592C 6491.79,599.339 6523.29,616.839 6549,644.5C 6568.74,670.377 6579.41,699.71 6581,732.5C 6581.67,753.5 6581.67,774.5 6581,795.5C 6577.48,869.797 6576.14,944.13 6577,1018.5C 6577.32,1033.1 6580.32,1047.1 6586,1060.5C 6592.88,1070.77 6602.54,1075.77 6615,1075.5C 6625.28,1074.38 6635.45,1072.88 6645.5,1071C 6651.67,1077.17 6657.83,1083.33 6664,1089.5C 6664.67,1090.5 6664.67,1091.5 6664,1092.5C 6630.89,1118.64 6598.06,1145.14 6565.5,1172C 6526.85,1169.26 6494.35,1153.76 6468,1125.5C 6464,1119.34 6459.83,1113.34 6455.5,1107.5C 6433.39,1124.77 6410.06,1140.27 6385.5,1154C 6349.67,1171.93 6312,1177.26 6272.5,1170C 6221.08,1162.06 6180.25,1137.23 6150,1095.5C 6131.32,1064.77 6123.99,1031.44 6128,995.5C 6134.45,933.767 6164.29,887.267 6217.5,856C 6257.05,834.151 6299.39,821.151 6344.5,817C 6357.65,815.97 6370.82,815.137 6384,814.5C 6405.21,815.837 6426.38,817.504 6447.5,819.5C 6448.46,793.293 6446.63,767.293 6442,741.5C 6428.94,683.682 6392.77,658.516 6333.5,666C 6294.26,667.871 6262.09,683.704 6237,713.5C 6231.04,721.244 6225.21,729.077 6219.5,737C 6208.51,737.5 6197.51,737.667 6186.5,737.5C 6186.17,693.928 6186.5,650.428 6187.5,607C 6240.24,591.776 6293.91,583.61 6348.5,582.5 Z M 6367.5,862.5 C 6394.39,861.59 6421.06,863.59 6447.5,868.5C 6449.7,935.153 6450.7,1001.82 6450.5,1068.5C 6414.8,1088.58 6376.8,1094.74 6336.5,1087C 6291.31,1071.47 6265.48,1039.97 6259,992.5C 6255.02,953.765 6266.52,920.599 6293.5,893C 6315.1,875.368 6339.76,865.202 6367.5,862.5 Z"/></g>
<g><path style="opacity:0.99" fill="#000000" d="M 4061.5,583.5 C 4070.83,583.5 4080.17,583.5 4089.5,583.5C 4094.72,750.122 4096.88,916.788 4096,1083.5C 4097.04,1103.12 4106.54,1116.62 4124.5,1124C 4131.9,1126.89 4139.4,1129.39 4147,1131.5C 4147.5,1140.83 4147.67,1150.16 4147.5,1159.5C 4106.67,1158.22 4065.83,1156.88 4025,1155.5C 3988.81,1156.28 3952.64,1157.62 3916.5,1159.5C 3916.17,1150.14 3916.5,1140.81 3917.5,1131.5C 3928.52,1128.99 3938.86,1124.82 3948.5,1119C 3957.21,1110.74 3962.04,1100.58 3963,1088.5C 3963.94,1001.16 3963.61,913.823 3962,826.5C 3960.84,795.044 3956.51,764.044 3949,733.5C 3945.28,716.871 3937.11,703.037 3924.5,692C 3913.39,685.351 3901.39,681.184 3888.5,679.5C 3888.17,670.143 3888.5,660.81 3889.5,651.5C 3943.09,638.694 3994.42,619.861 4043.5,595C 4049.73,591.392 4055.73,587.559 4061.5,583.5 Z"/></g>
<g><path style="opacity:0.989" fill="#000000" d="M 4204.5,598.5 C 4245.31,600.454 4286.14,601.787 4327,602.5C 4367.52,601.757 4408.02,600.423 4448.5,598.5C 4448.67,607.839 4448.5,617.173 4448,626.5C 4442.09,629.54 4436.25,632.706 4430.5,636C 4423.27,641.299 4419.94,648.466 4420.5,657.5C 4421.8,673.769 4427.3,688.436 4437,701.5C 4461.33,734.833 4485.67,768.167 4510,801.5C 4534.05,769.782 4557.72,737.782 4581,705.5C 4587.31,695.546 4591.98,684.879 4595,673.5C 4596.57,658.477 4591.41,646.31 4579.5,637C 4572.78,632.973 4565.78,629.473 4558.5,626.5C 4557.5,617.19 4557.17,607.857 4557.5,598.5C 4593.48,600.429 4629.48,601.762 4665.5,602.5C 4701.19,601.797 4736.86,600.464 4772.5,598.5C 4772.83,607.857 4772.5,617.19 4771.5,626.5C 4747.17,632.697 4725.51,643.863 4706.5,660C 4699,667.5 4691.5,675 4684,682.5C 4638.35,739.804 4593.18,797.471 4548.5,855.5C 4599.81,927.972 4651.31,1000.31 4703,1072.5C 4717.99,1091.5 4735.49,1107.66 4755.5,1121C 4762.52,1125.01 4769.85,1128.18 4777.5,1130.5C 4777.5,1140.17 4777.5,1149.83 4777.5,1159.5C 4737.53,1157.45 4697.53,1156.12 4657.5,1155.5C 4617.48,1156.17 4577.48,1157.5 4537.5,1159.5C 4537.17,1150.14 4537.5,1140.81 4538.5,1131.5C 4563.32,1122.52 4569.82,1106.19 4558,1082.5C 4553.59,1074.01 4548.92,1065.67 4544,1057.5C 4519.67,1022.5 4495.33,987.5 4471,952.5C 4446.67,985.5 4422.33,1018.5 4398,1051.5C 4388.32,1067.02 4382.49,1083.85 4380.5,1102C 4380.53,1119.87 4389.53,1129.7 4407.5,1131.5C 4408.5,1140.81 4408.83,1150.14 4408.5,1159.5C 4373.69,1157.55 4338.86,1156.22 4304,1155.5C 4273.8,1156.08 4243.63,1157.41 4213.5,1159.5C 4213.17,1150.14 4213.5,1140.81 4214.5,1131.5C 4234.3,1127.27 4251.97,1118.77 4267.5,1106C 4280.05,1094.45 4291.55,1081.95 4302,1068.5C 4345.14,1011.73 4388.64,955.229 4432.5,899C 4375.46,821.078 4318.29,743.244 4261,665.5C 4245.3,648.311 4226.64,635.311 4205,626.5C 4204.5,617.173 4204.33,607.839 4204.5,598.5 Z"/></g>
<g><path style="opacity:0.991" fill="#fecc00" d="M 470.5,812.5 C 485.182,813.822 499.848,815.322 514.5,817C 524.813,819.392 531.647,825.559 535,835.5C 538.703,838.867 542.036,842.534 545,846.5C 549,855.167 553,863.833 557,872.5C 559.282,876.718 562.282,880.384 566,883.5C 568.994,901.458 571.328,919.458 573,937.5C 561,955.5 549,973.5 537,991.5C 496.622,1014.65 453.788,1020.81 408.5,1010C 357.519,990.565 336.686,953.731 346,899.5C 351.73,882.302 358.23,865.469 365.5,849C 372.202,845.66 378.869,842.327 385.5,839C 389.5,836.333 392.833,833 395.5,829C 404.264,824.079 413.597,820.745 423.5,819C 439.346,817.087 455.013,814.921 470.5,812.5 Z"/></g>
<g><path style="opacity:0.995" fill="#e55a2a" d="M 361.5,1143.5 C 365.182,1143.33 368.848,1143.5 372.5,1144C 380.657,1146.89 388.99,1149.05 397.5,1150.5C 403.066,1149.37 408.399,1147.71 413.5,1145.5C 422.098,1147.09 430.432,1149.59 438.5,1153C 448.899,1151.61 457.399,1155.11 464,1163.5C 468.729,1172.46 474.562,1180.63 481.5,1188C 484.127,1189.9 486.961,1191.4 490,1192.5C 505.188,1225.23 516.688,1259.23 524.5,1294.5C 523.644,1297.28 522.977,1300.11 522.5,1303C 524.59,1312.6 527.09,1322.1 530,1331.5C 530.738,1335.71 530.572,1339.88 529.5,1344C 531.21,1345.61 533.043,1347.11 535,1348.5C 536.069,1368.35 533.402,1387.68 527,1406.5C 527.498,1428.51 523.165,1449.51 514,1469.5C 508.527,1481.78 502.527,1493.78 496,1505.5C 493.708,1506.79 491.708,1508.46 490,1510.5C 485.824,1518.04 479.991,1523.88 472.5,1528C 466.154,1527.53 460.488,1529.19 455.5,1533C 445.157,1544.71 434.824,1556.37 424.5,1568C 417.668,1571.74 410.335,1573.41 402.5,1573C 391.826,1579.67 380.16,1582.51 367.5,1581.5C 353.817,1580.95 340.15,1580.12 326.5,1579C 315.557,1575.51 304.557,1572.18 293.5,1569C 284.688,1562.09 275.021,1556.42 264.5,1552C 246.529,1540.7 229.696,1527.87 214,1513.5C 212,1510.17 210,1506.83 208,1503.5C 200.951,1496.39 194.617,1488.72 189,1480.5C 186.545,1476.47 184.879,1472.14 184,1467.5C 185.345,1458.25 185.679,1448.92 185,1439.5C 180.777,1423.04 179.61,1406.37 181.5,1389.5C 180.241,1375.76 178.575,1362.1 176.5,1348.5C 181.935,1324.16 187.435,1299.82 193,1275.5C 198.621,1272.21 203.288,1267.88 207,1262.5C 212.667,1251.17 218.333,1239.83 224,1228.5C 228.354,1223.41 233.52,1219.41 239.5,1216.5C 247.531,1199.3 259.864,1186.14 276.5,1177C 293.167,1168.33 309.833,1159.67 326.5,1151C 335.815,1150.33 345.149,1149.66 354.5,1149C 357.595,1148.06 359.929,1146.23 361.5,1143.5 Z"/></g>
<g><path style="opacity:0.987" fill="#000000" d="M 2364.5,1397.5 C 4213.17,1397.5 6061.83,1397.5 7910.5,1397.5C 7910.5,1412.17 7910.5,1426.83 7910.5,1441.5C 6061.83,1441.5 4213.17,1441.5 2364.5,1441.5C 2364.5,1426.83 2364.5,1412.17 2364.5,1397.5 Z"/></g>
<g><path style="opacity:0.977" fill="#000000" d="M 4567.5,1686.5 C 4582.24,1690.38 4597.24,1692.55 4612.5,1693C 4676.5,1693.67 4740.5,1693.67 4804.5,1693C 4817.12,1692.34 4829.46,1690.17 4841.5,1686.5C 4841.5,1706.5 4841.5,1726.5 4841.5,1746.5C 4835.79,1746.83 4830.13,1746.5 4824.5,1745.5C 4822.75,1730.46 4814.75,1720.63 4800.5,1716C 4777.89,1714.54 4755.22,1714.04 4732.5,1714.5C 4730.58,1792.49 4730.08,1870.49 4731,1948.5C 4734.2,1962.03 4742.53,1970.7 4756,1974.5C 4756.5,1977.82 4756.67,1981.15 4756.5,1984.5C 4740.17,1983.9 4723.83,1983.23 4707.5,1982.5C 4691.5,1983.23 4675.5,1983.9 4659.5,1984.5C 4659.5,1980.83 4659.5,1977.17 4659.5,1973.5C 4675.61,1969.55 4683.78,1959.21 4684,1942.5C 4684.67,1908.17 4684.67,1873.83 4684,1839.5C 4682.84,1797.83 4681.68,1756.16 4680.5,1714.5C 4656.12,1714.05 4631.79,1714.55 4607.5,1716C 4593.2,1721.07 4585.54,1731.24 4584.5,1746.5C 4578.83,1746.5 4573.17,1746.5 4567.5,1746.5C 4567.5,1726.5 4567.5,1706.5 4567.5,1686.5 Z"/></g>
<g><path style="opacity:0.974" fill="#000000" d="M 5060.5,1989.5 C 5059.83,1989.5 5059.17,1989.5 5058.5,1989.5C 5049.72,1985.51 5040.39,1983.34 5030.5,1983C 4973.83,1982.5 4917.17,1982.33 4860.5,1982.5C 4860.5,1979.17 4860.5,1975.83 4860.5,1972.5C 4871.47,1971.94 4878.97,1966.61 4883,1956.5C 4884.14,1935.55 4884.64,1914.55 4884.5,1893.5C 4884.01,1835.82 4882.84,1778.15 4881,1720.5C 4878.07,1710.27 4871.24,1704.6 4860.5,1703.5C 4860.5,1700.17 4860.5,1696.83 4860.5,1693.5C 4916.5,1693.67 4972.5,1693.5 5028.5,1693C 5039.05,1691.79 5049.39,1689.62 5059.5,1686.5C 5059.22,1697.02 5058.55,1707.52 5057.5,1718C 5058.48,1728.48 5059.14,1738.98 5059.5,1749.5C 5053.79,1749.83 5048.13,1749.5 5042.5,1748.5C 5039,1736.98 5032.67,1727.48 5023.5,1720C 5020.83,1718.67 5018.17,1717.33 5015.5,1716C 4987.22,1714.53 4958.88,1714.03 4930.5,1714.5C 4930.5,1751.17 4930.5,1787.83 4930.5,1824.5C 4957.87,1824.94 4985.2,1824.44 5012.5,1823C 5023.18,1819.82 5030.51,1812.99 5034.5,1802.5C 5039.46,1801.51 5044.46,1801.17 5049.5,1801.5C 5046.83,1826.5 5046.83,1851.5 5049.5,1876.5C 5044.17,1876.5 5038.83,1876.5 5033.5,1876.5C 5031.42,1866.83 5027.08,1858.33 5020.5,1851C 5016.31,1848.12 5011.64,1846.45 5006.5,1846C 4981.17,1845.5 4955.84,1845.33 4930.5,1845.5C 4930.5,1884.17 4930.5,1922.83 4930.5,1961.5C 4961.2,1961.94 4991.87,1961.44 5022.5,1960C 5034.89,1957.55 5045.06,1951.38 5053,1941.5C 5055.77,1937.62 5058.77,1933.95 5062,1930.5C 5066.92,1932.37 5071.42,1934.87 5075.5,1938C 5070.42,1955.18 5065.42,1972.35 5060.5,1989.5 Z"/></g>
<g><path style="opacity:0.972" fill="#000000" d="M 5301.5,1989.5 C 5291.5,1989.5 5281.5,1989.5 5271.5,1989.5C 5236.11,1987.9 5203.11,1978.07 5172.5,1960C 5122.41,1924.45 5100.91,1875.95 5108,1814.5C 5118.08,1754.52 5151.91,1714.69 5209.5,1695C 5235.97,1687.13 5262.97,1684.47 5290.5,1687C 5300.21,1687.56 5309.88,1688.56 5319.5,1690C 5337.3,1693.7 5354.97,1697.87 5372.5,1702.5C 5373.67,1721.2 5375,1739.86 5376.5,1758.5C 5370.19,1759.66 5363.86,1759.83 5357.5,1759C 5348.83,1737 5333.5,1721.67 5311.5,1713C 5276.86,1700.11 5243.52,1702.78 5211.5,1721C 5189.14,1738.87 5175.3,1762.03 5170,1790.5C 5161.81,1829.88 5165.14,1868.22 5180,1905.5C 5199.8,1943.17 5230.96,1964.67 5273.5,1970C 5313.72,1973.97 5345.22,1959.47 5368,1926.5C 5372.42,1928.31 5376.75,1930.31 5381,1932.5C 5377.44,1947.86 5373.44,1963.19 5369,1978.5C 5368.5,1979 5368,1979.5 5367.5,1980C 5345.52,1984.39 5323.52,1987.56 5301.5,1989.5 Z"/></g>
<g><path style="opacity:0.978" fill="#000000" d="M 5404.5,1691.5 C 5418.85,1691.73 5433.19,1692.4 5447.5,1693.5C 5462.15,1692.37 5476.81,1691.7 5491.5,1691.5C 5491.82,1694.9 5491.49,1698.23 5490.5,1701.5C 5480.99,1703.18 5475.82,1708.85 5475,1718.5C 5474.38,1751.5 5473.88,1784.5 5473.5,1817.5C 5499.81,1818.93 5526.15,1819.93 5552.5,1820.5C 5581.18,1819.73 5609.84,1818.73 5638.5,1817.5C 5638.26,1784.47 5637.43,1751.47 5636,1718.5C 5634.4,1709.07 5628.9,1703.4 5619.5,1701.5C 5618.51,1698.23 5618.18,1694.9 5618.5,1691.5C 5633.02,1691.74 5647.52,1692.41 5662,1693.5C 5676.48,1692.41 5690.98,1691.74 5705.5,1691.5C 5705.82,1694.9 5705.49,1698.23 5704.5,1701.5C 5695.34,1703.49 5690.17,1709.16 5689,1718.5C 5687.78,1775.83 5686.94,1833.16 5686.5,1890.5C 5686.37,1912.2 5686.87,1933.87 5688,1955.5C 5689.64,1966.3 5695.81,1972.64 5706.5,1974.5C 5707.49,1977.77 5707.82,1981.1 5707.5,1984.5C 5692.83,1983.91 5678.17,1983.24 5663.5,1982.5C 5649.17,1983.2 5634.83,1983.87 5620.5,1984.5C 5620.33,1981.15 5620.5,1977.82 5621,1974.5C 5630.11,1972.72 5636.11,1967.39 5639,1958.5C 5639.96,1953.51 5640.8,1948.51 5641.5,1943.5C 5640.46,1910.54 5639.79,1877.54 5639.5,1844.5C 5610.49,1843.75 5581.49,1842.75 5552.5,1841.5C 5526.17,1842.53 5499.83,1843.53 5473.5,1844.5C 5473.02,1879.83 5472.86,1915.17 5473,1950.5C 5473.48,1958.63 5476.65,1965.46 5482.5,1971C 5485.64,1972.73 5488.97,1973.89 5492.5,1974.5C 5493.49,1977.77 5493.82,1981.1 5493.5,1984.5C 5478.83,1983.91 5464.17,1983.24 5449.5,1982.5C 5434.83,1983.24 5420.17,1983.91 5405.5,1984.5C 5405.18,1981.1 5405.51,1977.77 5406.5,1974.5C 5417.97,1972.19 5424.47,1965.19 5426,1953.5C 5427.36,1875.11 5426.03,1796.78 5422,1718.5C 5420.37,1709.04 5414.87,1703.37 5405.5,1701.5C 5404.51,1698.23 5404.18,1694.9 5404.5,1691.5 Z"/></g>
</svg>
