<svg width="230" height="28" viewBox="0 0 230 28" fill="none" xmlns="http://www.w3.org/2000/svg">
<path d="M4.89762 0.599976H0V27.4003H4.89762V0.599976Z" fill="black"/>
<path d="M30.9067 0.600098H26.0091V19.1761L12.2438 0.600098H7.34619V27.4005H12.2438V8.82448L26.0215 27.4005H30.9191L30.9067 0.600098Z" fill="black"/>
<path d="M43.7694 0.599609H33.3682V27.4H43.7694C47.319 27.4 50.7201 25.9777 53.2307 23.4671C55.7414 20.9565 57.1513 17.5554 57.1513 13.9936C57.1513 10.4441 55.729 7.0307 53.2307 4.5201C50.7201 2.02187 47.319 0.599609 43.7694 0.599609ZM51.6106 17.2463C51.1901 18.2728 50.5593 19.2127 49.7678 20.0042C48.9762 20.7957 48.0363 21.4141 47.0098 21.847C45.9832 22.2675 44.8702 22.4901 43.7571 22.4901H38.2534V5.49714H43.7571C44.8702 5.49714 45.9832 5.70738 47.0098 6.14025C48.0363 6.56074 48.9762 7.19148 49.7678 7.983C50.5593 8.77452 51.1777 9.71445 51.6106 10.741C52.0311 11.7798 52.2537 12.8805 52.2537 13.9936C52.2661 15.1067 52.0434 16.2198 51.6106 17.2463Z" fill="black"/>
<path d="M63.8799 0.600098H58.9946V27.4005H63.8923L63.8799 0.600098Z" fill="black"/>
<path d="M87.7614 0.600098H66.3281V5.49762H74.6021V27.4005H79.4998V5.49762H87.7614V0.600098Z" fill="black"/>
<path d="M108.787 22.4906H95.0957V16.4429H108.787V11.5453H95.0957V5.49762H108.787V0.600098H90.2104V27.4005H108.787V22.4906Z" fill="black"/>
<path d="M125.298 13.7591L134.017 0.600098H127.944L122.329 9.31918L116.702 0.600098H110.63L119.349 13.7715L110.395 27.4005H116.504L122.317 18.199L128.13 27.4005H134.252L125.298 13.7591Z" fill="black"/>
<path d="M158.108 0.581177V2.75786H148.734V27.4434H146.173V2.75786H136.811V0.581177H158.108Z" fill="black"/>
<path d="M178.911 0.581177V2.75786H162.92V12.4663H177.897V14.643H162.92V25.2543H179.097V27.431H160.36V0.581177H178.911Z" fill="black"/>
<path d="M204.611 8.70671H202.051C201.148 4.60071 197.759 2.20141 193.814 2.20141C186.776 2.20141 183.697 8.03887 183.697 14.0124C183.697 19.7633 186.628 25.8233 193.814 25.8233C198.476 25.8233 201.902 22.3233 202.434 17.2032H204.994C204.277 23.9806 199.948 28 193.814 28C185.465 28 181.137 21.5318 181.137 14C181.137 6.70318 185.28 0 193.814 0C199.082 0.0123675 203.93 3.25265 204.611 8.70671Z" fill="black"/>
<path d="M211.19 0.581177V12.2437H227.145V0.581177H229.705V27.4434H227.145V14.4204H211.19V27.4434H208.63V0.581177H211.19Z" fill="black"/>
</svg>
