<?xml version="1.0" encoding="UTF-8"?>
<svg id="Layer_1" xmlns="http://www.w3.org/2000/svg" version="1.1" viewBox="0 0 268 55">
  <!-- Generator: Adobe Illustrator 29.7.1, SVG Export Plug-In . SVG Version: 2.1.1 Build 8)  -->
  <defs>
    <style>
      .st0 {
        fill-rule: evenodd;
      }

      .st0, .st1 {
        fill: #fff;
      }

      .st2 {
        fill: #a0211c;
      }
    </style>
  </defs>
  <path class="st2" d="M77.5,0H0v55h77.5V0Z"/>
  <path class="st0" d="M35.8,38.5v4.6h35.9c0-.8,0-1.5-.2-2.1l-29-1.9.4-3.3,26.7-3.8c-4.6-11.9-16.1-20.4-29.8-20.4s-2.7,0-4,.2v4.4c17.9-4,26.9,11.7,20.4,13.1-3.8,1-12.5,2.1-20.4,3.1v6.2ZM35.8,38.5l-22.3-1.5s1.5-14.4,20.4-20.2c.6-.2,1.3-.4,1.9-.6v-4.4c-15.8,1.9-27.9,15.4-27.9,31.3h27.9v-4.6h0ZM35.8,32.4v6.2l-.2-2.7s-19.2-1.7-14.6-1.9c2.3,0,8.3-.8,14.8-1.5Z"/>
  <path class="st1" d="M96.3,16v4.5h3.5v3.6h-3.5v5.7c0,1.9.4,2.8,1.9,2.8s1.1,0,1.4-.1v3.7c-.6.3-1.8.4-3.1.4s-2.9-.5-3.7-1.3c-.9-.9-1.3-2.4-1.3-4.6v-6.4h-2.1v-3.6h2.1v-3.4l4.8-1.1h0Z"/>
  <path class="st1" d="M107.1,29.9c.2,2,2.1,3,4.4,3s3-.2,4.3-.6l.6,3.3c-1.6.6-3.6,1-5.7,1-5.3,0-8.4-3.1-8.4-8s2.5-8.4,7.9-8.4,7,3.9,7,7.8,0,1.6-.2,1.9h-10.1ZM112.8,26.5c0-1.2-.5-3.2-2.8-3.2s-2.9,1.9-3,3.2h5.8Z"/>
  <path class="st1" d="M132.9,35.8c-.9.4-2.5.7-4.4.7-5.1,0-8.3-3.1-8.3-8s3.1-8.3,9-8.3,2.7.2,3.7.6l-.8,3.6c-.6-.3-1.4-.5-2.7-.5-2.6,0-4.2,1.8-4.2,4.4,0,2.9,1.9,4.4,4.3,4.4s2.1-.2,2.8-.5l.6,3.6h0Z"/>
  <path class="st1" d="M136.4,13.4h4.9v8.9h0c.5-.7,1.2-1.2,1.9-1.6.7-.4,1.6-.6,2.5-.6,3.1,0,5.5,2.1,5.5,6.9v9.2h-4.9v-8.6c0-2.1-.7-3.5-2.5-3.5s-2.1.8-2.4,1.7c-.1.3-.2.7-.2,1.1v9.3h-4.9V13.4Z"/>
  <path class="st1" d="M156.1,25.5c0-2,0-3.6-.1-5h4.2l.2,2.1h0c.6-1,2.2-2.5,4.8-2.5s5.6,2.1,5.6,6.7v9.3h-4.9v-8.7c0-2-.7-3.4-2.5-3.4s-2.1.9-2.5,1.8c-.1.3-.2.8-.2,1.2v9h-4.9v-10.7h0Z"/>
  <path class="st1" d="M191.2,28.1c0,5.7-4.1,8.4-8.3,8.4s-8.1-3-8.1-8.1,3.3-8.3,8.4-8.3,8,3.3,8,8h0ZM179.9,28.3c0,2.7,1.1,4.7,3.2,4.7s3.1-1.9,3.1-4.7-.9-4.7-3.1-4.7-3.2,2.4-3.2,4.7Z"/>
  <path class="st1" d="M195,31.9c.9.5,2.8,1.2,4.2,1.2s2.1-.5,2.1-1.3-.5-1.2-2.3-1.8c-3.2-1.1-4.5-2.9-4.5-4.7,0-2.9,2.5-5.1,6.4-5.1s3.5.4,4.4.9l-.9,3.4c-.7-.4-2.1-.9-3.4-.9s-1.9.5-1.9,1.3.6,1.1,2.5,1.8c3,1,4.2,2.5,4.3,4.8,0,2.9-2.3,5.1-6.8,5.1s-3.9-.4-5.1-1.1l.9-3.5Z"/>
  <path class="st1" d="M213.5,20.5l2.3,7.7c.3.9.6,2.1.8,2.9h0c.2-.8.5-2,.7-2.9l1.9-7.7h5.2l-3.7,10.3c-2.2,6.2-3.7,8.7-5.5,10.3-1.7,1.5-3.5,2-4.7,2.1l-1-4.1c.6,0,1.4-.4,2.1-.8.7-.4,1.5-1.2,2-2,.2-.2.3-.5.3-.7s0-.4-.2-.8l-5.7-14.3h5.4,0Z"/>
  <path class="st1" d="M227.5,13.4h4.9v22.8h-4.9V13.4Z"/>
  <path class="st1" d="M240.7,20.5l2.1,7.3c.4,1.3.7,2.6.9,3.8h0c.3-1.3.5-2.5.9-3.8l2-7.3h5.1l-5.8,15.7h-4.9l-5.7-15.7h5.3Z"/>
  <path class="st1" d="M263.7,36.2l-.3-1.6h0c-1,1.2-2.6,1.9-4.5,1.9-3.2,0-5.1-2.3-5.1-4.8,0-4.1,3.6-6,9.2-6v-.2c0-.8-.4-2-2.9-2s-3.3.5-4.3,1.2l-.9-3.1c1.1-.6,3.2-1.4,6.1-1.4,5.2,0,6.9,3.1,6.9,6.8v5.4c0,1.5,0,2.9.2,3.8h-4.4ZM263.1,28.7c-2.6,0-4.6.6-4.6,2.5s.8,1.9,1.9,1.9,2.2-.8,2.5-1.8c0-.3,0-.5,0-.8v-1.7Z"/>
</svg>
