<svg xmlns="http://www.w3.org/2000/svg" width="309" height="108" fill="none"><path fill="url(#a)" d="M9.926 49h-6.75l12.29-34.91h7.807L35.58 49h-6.75l-9.324-27.75h-.273zm.222-13.687h18.409v5.079h-18.41zM40.178 49V14.09H46.5V43.7h15.375V49zm27.187-34.91h7.739l10.363 25.296h.41L96.24 14.091h7.739V49h-6.068V25.017h-.324l-9.648 23.88h-4.534l-9.648-23.931h-.324V49h-6.068zm43.5 34.91V14.09h22.705v5.302h-16.381v9.477h15.204v5.301h-15.204V43.7h16.517V49zm29.156 0V14.09h13.091q4.023 0 6.75 1.399 2.745 1.397 4.142 3.92 1.415 2.506 1.415 5.847 0 3.357-1.432 5.83-1.415 2.454-4.176 3.8-2.761 1.33-6.784 1.33h-9.324v-5.25h8.472q2.352 0 3.852-.648 1.5-.665 2.216-1.926.733-1.278.733-3.136t-.733-3.17q-.733-1.33-2.233-2.012-1.5-.699-3.869-.699h-5.796V49zm18.034-15.818L166.697 49h-7.056l-8.489-15.818zm19.509-19.091V49h-6.324V14.09zM188.895 49h-6.75l12.29-34.91h7.806L214.548 49h-6.75l-9.324-27.75h-.272zm.221-13.687h18.41v5.079h-18.41z"/><path fill="#3D3737" d="M3.182 57.653v-8.835h46.42v8.835H31.62V107H21.165V57.653zM58.552 107V48.818h37.84v8.835H69.091V73.45h25.34v8.835h-25.34v15.88h27.528V107zm98.394-38.551h-10.625q-.455-2.614-1.676-4.63a12.5 12.5 0 0 0-3.04-3.467q-1.818-1.42-4.148-2.13-2.301-.74-4.971-.739-4.745 0-8.409 2.386-3.665 2.358-5.739 6.932-2.074 4.545-2.074 11.108 0 6.675 2.074 11.25 2.102 4.545 5.739 6.875 3.664 2.301 8.38 2.301 2.615 0 4.887-.682 2.301-.71 4.119-2.074a12.2 12.2 0 0 0 3.097-3.352q1.278-1.988 1.761-4.545l10.625.057a22.9 22.9 0 0 1-2.585 7.784 23 23 0 0 1-5.142 6.42q-3.182 2.756-7.443 4.318-4.262 1.534-9.461 1.534-7.67 0-13.693-3.551t-9.488-10.255-3.466-16.08q0-9.404 3.494-16.08 3.494-6.705 9.517-10.255t13.636-3.551q4.858 0 9.034 1.363 4.177 1.365 7.444 4.006 3.267 2.614 5.369 6.42 2.13 3.78 2.784 8.637M166.598 107V48.818h10.54v24.63h26.96v-24.63h10.568V107h-10.568V82.284h-26.96V107z"/><path fill="url(#b)" d="M249.701 18.776h-4.286c-1.441 0-2.608 1.126-2.608 2.515s1.167 2.515 2.608 2.515h4.286v6.828h-4.286c-1.441 0-2.608 1.126-2.608 2.515s1.167 2.516 2.608 2.516h4.286v17.608h-7.919v-8.265c0-5.251-4.43-9.523-9.876-9.523s-9.875 4.272-9.875 9.523v3.414h-2.422c-1.441 0-2.609 1.126-2.609 2.515s1.168 2.516 2.609 2.516h2.422v6.827h-2.422c-1.441 0-2.609 1.126-2.609 2.515s1.168 2.516 2.609 2.516h2.937c1.898 7.418 8.853 12.936 17.124 12.936h6.956V104.3c0 1.984 1.669 3.593 3.727 3.593h24.596c2.058 0 3.726-1.609 3.726-3.593V66.39h6.739c8.314 0 15.318-5.508 17.298-12.937h2.981c1.441 0 2.609-1.126 2.609-2.515s-1.168-2.516-2.609-2.516h-2.422v-6.827h2.422c1.441 0 2.609-1.126 2.609-2.516 0-1.389-1.168-2.515-2.609-2.515h-2.422V33.15c0-5.25-4.43-9.522-9.876-9.522s-9.875 4.272-9.875 9.522v8.265h-7.919V23.807h4.658c1.441 0 2.609-1.126 2.609-2.515s-1.168-2.516-2.609-2.516h-4.658c0-2.137-.561-4.6-1.546-6.36l2.677-2.582a2.45 2.45 0 0 0 0-3.557 2.68 2.68 0 0 0-3.69 0l-2.354 2.27a13.1 13.1 0 0 0-5.428-2.452v-3.58c0-1.389-1.168-2.515-2.609-2.515-1.44 0-2.608 1.126-2.608 2.515v3.579a13.1 13.1 0 0 0-5.429 2.452l-2.354-2.27a2.68 2.68 0 0 0-3.689 0 2.45 2.45 0 0 0 0 3.558l2.677 2.581c-.987 1.761-1.547 4.224-1.547 6.36m46.117 30.395c0 5.531-4.667 10.032-10.404 10.032h-10.465c-2.058 0-3.727 1.609-3.727 3.593v37.911H254.08V74.655c0-1.985-1.669-3.594-3.727-3.594H239.67c-5.616 0-10.186-4.406-10.186-9.822v-16.23c0-1.288 1.087-2.336 2.423-2.336s2.422 1.047 2.422 2.335v11.86c0 1.984 1.669 3.593 3.727 3.593h15.372c2.058 0 3.727-1.61 3.727-3.594v-38.54c0-2.923 2.466-5.3 5.496-5.3s5.497 2.378 5.497 5.3v26.681c0 1.985 1.668 3.594 3.727 3.594h15.372c2.058 0 3.726-1.61 3.726-3.594V33.15c0-1.288 1.087-2.336 2.423-2.336s2.422 1.047 2.422 2.336z"/><defs><linearGradient id="a" x1="116.5" x2="116.5" y1="3" y2="81" gradientUnits="userSpaceOnUse"><stop offset=".345" stop-color="#7CBF39"/><stop offset="1" stop-color="#080E01"/></linearGradient><linearGradient id="b" x1="262.651" x2="262.651" y1="0" y2="107.893" gradientUnits="userSpaceOnUse"><stop offset=".39" stop-color="#86CE3E"/><stop offset=".62" stop-color="#5A8D27"/><stop offset="1" stop-color="#112201"/></linearGradient></defs></svg>