<svg xmlns="http://www.w3.org/2000/svg" xml:space="preserve" width="400" height="163.175"><defs><clipPath id="a" clipPathUnits="userSpaceOnUse"><path d="M0 122.381h300V0H0Z"/></clipPath></defs><g clip-path="url(#a)" transform="matrix(1.33333 0 0 -1.33333 0 163.175)"><path d="M0 0v9.716h-25.778v3.247h38.674c7.485 0 10.278 5.205 12.878 12.968 2.708 8.011 2.582 15.689 0 25.954-1.844 7.395-5.375 12.968-12.878 12.968H3.212V53.518c0-8.803-7.517-16.216-16.113-16.216h-25.773c-7.062 0-12.896-5.978-12.896-12.985V0c0-6.941 6.077-11.002 12.896-12.986 8.168-2.37 16.008-2.793 25.773 0C-6.396-11.106 0-7.381 0 0m-16.112-1.619c0 2.672 2.159 4.849 4.831 4.849S-6.45 1.053-6.45-1.619c0-2.686-2.159-4.885-4.831-4.885s-4.831 2.199-4.831 4.885" style="fill:#ffcc12;fill-opacity:1;fill-rule:nonzero;stroke:none" transform="translate(83.606 24.592)"/><path d="M0 0v-9.734h25.792v-3.247H-9.666c-7.503 0-14.075-4.467-16.112-12.968-2.371-9.734-2.474-15.779 0-25.954 1.83-7.552 6.184-12.968 13.687-12.968h8.857v11.668c0 8.452 7.381 15.901 16.13 15.901H38.67c7.17 0 12.9 5.852 12.9 12.986V0c0 6.923-5.906 12.14-12.9 13.301-8.852 1.462-18.361 1.3-25.774 0C1.984 11.389 0 7.381 0 0m6.446 1.619c0 2.686 2.163 4.867 4.835 4.867 2.668 0 4.831-2.181 4.831-4.867 0-2.689-2.163-4.867-4.831-4.867-2.672 0-4.835 2.178-4.835 4.867" style="fill:#e60000;fill-opacity:1;fill-rule:nonzero;stroke:none" transform="translate(32.036 102.426)"/><path d="m0 0-1.597-3.248h-16.13v-13.777h13.391l-1.655-3.18h-11.736v-16.832h17.34v-3.198h-21.928l-.067 40.186zm13.125-40.991c-1.614 0-3.198.279-4.741.859a15.7 15.7 0 0 0-4.183 2.267l1.669 2.672c.967-.719 2.11-1.3 3.41-1.759q1.948-.655 3.796-.737c.756 0 1.543.108 2.316.301.792.194 1.512.472 2.146.859.63.387 1.161.877 1.561 1.494.405.616.58 1.372.549 2.267 0 .683-.162 1.246-.459 1.723a4.2 4.2 0 0 1-1.107 1.178 8 8 0 0 1-1.511.823c-.544.248-1.07.459-1.583.67-.419.176-.859.351-1.282.509-.423.175-.859.333-1.336.458-.859.333-1.705.666-2.582 1.017a8.4 8.4 0 0 0-2.389 1.408c-.773.544-1.407 1.246-1.916 2.073-.508.824-.755 1.894-.755 3.212s.265 2.497.827 3.536a7.8 7.8 0 0 0 2.195 2.617c.913.702 1.952 1.228 3.126 1.597a12.4 12.4 0 0 0 3.603.545c1.44 0 2.83-.23 4.166-.648a20.5 20.5 0 0 0 3.935-1.723l-1.722-2.744c-2.056 1.161-4.094 1.777-6.131 1.862a7.8 7.8 0 0 1-2.006-.26 6.3 6.3 0 0 1-1.809-.792 4.6 4.6 0 0 1-1.354-1.372c-.332-.562-.508-1.21-.508-1.984 0-.809.23-1.439.666-1.916.459-.454 1.039-.859 1.759-1.21a41 41 0 0 1 2.424-1.039c.895-.369 1.795-.72 2.672-1.052.859-.351 1.723-.702 2.582-1.058a9.8 9.8 0 0 0 2.406-1.439 7.7 7.7 0 0 0 1.898-2.195c.509-.877.774-1.952.774-3.216 0-1.493-.333-2.793-.985-3.9a8.8 8.8 0 0 0-2.582-2.744 11.8 11.8 0 0 0-3.585-1.614 14.6 14.6 0 0 0-3.954-.545m28.959 3.446c1.529.085 2.757.49 3.67 1.21a6.85 6.85 0 0 1 2.074 2.708c.459 1.088.773 2.249.913 3.513.158 1.245.229 2.46.229 3.652 0 1.16-.071 2.393-.229 3.742a14.4 14.4 0 0 1-.895 3.761 7.6 7.6 0 0 1-1.966 2.937c-.881.774-2.042 1.21-3.481 1.3a14.4 14.4 0 0 1-2.776-.157 12.5 12.5 0 0 1-2.352-.617c-.706-.247-1.268-.508-1.723-.791-.441-.279-.755-.491-.931-.666v-18.168c.387-.265.859-.531 1.403-.845a23 23 0 0 1 1.827-.824 13 13 0 0 1 2.073-.598q1.085-.237 2.164-.157m1.143 25.882c1.916.049 3.566-.338 4.952-1.143 1.372-.81 2.514-1.916 3.445-3.324.913-1.403 1.579-3.023 2.038-4.849.441-1.826.666-3.76.666-5.798 0-1.79-.225-3.513-.666-5.164-.459-1.65-1.143-3.148-2.074-4.462a11.1 11.1 0 0 0-3.513-3.184c-1.408-.805-3.058-1.228-4.974-1.282-1.561 0-3.037.229-4.391.67a19.2 19.2 0 0 0-4.025 1.88v-16.517l-4.584 1.669.049 36.65s.248.248.707.738c.472.495 1.228 1.039 2.267 1.655 1.034.63 2.388 1.192 4.021 1.705 1.633.508 3.639.769 6.027.823zm34.364-23.651v9.558h-2.739q-1.66 0-3.373-.054c-1.79 0-3.27-.49-4.462-1.439q-1.795-1.452-1.795-4.111c0-.81.162-1.584.477-2.339a6.5 6.5 0 0 1 1.354-1.966c.562-.58 1.227-1.039 2.001-1.408s1.615-.544 2.546-.544c1.372-.036 2.6.211 3.711.774 1.107.544 1.862 1.052 2.28 1.529m4.534-.652c-1.353-1.354-3.089-2.497-5.199-3.428-2.11-.945-4.552-1.385-7.363-1.349a9.6 9.6 0 0 0-3.568.805c-1.106.495-2.073 1.142-2.896 1.97a9.1 9.1 0 0 0-1.952 2.897q-.709 1.66-.635 3.585c0 1.354.248 2.582.756 3.657a8.2 8.2 0 0 0 2.074 2.739 8.6 8.6 0 0 0 3.04 1.687c1.143.387 2.389.58 3.761.58h7.574v2.739c0 .81-.157 1.548-.512 2.2a5.05 5.05 0 0 1-1.332 1.687 5.7 5.7 0 0 1-1.934 1.088 6.9 6.9 0 0 1-2.267.387c-1.408 0-2.672-.175-3.796-.508-1.125-.338-2.303-.828-3.531-1.48l-1.161 2.69c1.651.895 3.216 1.511 4.656 1.88 1.444.351 3.13.544 5.042.544 1.143 0 2.285-.193 3.41-.58a9.9 9.9 0 0 0 2.968-1.615c.846-.702 1.53-1.565 2.074-2.582.531-1.021.791-2.181.791-3.445zM96.218-5.798c-.931 0-1.687-.175-2.267-.508s-1.196-.792-1.88-1.336L90.348-5.29c1.057 1.075 2.128 1.849 3.198 2.357 1.057.509 2.357.774 3.882.774.724 0 1.354-.108 1.916-.319a14 14 0 0 0 1.62-.738c.544-.279 1.07-.526 1.632-.738.544-.211 1.197-.315 1.917-.315.931 0 1.686.176 2.249.509.58.35 1.209.791 1.898 1.336l1.718-2.353c-1.071-1.057-2.123-1.844-3.198-2.357-1.053-.508-2.353-.774-3.882-.774-.72 0-1.372.108-1.916.32-.563.211-1.089.454-1.633.738-.526.278-1.07.526-1.615.737a5.2 5.2 0 0 1-1.844.315zm15.181-34.437h-4.656v19.013c0 2.159-.652 3.81-1.916 4.935-1.282 1.124-2.932 1.668-4.97 1.632a11 11 0 0 1-3.553-.737c-1.125-.455-2.038-.931-2.758-1.44v-23.403h-4.655v23.984a51 51 0 0 0 3.463 2.267c1.125.647 2.443 1.178 3.936 1.565 1.138.333 2.456.594 3.967.787s3.095.09 4.764-.279a9.6 9.6 0 0 0 4.462-2.339c1.264-1.16 1.916-2.703 1.916-4.619zm23.07 4.921v9.558h-2.739q-1.666 0-3.373-.054c-1.795 0-3.27-.49-4.467-1.439q-1.789-1.452-1.79-4.111c0-.81.157-1.584.472-2.339a6.6 6.6 0 0 1 1.354-1.966c.562-.58 1.232-1.039 2.002-1.408.755-.369 1.619-.544 2.55-.544 1.372-.036 2.6.211 3.706.774 1.089.544 1.863 1.052 2.285 1.529m4.534-.652c-1.371-1.354-3.094-2.497-5.204-3.428-2.105-.945-4.547-1.385-7.358-1.349a9.6 9.6 0 0 0-3.568.805c-1.106.495-2.073 1.142-2.901 1.97a9.1 9.1 0 0 0-1.947 2.897q-.716 1.66-.635 3.585c0 1.354.248 2.582.756 3.657a8.1 8.1 0 0 0 2.074 2.739 8.6 8.6 0 0 0 3.04 1.687c1.143.387 2.389.58 3.761.58h7.57v2.739c0 .81-.157 1.548-.49 2.2a5.4 5.4 0 0 1-1.354 1.687 5.7 5.7 0 0 1-1.934 1.088 6.9 6.9 0 0 1-2.268.387c-1.403 0-2.667-.175-3.791-.508-1.125-.338-2.303-.828-3.549-1.48l-1.143 2.69c1.651.895 3.216 1.511 4.656 1.88 1.439.351 3.126.544 5.042.544 1.143 0 2.285-.193 3.41-.58a9.9 9.9 0 0 0 2.968-1.615 8.6 8.6 0 0 0 2.074-2.582c.526-1.021.791-2.181.791-3.445z" style="fill:#ababab;fill-opacity:1;fill-rule:nonzero;stroke:none" transform="translate(156.556 59.133)"/><path d="M0 0q0 1.397-.58 2.739a7.8 7.8 0 0 1-1.561 2.375 7.9 7.9 0 0 1-2.285 1.615 6.7 6.7 0 0 1-2.847.616h-7.449V-7.588h7.327c2.213 0 3.985.701 5.357 2.105C-.684-4.075 0-2.249 0 0m-14.722-10.768v-18.82h-4.656v40.235h8.538c1.493 0 2.865.018 4.147.072 1.615 0 3.108-.284 4.498-.864C-.823 9.279.387 8.506 1.408 7.539a11.3 11.3 0 0 0 2.424-3.428c.581-1.282.877-2.703.877-4.232s-.265-2.956-.827-4.238c-.544-1.3-1.3-2.424-2.263-3.391C.67-8.699-.454-9.437-1.754-9.981c-1.305-.526-2.708-.787-4.238-.787zm29.201-9.703c0-2.159.666-3.792 2.038-4.867 1.354-1.088 3.077-1.614 5.164-1.56 1.232.031 2.478.332 3.76.895 1.268.544 2.285 1.07 3.059 1.578v22.774h4.655V-26.97c0-.81-.018-1.705-.067-2.672a43 43 0 0 0-.212-2.933 33 33 0 0 0-.459-2.811c-.193-.895-.454-1.651-.791-2.303a9 9 0 0 0-2.492-2.866 14.9 14.9 0 0 0-3.5-1.965 21 21 0 0 0-3.917-1.125c-1.35-.229-2.618-.369-3.792-.404l-.774 2.932c.895.126 1.862.266 2.897.441 1.039.176 2.055.423 3.022.738.986.315 1.899.755 2.726 1.3a5.84 5.84 0 0 1 1.93 2.163q.399.653.58 1.597c.122.652.23 1.3.284 1.988.067.666.103 1.35.139 2.002.018.665.018 1.246.018 1.754 0 .337.018.549.036.598.032.072.018.266-.036.617-.72-.351-1.88-.792-3.5-1.336-1.614-.563-3.773-.842-6.499-.842-1.071 0-2.123.194-3.198.545a9.8 9.8 0 0 0-2.897 1.596 8.4 8.4 0 0 0-2.11 2.582c-.526 1.022-.791 2.164-.791 3.446v19.382l4.727 1.597V-20.52ZM41.697-4.656h-3.18v3.005h3.18v7.782l4.655 1.655v-9.437h5.236v-3.005h-5.236v-18.167c0-1.862.473-3.095 1.404-3.689.931-.598 2.217-.949 3.832-1.039v-2.406c-3.108-.302-5.537.193-7.273 1.457-1.741 1.282-2.618 3.126-2.618 5.551zM81.23-29.588h-4.727v17.992c0 .81-.104 1.615-.315 2.46a7.6 7.6 0 0 1-.949 2.213A5.1 5.1 0 0 1 73.57-5.29q-1.006.634-2.411.634a8.8 8.8 0 0 1-4.214-1.052 36 36 0 0 1-3.761-2.321v-21.559h-4.655v42.979l4.655 1.475V-4.709a18 18 0 0 0 4.498 2.388c1.602.562 3.338.864 5.254.864 1.228 0 2.37-.23 3.391-.671a7.6 7.6 0 0 0 2.6-1.862 8.5 8.5 0 0 0 1.705-2.757 9.5 9.5 0 0 0 .598-3.392zm10.719 14.479c0-1.354.104-2.744.351-4.165.225-1.44.648-2.726 1.228-3.9a8.9 8.9 0 0 1 2.407-2.937c.985-.787 2.23-1.174 3.724-1.174 1.619.049 2.919.436 3.922 1.21a7.65 7.65 0 0 1 2.317 2.937c.562 1.192.931 2.474 1.124 3.882.194 1.403.284 2.793.284 4.147 0 1.282-.126 2.546-.387 3.792-.248 1.25-.671 2.411-1.269 3.445a7.7 7.7 0 0 1-2.388 2.582c-.999.688-2.249 1.057-3.725 1.143-1.614-.086-2.914-.455-3.899-1.143a7.37 7.37 0 0 1-2.321-2.582c-.581-1.034-.967-2.195-1.161-3.445a27 27 0 0 1-.279-3.792zm-5.114 0c0 1.88.297 3.652.859 5.357a13.6 13.6 0 0 0 2.533 4.498 12.7 12.7 0 0 0 4.003 3.126c1.583.774 3.373 1.179 5.361 1.179 2.002 0 3.797-.405 5.393-1.179 1.602-.787 2.933-1.826 4.008-3.126 1.089-1.3 1.93-2.793 2.528-4.498s.895-3.477.895-5.357c0-1.916-.278-3.778-.805-5.573-.526-1.808-1.318-3.405-2.393-4.813-1.052-1.403-2.388-2.528-4.021-3.392-1.601-.841-3.495-1.263-5.659-1.263-2.176 0-4.039.422-5.622 1.263a12.5 12.5 0 0 0-3.954 3.392 14.5 14.5 0 0 0-2.352 4.813 20.2 20.2 0 0 0-.774 5.573m54.449-14.479h-4.638v19.008c0 2.164-.647 3.815-1.916 4.939-1.282 1.125-2.932 1.669-4.97 1.633a10.9 10.9 0 0 1-3.549-.738c-1.124-.436-2.056-.931-2.775-1.439v-23.403h-4.642v23.983a50 50 0 0 0 3.463 2.267c1.125.648 2.443 1.179 3.918 1.566 1.161.333 2.478.593 3.99.787 1.511.193 3.09.09 4.759-.279a9.7 9.7 0 0 0 4.462-2.339c1.268-1.161 1.898-2.703 1.898-4.619z" style="fill:#ababab;fill-opacity:1;fill-rule:nonzero;stroke:none" transform="translate(153.587 103.218)"/></g></svg>