<svg xmlns="http://www.w3.org/2000/svg" width="194.384" height="400"><g style="display:inline"><path d="M306.115 236.473c-2.593.364-10.261 4.067-13.364 5.976-5.411 3.329-5.753 3.436-8.259 2.541-2.337-.834-3.033-.74-6.517.87-2.143.991-6.26 3.887-9.153 6.448-3.759 3.327-5.857 4.338-7.34 4.658-2.425.524-6.374.393-5.577 6.588.867 6.733 2.61 5.318 5.953 5.318 2.452 0 3.448 1.586 3.788 6.07.165 2.174.698 8.31 1.177 13.623.86 9.541.854 9.704-.965 13.74-3.206 7.113-4.58 13.314-3.741 16.964 1.174 5.106-.417 8.633-10.094 22.423-4.81 6.855-7.535 12.144-8.917 17.27-.58 2.152-2.24 6.456-3.694 9.576-3.607 7.739-3.896 10.528-2.07 20.94 1.736 9.902 1.923 10.323 5.646 13.858 1.484 1.408 2.683 2.985 2.683 3.506s1.02 1.685 2.258 2.588c3.024 2.206 3.606 5.503 1.647 9.293-.826 1.599-2.082 4.901-2.8 7.341-.717 2.44-1.936 4.854-2.705 5.388-1.882 1.306-1.769 2.128.611 4.306 1.34 1.225 1.7 2.41 1.6 3.035l47.222-2.917c-.044-2.586-6.896-5.428-9.576-4.588-1.806.565-1.764.426 1.223-4.47 1.417-2.324 2.804-5.554 3.082-7.177s1.286-3.85 2.235-4.964c1.87-2.193 3.382-6.71 3.389-10.07.002-1.158-.85-4.58-1.906-7.6-1.399-4-1.782-6.215-1.412-8.165.575-3.022 6.996-9.921 9.059-11.01.745-.395 4.314-4.275 5.858-7.247 1.544-2.973 3.829-5.731 4.4-6.377.57-.645 3.294-6.059 3.294-6.917.113-1.719 3.457-6.304 3.482-10.14.47-2.306 2.62-15.253 7.082-14.07 4.329-2.103 10.143-6.722 11.317-7.789 1.824-.817 9.897-5.03 9.717-9.529-.566-14.194-.973-38.051-2.47-46.633-.432-.436-1.53-.177-2.424-.258-1.48 0-2.964 1.524-4.54 4.635-.843 1.662-.855 2.576-.095 5.082 1.103 3.632.016 11.783-1.553 14.823-1.517 2.94-4.263 6.413-10.493 8.117-3.062.837-5.659 1.506-5.765 1.506s-1.09-1.416-2.211-3.153-2.793-3.99-3.718-5.012c-2.274-2.512-4.612-9.65-5.223-15.975-.377-3.907-1.066-6.056-2.73-8.659-3.343-5.232-3.531-8.015-.8-11.105 1.231-1.392 2.967-3.957 3.86-5.694 1.03-2.007 4.875-5.316 4.94-8.353.048-2.74-3.126-8.782-5.411-8.61m-22.987 10.752a3.58 3.58 0 0 1 3.576 3.577 3.58 3.58 0 0 1-3.576 3.576c-1.971 0-3.553-1.605-3.553-3.576 0-1.97 1.582-3.577 3.553-3.577m11.105 51.904-1.435 1.576c-1.433 1.59-5.718 2.26-5.718.894 0-.983.733-1.308 4.165-1.929zm-33.41 78.655c1.439.11 3.985.957 5.694 1.718 2.778 1.236 4.488 3.322 1.93 2.353-.609-.23-4.085-1.144-4.33-.753-.72 1.15-2.285.813-3.765-.8-1.034-1.128-1.163-1.716-.517-2.353.16-.16.508-.201.988-.165z" style="fill:#376a94;fill-opacity:.94117647" transform="translate(-225.06 -145.254)"/></g><g style="display:inline"><path d="M345.423 278.224c-.78-7.654-.882-9.313-1.528-11.318-.016-.415.111-.753 1.211-.373 9.517 3.288 22.09 2.59 29.576-.085.964-.344.044 3.98.08 5.843-1.294 9.376-1.988 29.57-1.58 35.38.496 7.078 1.592 8.734 5.782 8.734 3.132 0 4.949 1.846 6.595 6.7 1.65 4.862 1.19 6.287-3.261 10.13-6.3 5.438-6.757 7.677-6.107 29.848 1.137 38.768 3.149 60.492 6.144 66.334 1.606 3.133 6.064 6.584 9.159 7.09 5.773.944 7.385 1.31 8.606 1.948 1.55.81 3.743 10.734 2.607 12.103C376.19 442.87 225.06 452.6 225.06 452.6l.004-8.216c0 .024 1.16-1.015 14.115-2.206 4.525-.416 8.432-.861 11.64-1.24 4.9-.366 32.903-2.605 52.732-2.99 3.137-.211 8.917-.744 12.845-1.185 9.509-1.066 13.914-2.81 18.258-7.226 4.592-4.668 6.692-10.668 9.252-26.43 1.376-8.471 3.74-58.698 3.059-64.972l-.008-21.633" style="fill:#ffbc29;fill-opacity:.94117647;display:inline" transform="translate(-225.06 -145.254)"/></g><g style="display:inline"><path d="M513.766 128.815c-9.37.043-18.317.843-26.19 2.236-23.192 4.097-27.403 12.673-27.403 28.489v20.887h54.806v6.963h-75.374c-15.928 0-29.876 9.574-34.238 27.786-5.032 20.876-5.255 33.903 0 55.7 3.896 16.226 13.2 27.787 29.128 27.787h18.843v-25.04c0-18.09 15.652-34.046 34.238-34.046h54.742c15.239 0 27.404-12.547 27.404-27.85V159.54c0-14.853-12.53-26.01-27.404-28.49-9.414-1.567-19.183-2.279-28.552-2.235m-29.64 16.8c5.662 0 10.285 4.698 10.285 10.475 0 5.757-4.623 10.412-10.284 10.412-5.682 0-10.284-4.655-10.284-10.412 0-5.777 4.602-10.475 10.284-10.475" style="fill:#376a94;fill-opacity:.94117647" transform="matrix(.52673 0 0 .52673 -136.785 -67.85)"/><path d="M576.556 187.39v24.337c0 18.868-15.996 34.749-34.238 34.749h-54.742c-14.995 0-27.403 12.833-27.403 27.85v52.187c0 14.853 12.916 23.59 27.403 27.85 17.349 5.102 33.985 6.024 54.742 0 13.798-3.994 27.404-12.034 27.404-27.85v-20.887h-54.743v-6.963h82.146c15.928 0 21.863-11.11 27.403-27.786 5.722-17.168 5.478-33.678 0-55.7-3.937-15.857-11.455-27.787-27.403-27.787zm-30.788 132.16c5.681 0 10.284 4.656 10.284 10.413 0 5.777-4.603 10.475-10.284 10.475-5.661 0-10.284-4.698-10.284-10.475 0-5.757 4.623-10.412 10.284-10.412" style="fill:#ffbc29;fill-opacity:.94117647" transform="matrix(.52673 0 0 .52673 -136.785 -67.85)"/></g><g style="display:inline"><g style="display:inline"><path d="M569.13 760.726c-19.025 0-31.544 15.91-28.094 35.719 1.826 10.484 8.407 18.21 18.594 21.843 8.412 3.001 20.035.846 26.062-4.812l2.25-2.094v7.344h12v-57h-12v7.375l-2.75-2.625c-3.987-3.82-9.358-5.75-16.062-5.75m1.75 12.469c2.983.014 6.06.869 9 2.656 9.222 5.608 9.093 23.228-.219 28.906-3.39 2.067-12.353 2.619-16.219 1-5.083-2.128-9.5-9.023-9.5-14.844 0-10.484 7.989-17.761 16.938-17.718M653.942 742.726v24.186999999999998l-2.875-2.437c-8.84-7.439-25.103-5.71-34.468 3.656-5.927 5.927-8.157 11.863-8.157 21.656 0 7.557.37 9.258 3.032 14.47 3.197 6.258 9.976 12.36 15.843 14.25 4.323 1.391 12.64 1.441 16.719.093 1.87-.618 5.094-2.423 7.156-4.031l3.75-2.938v7.094h13v-76h-14m-15.5 29.937c3.124.001 6.255.759 8.594 2.313 4.09 2.717 7.906 9.835 7.906 14.75s-3.817 12.032-7.906 14.75c-4.677 3.108-12.533 3.104-17.094 0-5.934-4.039-7.5-7.102-7.5-14.75s1.566-10.711 7.5-14.75c2.28-1.552 5.377-2.314 8.5-2.313M778.942 742.726v11.5c0 11.237-.53 13-2.968 10.062-2.201-2.651-10.89-4.866-17-4.312-14.424 1.308-24.708 12.407-25.813 27.844-1.002 14.007 6.612 26.102 19.281 30.656 4.014 1.443 12.398 1.512 16.594.125 1.87-.618 5.094-2.423 7.156-4.031l3.75-2.938v7.094h13v-76h-14m-15.5 29.937c3.124.001 6.255.759 8.594 2.313 4.09 2.717 7.906 9.835 7.906 14.75s-3.817 12.032-7.906 14.75c-4.677 3.108-12.533 3.104-17.094 0-5.934-4.039-7.5-7.102-7.5-14.75s1.566-10.711 7.5-14.75c2.28-1.552 5.377-2.314 8.5-2.313M451.942 780.726v-38l9.75.012 9.75.011 10.078 28.601 10.078 28.601 9.969-28.362 9.969-28.363 9.703-.286 9.703-.287v76.07300000000001h-13.968l-.266-27.535-.266-27.535-9.5 27.285-9.5 27.285h-11.838000000000001l-9.581-27.5-9.58-27.5-.267 27.75-.265 27.75h-13.969000000000001zM677.942 790.226v-28.5h6.5c5.926 0 6.5.185 6.5 2.089 0 2.01.116 1.991 3.077-.5 1.999-1.682 4.276-2.59 6.5-2.59h3.423v12.777999999999999l-3.44.646c-2.065.387-4.462 1.86-6 3.688-2.55 3.03-2.56 3.121-2.56 21.966v18.923h-14zM710.942 790.226v-28.5h13v57h-13zM710.942 749.226v-6.5h13v13h-13z" style="fill:#000;fill-opacity:.83529412" transform="translate(-152.049 45.84)scale(.43209)"/></g><text xml:space="preserve" x="141.978" y="319.538" style="font-size:30.11625862px;font-style:normal;font-weight:400;line-height:125%;letter-spacing:0;word-spacing:0;fill:#000;fill-opacity:1;stroke:none;display:inline;font-family:Sans"><tspan x="141.978" y="319.538" style="font-size:9.03487682px;fill:#000;fill-opacity:1">TM</tspan></text></g><g style="display:inline"><path d="M134.942 836.837c0-.49 2.265-5.971 5.032-12.182l5.032-11.293-10.034-25.068c-5.519-13.787-10.033-25.406-10.032-25.818s3.34-.75 7.42-.75h7.416l5.708 17.25c3.14 9.487 6.036 17.612 6.437 18.054.4.442 3.776-7.32 7.501-17.25l6.773-18.054h7.373c4.056 0 7.374.333 7.374.74s-7.264 17.507-16.144 38l-16.144 37.26h-6.856c-3.77 0-6.856-.4-6.856-.89" style="fill:#376a94;fill-opacity:.94117647" transform="translate(-29.788 -29.331)scale(.46813)"/><path d="M307.38 761.132c-7.807.283-15.437 3.666-20.906 9.75-5.567 6.191-7.873 12.914-7.344 21.219.836 13.125 9.854 23.489 22.812 26.187 6.896 1.437 12.072.867 18.657-2.062 9.997-4.446 17.343-15.466 17.343-26 0-10.449-7.017-21.395-16.75-26.156a29 29 0 0 0-13.812-2.938m-.313 11.969c3.933-.16 8.15.681 10.657 2.469 10.001 7.133 9.25 23.845-1.344 29.875-9.606 5.466-21.16.475-23.906-10.344-2.06-8.113.268-14.903 6.843-19.813 1.788-1.334 4.691-2.062 7.75-2.187" style="fill:#ffbc29;fill-opacity:.94117647" transform="translate(-29.788 -29.331)scale(.46813)"/><path d="M72.942 742.476v76.25h14v-28.719l9.375-.531c10.725-.64 16.082-2.807 19.938-8 6.837-9.21 6.32-23.709-1.125-31.375-5.645-5.812-8.777-6.655-26.438-7.156zm14 13.25 3.25.062c12.202.224 16.775 3.053 16.719 10.313-.034 4.406-1.237 6.63-4.469 8.344-1.1.583-5.037 1.385-8.75 1.78l-6.75.72v-21.219M190.711 796.476l-.269-22.25-3.25-.313-3.25-.314v-11.873000000000001h7v-19h13v19h8v12h-8v45h-12.961z" style="fill:#376a94;fill-opacity:.94117647" transform="translate(-29.788 -29.331)scale(.46813)"/><path d="M219.942 780.726v-37h12v11c0 6.05.285 11 .632 11s2.117-.918 3.931-2.039c7.62-4.71 19.999-3.104 26.316 3.414 5.143 5.306 6.121 10.387 6.121 31.784v18.84h-13v-18.031c0-24.078-1.223-26.968-11.418-26.968-3.555 0-5.22.602-7.613 2.75-3.82 3.43-4.92 9.872-4.949 29l-.02 13.25h-12zM346.942 789.726v-28h5.5c5.445 0 5.5.03 5.5 3 0 3.638.394 3.688 4.151.526 8.93-7.513 24.65-4.827 30.556 5.222 2.787 4.74 2.794 4.801 3.114 26.002l.322 21.25h-13.142l-.003-18.25c0-15.372-.277-18.802-1.75-21.75-2.094-4.192-7.08-5.903-12.902-4.426-7.448 1.887-9.11 7.487-9.262 31.176l-.084 13.25h-12z" style="fill:#ffbc29;fill-opacity:.94117647" transform="translate(-29.788 -29.331)scale(.46813)"/></g></svg>