<svg xmlns="http://www.w3.org/2000/svg" id="Layer_1" viewBox="0 0 1080 1080"><defs><linearGradient id="linear-gradient" x1="27.48" x2="27.48" y1="6792.74" y2="6796.67" gradientTransform="matrix(5.82 0 0 -23.6 337.87 160979.8)" gradientUnits="userSpaceOnUse"><stop offset=".25" stop-color="#8c52ff"/><stop offset=".5" stop-color="#57007f"/><stop offset=".75" stop-color="#8c52ff"/></linearGradient><style>.cls-2{fill:#fff}.cls-3{fill:#8c52ff}.cls-6{fill:#19116f}</style></defs><g id="Grupo_140"><g id="Grupo_67"><g id="Grupo_65"><path id="Trazado_2740" d="M449.29 430.38a21.6 21.6 0 0 1 10.34-2.03c4.34-.08 8.64.82 12.57 2.64 3.79 1.88 7.12 4.58 9.73 7.91l14.19-14.19a38.4 38.4 0 0 0-15.11-12.47 49.2 49.2 0 0 0-20.78-4.16 45.8 45.8 0 0 0-19.16 3.65 28.4 28.4 0 0 0-12.37 10.34 28.67 28.67 0 0 0-4.36 16.02c-.22 4.99 1.05 9.93 3.65 14.19 2.39 3.61 5.63 6.57 9.44 8.61 3.86 2.1 7.94 3.77 12.17 4.97 4.26 1.22 8.31 2.4 12.17 3.54 3.33.91 6.52 2.31 9.44 4.16a7.8 7.8 0 0 1 3.65 6.89 7.11 7.11 0 0 1-3.85 6.49 23.15 23.15 0 0 1-11.35 2.23c-5.12.09-10.2-.91-14.9-2.94-4.5-2.03-8.48-5.05-11.66-8.82l-14.19 14.19c3.11 3.78 6.81 7.03 10.95 9.63 4.28 2.67 8.92 4.72 13.77 6.08a56.9 56.9 0 0 0 15.62 2.13c9.69.53 19.26-2.42 26.97-8.31a27.84 27.84 0 0 0 9.94-22.51c.23-5.08-1.04-10.12-3.65-14.5-2.4-3.68-5.63-6.74-9.44-8.93a57.5 57.5 0 0 0-12.16-5.27c-4.26-1.28-8.31-2.46-12.17-3.54-3.31-.85-6.49-2.15-9.44-3.85a6.99 6.99 0 0 1-3.65-6.3c-.03-2.5 1.4-4.79 3.65-5.86Z" class="cls-6"/><path id="Trazado_2741" d="M551.68 369.55h-22.31v40.56h-23.32v20.28h23.32v77.06h22.31v-77.06H575v-20.28h-23.32z" class="cls-6"/><path id="Trazado_2742" d="M656.42 414.37a45.66 45.66 0 0 0-24.03-6.3 49.64 49.64 0 0 0-25.45 6.69 49.75 49.75 0 0 0-18.15 18.15 50.3 50.3 0 0 0-6.69 25.85 50.25 50.25 0 0 0 6.79 25.95 49.1 49.1 0 0 0 18.45 18.15 52.4 52.4 0 0 0 26.26 6.59 54.8 54.8 0 0 0 21.49-4.26 45.44 45.44 0 0 0 17.23-12.57l-14.19-14.4a28.9 28.9 0 0 1-10.85 7.71 35.9 35.9 0 0 1-13.89 2.63c-5.38.11-10.69-1.18-15.41-3.75a25.75 25.75 0 0 1-10.34-10.65 30.4 30.4 0 0 1-2.65-7.08h72.6c.4-2.03.71-3.89.91-5.58.2-1.65.3-3.31.3-4.97.15-8.69-1.9-17.27-5.98-24.94a44.7 44.7 0 0 0-16.42-17.23Zm-48.97 28.08a24.9 24.9 0 0 1 9.73-10.23c4.52-2.52 9.63-3.78 14.8-3.65a26.9 26.9 0 0 1 13.69 3.24c3.74 2.18 6.74 5.43 8.62 9.33 1.19 2.45 2.05 5.04 2.57 7.71h-51.78c.53-2.22 1.33-4.37 2.38-6.4Z" class="cls-6"/><path id="Trazado_2743" d="M789.45 433.12a48.7 48.7 0 0 0-16.83-18.25 43.4 43.4 0 0 0-23.83-6.79 40.3 40.3 0 0 0-19.68 4.77 36.7 36.7 0 0 0-10.14 8.11v-10.85h-22.3V548h22.3v-51.22c2.81 3.21 6.18 5.9 9.94 7.93a40.8 40.8 0 0 0 19.87 4.77c8.42.1 16.69-2.22 23.83-6.69a47.9 47.9 0 0 0 16.83-18.15 53.2 53.2 0 0 0 6.19-25.65c.15-9-1.98-17.89-6.18-25.85Zm-20.28 41.07a26.36 26.36 0 0 1-9.73 10.44 26.9 26.9 0 0 1-14.3 3.75 27.7 27.7 0 0 1-14.4-3.75c-4.17-2.48-7.55-6.1-9.73-10.44a33.2 33.2 0 0 1-3.45-15.41 33.05 33.05 0 0 1 3.45-15.41c2.18-4.34 5.56-7.96 9.73-10.44a27.56 27.56 0 0 1 14.4-3.75c5.02-.1 9.97 1.2 14.3 3.75a26.4 26.4 0 0 1 9.73 10.44 32.5 32.5 0 0 1 3.54 15.41c.11 5.35-1.11 10.65-3.54 15.41" class="cls-6"/></g><path id="Rectángulo_162" d="M486.4 585.1h22.92v92.87H486.4z" style="fill:url(#linear-gradient)"/><g id="Grupo_66"><path id="Trazado_2744" d="m640.11 642.13-22.31-61.49h-12.99l-22.31 61.49-22.91-61.49h-23.12l39.14 97.33h12.99l22.71-58 22.71 58h12.99l39.14-97.33h-23.12z" class="cls-6"/><path id="Trazado_2745" d="M768.26 591.49a36.6 36.6 0 0 0-10.04-8.1 40.2 40.2 0 0 0-19.77-4.77c-8.43-.1-16.71 2.26-23.83 6.79a48.8 48.8 0 0 0-16.83 18.25 53.5 53.5 0 0 0-6.18 25.85c-.13 8.94 2 17.76 6.18 25.65a47.9 47.9 0 0 0 16.83 18.15 43.9 43.9 0 0 0 23.83 6.69c6.92.12 13.76-1.52 19.87-4.77 3.76-2.03 7.12-4.72 9.94-7.93v10.67h22.31v-97.33h-22.31v10.84Zm-6.19 59.12a25.8 25.8 0 0 1-19.97 8.31c-5.02.1-9.97-1.2-14.3-3.75a26.36 26.36 0 0 1-9.73-10.44 32.36 32.36 0 0 1-3.54-15.41 32.45 32.45 0 0 1 3.54-15.41c2.22-4.31 5.59-7.92 9.73-10.44 4.32-2.55 9.28-3.85 14.3-3.75 5.09-.12 10.11 1.18 14.5 3.75a25.7 25.7 0 0 1 9.63 10.44 33.16 33.16 0 0 1 3.44 15.41c.3 7.81-2.42 15.43-7.6 21.28Z" class="cls-6"/><path id="Trazado_2746" d="M876.14 581.26c-4.16-1.8-8.65-2.7-13.18-2.63a28.52 28.52 0 0 0-24.84 11.46c-.18.25-.33.53-.51.79v-10.21H815.3V678h22.31v-54.14a24.7 24.7 0 0 1 6.08-18.45c4.14-3.96 9.69-6.08 15.41-5.88 2.55-.05 5.1.37 7.5 1.22 2.25.87 4.26 2.26 5.88 4.06l14.6-15.01a31.8 31.8 0 0 0-10.95-8.52Z" class="cls-6"/><path id="Trazado_2747" d="M965.56 531.97v59.51a36.6 36.6 0 0 0-10.04-8.1 40.2 40.2 0 0 0-19.77-4.77c-8.43-.1-16.71 2.26-23.82 6.79a48.8 48.8 0 0 0-16.83 18.25 53.6 53.6 0 0 0-6.19 25.85c-.13 8.94 2 17.76 6.19 25.66a47.9 47.9 0 0 0 16.83 18.15 43.9 43.9 0 0 0 23.82 6.69c6.92.12 13.76-1.52 19.87-4.77 3.76-2.03 7.12-4.72 9.93-7.93v10.67h22.31v-146h-22.31ZM953.9 655.14a27.4 27.4 0 0 1-14.5 3.75c-5.02.1-9.97-1.2-14.29-3.75a26.36 26.36 0 0 1-9.73-10.44 32.36 32.36 0 0 1-3.54-15.41 32.45 32.45 0 0 1 3.54-15.41c2.22-4.31 5.59-7.92 9.73-10.44 4.32-2.55 9.27-3.85 14.29-3.75 5.09-.12 10.11 1.18 14.5 3.75 4.13 2.51 7.47 6.12 9.63 10.44a33.3 33.3 0 0 1 3.45 15.41c.11 5.34-1.08 10.63-3.45 15.41-2.16 4.32-5.5 7.95-9.63 10.46Z" class="cls-6"/></g><path id="Trazado_2748" d="m448.01 620.59 47.92-84.56h-26.37l-50.49 91.25v14.19h110.11v-20.89h-81.17Z" class="cls-3"/></g><g id="Grupo_74"><path id="Trazado_2749" d="M266.13 410.56c-4.84-7.59-10.25-14.8-16.18-21.57l-.08-.08-.53-.59-.53-.59c-2.73-3.05-5.58-5.99-8.5-8.8-3.01-2.9-7.02-4.52-11.2-4.51-4.17 0-8.18 1.6-11.18 4.49-3.01 2.88-6.04 6.03-9.03 9.38a176 176 0 0 0-16.81 22.28c-59.11 16.61-99.96 70.52-99.96 131.92 0 75.66 61.33 136.99 136.99 136.99s136.99-61.33 136.99-136.99c0-61.41-40.86-115.31-99.98-131.92Z" class="cls-3"/><g id="Grupo_71"><g id="Grupo_70"><g id="Grupo_69"><g id="Grupo_68"><path id="Trazado_2750" d="M198.02 611.69h62.18a161.3 161.3 0 0 1-31.09 41.93 160.9 160.9 0 0 1-31.09-41.93" style="fill:#ae86ff"/><path id="Trazado_2751" d="M260.2 611.69a161.3 161.3 0 0 1-31.09 41.93 160.9 160.9 0 0 1-31.09-41.93h-11.81c2.47 21.2 8.48 41.84 17.78 61.06a165.7 165.7 0 0 0 25.11 37.69 166.2 166.2 0 0 0 25.11-37.69c9.3-19.22 15.3-39.86 17.77-61.06h-11.77Z" style="fill:#c6a8ff"/><path id="Trazado_2752" d="M281.5 522.09c.16-29.58-6.42-58.82-19.22-85.49a166.6 166.6 0 0 0-24.46-36.95l-1.06-1.18q-3.705-4.125-7.65-7.92c-2.81 2.69-5.51 5.51-8.15 8.46a166 166 0 0 0-25.02 37.58 195 195 0 0 0-19.22 85.49v89.57H281.5v-89.57Zm-52.39-17.54c-9.76 0-19.45 1.67-28.64 4.95a168.1 168.1 0 0 1 28.64-45.39 168 168 0 0 1 28.64 45.39 85.3 85.3 0 0 0-28.65-4.93Z" class="cls-2"/></g></g></g><path id="Trazado_2753" d="M229.11 464.12a168.1 168.1 0 0 1 28.65 45.39 85.2 85.2 0 0 0-28.65-4.95c-9.76 0-19.45 1.67-28.64 4.95a167.9 167.9 0 0 1 28.64-45.39" class="cls-3"/></g><g id="Grupo_72"><path id="Trazado_2754" d="M327.02 598.73a86.53 86.53 0 0 0-34-41.22v54.19h22.48c6.07.51 11.44-3.93 12.06-10 0-1.01-.18-2.02-.54-2.97" class="cls-2"/></g><g id="Grupo_73"><path id="Trazado_2755" d="M131.24 598.6c-.04.11-.08.2-.12.31 0 0 0 .04-.02.06-.3.89-.46 1.82-.46 2.76.62 6.06 5.99 10.51 12.06 10h22.49v-54.19a86.56 86.56 0 0 0-33.96 41.07Z" class="cls-2"/></g></g></g></svg>